<svg width="216" height="75" viewBox="0 0 216 75" xmlns="http://www.w3.org/2000/svg" xmlns:xlink="http://www.w3.org/1999/xlink"><title>googlemap</title><defs><path id="path-1" d="M0 0h216v75H0z"/><path id="path-3" d="M0 0h216v75H0z"/></defs><g id="Page-1" fill="none" fill-rule="evenodd"><g id="googlemap"><g id="Page-1"><g id="Group"><g id="Rectangle" fill="#D8D8D8"><path id="path-1" d="M0 0h216v75H0z"/></g><g id="Page-1-Clipped"><mask id="mask-2" fill="#fff"><use xlink:href="#path-1"/></mask><g id="Page-1" mask="url(#mask-2)"><g transform="translate(-65.787 -39)" id="Group"><g id="Group-243" transform="translate(0 .07)"><path d="M.26 44.456l6.897 1.362s7.371 10.114 36.143 17.31l33.528 83.632-5.706 6.224L.023 138.008l.238-93.552z" id="Fill-1" fill="#ABD35F"/><path id="Fill-5" fill="#FFF4E6" d="M51.86 51.652l91.133 16.143-17.18 28.202-63.965-11.475L50.909 58.46z"/><path id="Fill-7" fill="#FFF4E6" d="M63.75 89.385l19.736 50.18 39.376-40.845z"/><path id="Fill-9" fill="#FFF4E6" d="M129.142 97.748l18.071-29.175 17.121 3.112-20.212 32.092z"/><path id="Fill-11" fill="#FFF4E6" d="M146.738 105.139l13.791 5.834 22.59-35.592-14.505-2.917z"/><path id="Fill-13" fill="#FFF4E6" d="M164.334 112.335l12.603 5.64 24.492-39.093-14.98-3.112z"/><path id="Fill-15" fill="#FFF4E6" d="M181.336 118.948l23.897-39.483 14.505 3.987-24.848 40.65z"/><path id="Fill-17" fill="#FFF4E6" d="M126.692 100.057l32.184 13.445-32.184 42.01-36.31-8.946-2.853-7.002z"/><path id="Fill-31" fill="#FFF4E6" d="M198.694 126.241l15.694 6.03 37.927-18.672-18.19-26.743-6.54-2.14-3.804-.583z"/><path id="Fill-37" fill="#FFF4E6" d="M148.64 64.684l35.193-52.708 42.682 60.78 4.043 8.849-11.77-2.14z"/><path id="Fill-39" fill="#FFF4E6" d="M145.311 64.1l32.815-51.346h-29.248l-23.541 48.04z"/><path id="Fill-41" fill="#FFF4E6" d="M121.532 60.405l23.541-47.457h-9.511l-9.036 7.002-71.574 17.504-2.853 10.114z"/><path d="M213.08 40.955l41.851-18.088 16.17 24.507s-7.847 6.612-3.805 13.809L235.67 74.992l-22.59-34.037z" id="Fill-61" fill="#FFF4E6"/><path d="M237.097 77.52l31.388-13.03s4.993 9.14 18.072 6.223l17.358 22.367.238 2.723-63.014-11.864-4.042-6.419z" id="Fill-63" fill="#FFF4E6"/><path id="Fill-65" fill="#FFF4E6" d="M244.944 88.412l14.148 23.242 32.815-14.49z"/><path id="Fill-67" fill="#FFF4E6" d="M285.487 64.295L252.79 11.78h32.696z"/><path id="Fill-69" fill="#FFF4E6" d="M262.065 115.544l23.422-10.6v45.61z"/><path id="Fill-72" fill="#F1B14F" d="M296.245 181.632L178.54 3.67l7.731-3.421L303.976 178.21z"/><path id="Fill-77" fill="#F4E7D0" d="M126.551 103.81l-34.483 35.026.564 6.36 32.454 8.296 29.3-37.7z"/><path id="Fill-79" fill="#FFF4E6" d="M129.932 112.198l4.057 1.751.901-1.106 1.916.922-1.127 1.936 4.846 2.12.676-.83 2.254.83-14.312 18.711-8.452-4.056-3.944 6.637 9.466 4.608-4.282 6.453-8-1.844.45-2.304-4.959-1.014.338-1.106 3.156.276 1.69-1.567-1.465-1.843 2.254-2.12-7.1-5.715z"/><path id="Fill-111" fill="#F4E7D0" d="M202.955 122.43l.789 3.502 10.706 4.332 32.455-16.13.788-3.226-14.311-20.647-9.354-2.028z"/><path id="Fill-113" fill="#F4E7D0" d="M205.322 82.61l11.494 2.49-18.706 29.955-2.142-.737-1.915 2.858 2.14 1.106-2.14 3.318-9.917-3.78 9.691-16.038 2.029-1.198 2.592-3.779-.226-2.12z"/><path id="Fill-115" fill="#F4E7D0" d="M187.066 78.647l10.593 2.397-21.862 34.749-6.649-2.765-1.014-2.766z"/><path id="Fill-117" fill="#F4E7D0" d="M178.276 77.172l-8.564 13.734-3.494-1.29.564-1.567-1.127-.646-2.705 4.425 4.959 2.212-7.213 12.904-2.479 1.106-8.564-3.779 19.608-29.68z"/><path id="Fill-119" fill="#F4E7D0" d="M148.864 70.72l-16.34 26.454 10.03 4.424 3.83-5.254-4.281-2.028 3.83-6.267 4.058 1.474 10.255-16.038z"/><path id="Fill-121" fill="#F4E7D0" d="M136.919 68.969l-13.861 24.887-16.678-3.134 1.803-9.218-8.903-1.566-1.014 2.396-4.846-1.106-2.253 7.097-28.06-5.07-9.692-23.596.902-6.36z"/><path id="Fill-123" fill="#F4E7D0" d="M66.6 91.551l15.551 39.174 3.381.737 29.638-29.126-1.015-2.858z"/><path id="Fill-127" fill="#F4E7D0" d="M58.824 37.999l56.57-12.905h17.919L119 55.788 55.894 45.649z"/><path id="Fill-129" fill="#F4E9CE" d="M130.608 59.198l-1.127-2.12 16.002-31.984h4.057l-9.24 18.62 1.69.368 9.804-18.988h13.974l-23.215 36.224z"/><path id="Fill-131" fill="#F4E7D0" d="M176.811 52.93l2.254-6.175 5.41-4.793 11.043 10.324-2.48 3.963z"/><path id="Fill-133" fill="#F4E7D0" d="M155.738 62.332l4.508-7.005 2.817 1.014-.676 2.304 6.536 1.567 1.127-2.58 5.747.829.789-1.936 12.058 2.397-.113 1.198 1.916.461-.338 2.765 5.183.922 1.465-3.687 4.959 1.106-.676 3.871 5.86 1.014.563 2.028 2.93.46-.676 5.347z"/><path id="Fill-135" fill="#F4E7D0" d="M210.506 66.664l3.042 3.503-.338 3.042 4.508 1.475 5.184-2.028-31.441-46.364-7.1 2.95 3.944 6.268-1.464.83 9.128 13.18 4.282-1.843.563.922-3.606 2.212 5.184 8.295 1.803-.276z"/><path id="Fill-139" fill="#F4E7D0" d="M176.811 27.03l-13.41 22.03 9.579 3.778 11.381-19.725-1.577-1.382 1.014-2.12z"/><path id="Fill-141" fill="#F4E7D0" d="M162.95 49.797l7.663 3.226-2.48 4.332-7.437-2.58z"/><path id="Fill-143" fill="#F4E7D0" d="M219.634 39.473l-1.353 4.793 3.945 6.268 6.197-2.396-2.704-4.978 4.733-1.567-3.268-5.714z"/><path id="Fill-145" fill="#F4E7D0" d="M228.874 35.233l25.919-10.139 4.62 7.282-6.085 2.765-1.127-1.843-2.705.921 1.465 2.305-6.536 2.765-.563-.737-10.48 4.7-1.916-3.041 2.367-.922-1.015-1.66-2.366 1.015z"/><path id="Fill-147" fill="#F4E7D0" d="M222.902 51.548l4.958-1.936.676 1.106 1.803-.737-.676-1.383 4.507-1.659 8.114 11.799 14.2-5.715 2.028 2.765-.677.553 1.916 2.765 1.127-.46 1.69 2.765-20.735 8.664-6.535-.645z"/><path d="M260.427 33.759l7.663 12.166s-7.212 5.715-3.718 13.55l-1.127.737-5.072-7.742 2.592-1.475-.563-1.383-8.226 3.134-3.494-6.083 1.803-.83-2.479-4.055-1.69.553-1.014-1.844 15.325-6.728z" id="Fill-149" fill="#F4E7D0"/><path d="M244.763 76.988l3.269 5.53 15.776 2.95-.113 1.014 16.904 3.134V74.96s-8.226.277-14.424-6.82l-21.412 8.848z" id="Fill-151" fill="#F4E7D0"/><path id="Fill-153" fill="#F4E7D0" d="M253.44 96.252l2.593-2.857 24.566 4.332v2.765l-12.734 5.991-8.34-1.382z"/><path id="Fill-155" fill="#FFF4E6" d="M257.61 97.358l1.24-1.29 17.467 2.95.113 1.198-8.903 3.502-6.31-.921z"/><path d="M131.538 114.894c0 .586-.58 1.06-1.296 1.06-.716 0-1.296-.474-1.296-1.06 0-.585.58-1.06 1.296-1.06.716 0 1.296.475 1.296 1.06" id="Fill-203" fill="#ABD35F"/></g><g id="Group-276" transform="translate(74.001 24.956)"><path id="Fill-257" fill="#FFF4E6" d="M.74 15.877L.184 18.18l17.563 3.226 1.201-5.438 5.731.922-1.201 5.899 14.327 2.95 4.622-13.366-1.571-.368 1.201-3.503 1.11.184 3.05-8.48h-2.866L1.386 12.927z"/><path d="M50.826 24.91a4.602 4.602 0 0 1-4.608 4.595 4.602 4.602 0 0 1-4.608-4.595 4.602 4.602 0 0 1 4.608-4.595 4.602 4.602 0 0 1 4.608 4.595" id="Fill-268" fill="#3ECECE"/><path d="M47.36 23.398c-.154-.128-.37-.192-.646-.192H45.62v1.704h1.093c.277 0 .492-.069.645-.208.154-.139.23-.358.23-.66 0-.3-.076-.515-.23-.644m.926 2.086c-.34.283-.825.424-1.455.424h-1.21v2.081h-1.204v-5.788h2.492c.575 0 1.033.149 1.375.447.341.299.512.761.512 1.387 0 .683-.17 1.166-.51 1.449" id="Fill-270" fill="#FFF"/><path d="M42.49 65.713c.086-.444.133-.902.133-1.372 0-3.947-3.21-7.147-7.168-7.147-3.96 0-7.169 3.2-7.169 7.147 0 .47.047.928.134 1.372.371 2.717 3.148 4.754 7.035 14.384 3.634-9.315 6.663-11.667 7.035-14.384" id="Fill-272" fill="#DF574B"/><path d="M41.593 64.342c0 3.38-2.748 6.12-6.138 6.12-3.39 0-6.139-2.74-6.139-6.12s2.748-6.121 6.139-6.121c3.39 0 6.138 2.74 6.138 6.12" id="Fill-274" fill="#C34D41"/></g><path d="M104.933 89.434a4.483 4.483 0 0 0 4.48 4.487 4.483 4.483 0 0 0 4.478-4.487 4.483 4.483 0 0 0-4.479-4.488 4.483 4.483 0 0 0-4.479 4.488" id="Fill-277" fill="#FFF"/><path d="M114.86 105.053c0 .383-2.25.694-5.027.694s-5.028-.31-5.028-.694c0-.383 2.251-.693 5.028-.693 2.776 0 5.027.31 5.027.693" id="Fill-279"/></g></g></g><g id="Rectangle-2-Clipped"><mask id="mask-4" fill="#fff"><use xlink:href="#path-3"/></mask><path id="Rectangle-2" fill="#000" opacity=".574" mask="url(#mask-4)" d="M-13.706-.818h230.802V87H-13.706z"/></g></g></g></g></g></svg>