<?xml version="1.0" encoding="UTF-8" standalone="no"?><svg xmlns="http://www.w3.org/2000/svg" xmlns:xlink="http://www.w3.org/1999/xlink"><symbol class="aasprite-icon" viewBox="-120.62 -120.62 627.25 568.25" id="alarm68"><path d="M375.87 56c-17.567-29.435-55.702-39.834-86-24-27.308-20.104-60.789-32-97-32-36.21 0-69.69 11.896-97 32-30.296-15.834-68.432-5.435-86 24-19.197 31.31-9.436 71.582 21 91-.3 4.789-.57 10.089-1 15 .43 47.263 20.356 89.505 52 119l-24 25c-5.224 4.548-5.223 12.46 0 17 2.102 2.78 5.303 4 9 4 2.704 0 5.904-1.22 8-4l27-26c25.844 17.558 57.235 27.9 91 28 33.766-.1 65.158-10.443 91-28l27 26c2.096 2.78 5.298 4 8 4 3.698 0 6.899-1.22 9-4 5.224-4.54 5.225-12.452 0-17l-24-25c31.645-29.495 51.57-71.737 52-119-.43-4.912-.699-10.212-1-15 30.437-19.418 40.199-59.69 21-91zm-345 14c9.234-15.781 27.28-22.809 44-19-17.984 18.943-31.447 42.182-39 68-12.114-12.993-14.872-33.223-5-49zM55 163c0-76.318 61.682-138 138-138 75.318 0 137 61.682 137 138 0 75.318-61.682 137-137 137-76.318 0-138-61.682-138-137zm294.87-44c-7.55-25.818-21.014-49.057-39-68 16.722-3.808 34.767 3.218 44 19 9.873 15.777 7.115 36.007-5 49z" id="outer"/><path d="M190 35c6.627 0 12 5.378 12 12v116h-24V47c0-6.628 5.371-12 12-12z" id="long-finger"/><path d="M241.25 110.75c6.627 0 12 4.348 12 9.703v93.797h-24v-93.797c0-5.36 5.371-9.703 12-9.703z" id="short-finger" transform="rotate(90 241.25 162.5)"/></symbol></svg>