<?xml version="1.0" encoding="utf-8"?><svg xmlns="http://www.w3.org/2000/svg" xmlns:xlink="http://www.w3.org/1999/xlink"><symbol class="aasprite-icon" viewBox="0 0 64 64" id="alert1"><title>alert1</title><path d="M1108-448h64v64h-64v-64z" fill="#FFF"/><g transform="translate(-1108 448)"><path id="Exclude" fill-rule="evenodd" d="M63.322 57.114c.88-1.498.903-2.997.071-4.495L35.995 2.39A4.557 4.557 0 0 0 34.32.642 4.427 4.427 0 0 0 32 0c-.832 0-1.605.214-2.319.642a4.556 4.556 0 0 0-1.677 1.748L.608 52.62c-.832 1.498-.809 2.997.071 4.495.405.69.958 1.237 1.66 1.64a4.461 4.461 0 0 0 2.264.607h54.796c.808 0 1.563-.202 2.265-.606a4.482 4.482 0 0 0 1.659-1.641zM28 41l-2-19h12l-2 19h-8zm0 13v-8h8v8h-8z" transform="translate(1108 -446)"/></g></symbol><symbol class="absprite-icon" viewBox="0 0 64 64" id="alert2"><title>alert2</title><path d="M1190-448h64v64h-64v-64z" fill="#FFF"/><g transform="translate(-1190 448)" fill-rule="evenodd"><path id="primary" d="M56.889 56.889H7.11V7.11H32V0H7.111A7.11 7.11 0 0 0 0 7.111V56.89A7.11 7.11 0 0 0 7.111 64H56.89A7.11 7.11 0 0 0 64 56.889V32h-7.111v24.889z" transform="translate(1190 -448)" fill=""/><path id="accent" d="M0 0h12l-2 19H2L0 0z" transform="translate(1216 -432)" fill="currentColor"/><path id="accent" d="M0 0h8v8H0V0z" transform="translate(1218 -408)" fill="currentColor"/></g></symbol><symbol class="acsprite-icon" viewBox="0 0 64 64" id="announcements"><title>announcements</title><path d="M1664-448h64v64h-64v-64z" fill="#FFF"/><g transform="translate(-1664 448)" fill-rule="evenodd"><path id="accent" d="M7.111 0H0v28.235h7.111V0z" transform="translate(1664 -432.882)" fill="currentColor"/><path id="primary" d="M46.222 4.232V0h7.111v56.47h-7.11v-4.228l-16.819-5.276-8.782 11.622A3.562 3.562 0 0 1 17.778 60c-.288 0-.576-.032-.864-.102l-14.222-3.53A3.539 3.539 0 0 1 0 52.941v-36.95l46.222-11.76zM7.112 50.185l9.237 2.294 5.436-7.197L7.11 42.046v8.139z" transform="translate(1674.67 -447)" fill=""/></g></symbol><symbol class="adsprite-icon" viewBox="0 0 64 64" id="arrow1"><title>arrow1</title><path d="M2058-764h64v64h-64v-64z" fill="#FFF"/><g transform="translate(-2058 764)"><path id="primary" fill-rule="evenodd" d="M0 32C0 14.336 14.336 0 32 0s32 14.336 32 32-14.336 32-32 32S0 49.664 0 32zm43.355 1.032l-18.58-14.451v28.903l18.58-14.452z" transform="translate(2058 -764)" fill=""/></g></symbol><symbol class="aesprite-icon" viewBox="0 0 64 64" id="arrow2"><title>arrow2</title><path d="M1980-764h64v64h-64v-64z" fill="#FFF"/><g transform="translate(-1980 764)"><path id="primary" fill-rule="evenodd" d="M39.52 7.52L32 0 0 32l32 32 7.52-7.52L15.093 32 39.52 7.52z" transform="matrix(-1 0 0 1 2031.52 -764)" fill=""/></g></symbol><symbol class="afsprite-icon" viewBox="0 0 64 64" id="arrow3"><title>arrow3</title><path d="M1900-448h64v64h-64v-64z" fill="#FFF"/><g transform="translate(-1900 448)"><path id="primary" fill-rule="evenodd" d="M52.343 21.623H0v7.762h52.343L35.716 45.513 41.374 51l22.283-21.615H64v-7.762h-.344L41.373 0l-5.656 5.495 16.626 16.128z" transform="translate(1900 -442)" fill=""/></g></symbol><symbol class="agsprite-icon" viewBox="0 0 64 64" id="arrow4"><title>arrow4</title><path d="M1980-448h64v64h-64v-64z" fill="#FFF"/><g transform="translate(-1980 448)"><path id="primary" fill-rule="evenodd" d="M56.128 36.169c2.712-2.708 2.109-4.617-1.68-4.617H39.251l.003-20.974C39.254 4.736 34.622 0 28.903 0c-5.716 0-10.35 4.736-10.35 10.578l-.003 20.976H3.345c-3.783-.002-4.381 1.912-1.672 4.62L28.898 64l27.23-27.831z" transform="matrix(0 1 1 0 1980 -445)" fill=""/></g></symbol><symbol class="ahsprite-icon" viewBox="0 0 64 64" id="attachment"><title>attachment</title><path d="M1428-526h64v64h-64v-64z" fill="#FFF"/><g transform="translate(-1428 526)"><path id="primary" fill-rule="evenodd" d="M42.687 4.259L13.603 33.34c-.224.201-2.9 2.715-2.995 6.36-.059 2.252.864 4.352 2.748 6.235 1.607 1.608 3.53 2.443 5.556 2.417 3.671-.044 6.409-2.81 6.706-3.124l21.88-21.879a2.089 2.089 0 0 0 0-2.96 2.09 2.09 0 0 0-2.959 0L22.625 42.306c-.521.536-2.153 1.85-3.782 1.863-.891.006-1.718-.385-2.528-1.193-1.046-1.047-1.544-2.072-1.523-3.142.035-1.898 1.684-3.447 1.701-3.465l29.154-29.15c2.83-2.827 6.402-5.041 11.441 0 1.846 1.846 2.76 3.759 2.725 5.689-.06 3.17-2.63 5.581-2.658 5.606L24.467 50.836c-.071.07-4.113 4.156-9.033 4.19-2.589.016-5.048-1.122-7.308-3.38-8.543-8.544-.548-17.07-.205-17.428L33.062 9.075a2.093 2.093 0 1 0-2.96-2.962L4.93 31.286C1 35.38-3.963 45.476 5.164 54.605c3.094 3.09 6.57 4.64 10.333 4.604 6.693-.059 11.737-5.213 11.948-5.433l32.594-32.23c.092-.082 3.834-3.529 3.958-8.505.077-3.131-1.252-6.086-3.95-8.782-3.96-3.96-10.185-7.174-17.36 0z" transform="translate(1428 -523.703)" fill=""/></g></symbol><symbol class="aisprite-icon" viewBox="0 0 64 64" id="barchart"><title>barchart</title><path d="M1032-526h64v64h-64v-64z" fill="#FFF"/><g transform="translate(-1032 526)"><path id="primary" fill-rule="evenodd" d="M7.111 0H56.89C60.8 0 64 3.2 64 7.111V56.89C64 60.8 60.8 64 56.889 64H7.11C3.2 64 0 60.8 0 56.889V7.11C0 3.2 3.2 0 7.111 0zm7.111 49.778h7.111v-24.89h-7.11v24.89zm21.334 0h-7.111V14.222h7.11v35.556zm7.11 0h7.112V35.556h-7.111v14.222z" transform="translate(1032 -526)" fill=""/></g></symbol><symbol class="ajsprite-icon" viewBox="0 0 64 64" id="calendar"><title>calendar</title><path d="M1190-764h64v64h-64v-64z" fill="#FFF"/><g transform="translate(-1190 764)" fill-rule="evenodd"><path id="primary" d="M17.778 6.4h28.444V0h7.111v6.4h3.556C60.818 6.4 64 9.264 64 12.8v44.8c0 3.536-3.182 6.4-7.111 6.4H7.11C3.182 64 0 61.136 0 57.6l.036-44.8c0-3.536 3.146-6.4 7.075-6.4h3.556V0h7.11v6.4zM8.533 57.6h46.934V23.467H8.533V57.6z" transform="translate(1190 -764)" fill=""/><path id="accent" d="M9.643 0H0v9.643h9.643V0zM22.5 0h-9.643v9.643H22.5V0zm3.214 0h9.643v9.643h-9.643V0zM9.643 12.857H0V22.5h9.643v-9.643zm3.214 0H22.5V22.5h-9.643v-9.643zm22.5 0h-9.643V22.5h9.643v-9.643z" transform="translate(1204 -734.5)" fill="currentColor"/></g></symbol><symbol class="aksprite-icon" viewBox="0 0 64 64" id="camera"><title>camera</title><path d="M1112-606h64v64h-64v-64z" fill="#FFF"/><g transform="translate(-1112 606)" fill-rule="evenodd"><path id="accent" d="M12.8 0C5.74 0 0 5.74 0 12.8c0 7.06 5.74 12.8 12.8 12.8 7.06 0 12.8-5.74 12.8-12.8C25.6 5.74 19.86 0 12.8 0z" transform="translate(1131.2 -582.8)" fill="currentColor"/><path id="primary" d="M51.424 9.6H57.6c3.536 0 6.4 2.864 6.4 6.4v35.2a6.4 6.4 0 0 1-6.4 6.4H6.4A6.4 6.4 0 0 1 0 51.2V16c0-3.536 2.864-6.4 6.4-6.4h6.176a6.4 6.4 0 0 0 5.325-2.851l2.598-3.901A6.404 6.404 0 0 1 25.824 0h12.352a6.404 6.404 0 0 1 5.325 2.848l2.598 3.9A6.4 6.4 0 0 0 51.424 9.6zM12.8 32c0 10.589 8.611 19.2 19.2 19.2 10.589 0 19.2-8.611 19.2-19.2 0-10.589-8.611-19.2-19.2-19.2-10.589 0-19.2 8.611-19.2 19.2z" transform="translate(1112 -602)" fill=""/></g></symbol><symbol class="alsprite-icon" viewBox="0 0 64 64" id="chain"><title>chain</title><path d="M1820-524h64v64h-64v-64z" fill="#FFF"/><g transform="translate(-1820 524)"><path id="link - FontAwesome" fill-rule="evenodd" d="M60.667 55.02C62.889 52.85 64 50.196 64 47.059c0-3.137-1.098-5.804-3.294-8l-8.157-8.157c-2.196-2.196-4.863-3.294-8-3.294-3.19 0-5.908 1.15-8.157 3.45l-3.45-3.45c2.3-2.248 3.45-4.98 3.45-8.196 0-3.137-1.085-5.791-3.255-7.961L25.06 3.333C22.889 1.111 20.222 0 17.059 0c-3.138 0-5.791 1.085-7.961 3.255L3.333 8.98C1.111 11.15 0 13.804 0 16.941c0 3.137 1.098 5.804 3.294 8l8.157 8.157c2.196 2.196 4.863 3.294 8 3.294 3.19 0 5.909-1.15 8.157-3.45l3.45 3.45c-2.3 2.248-3.45 4.98-3.45 8.196 0 3.137 1.085 5.791 3.255 7.961l8.078 8.118c2.17 2.222 4.837 3.333 8 3.333 3.137 0 5.79-1.085 7.961-3.255l5.765-5.725zM28.902 19.412c0-1.046-.366-1.935-1.098-2.667l-8.078-8.118c-.733-.732-1.621-1.098-2.667-1.098-1.02 0-1.909.353-2.667 1.06l-5.765 5.725c-.732.732-1.098 1.608-1.098 2.627 0 1.046.366 1.935 1.098 2.667l8.157 8.157c.706.706 1.595 1.058 2.667 1.058 1.098 0 2.04-.405 2.823-1.215-.078-.079-.326-.32-.745-.726-.418-.405-.699-.686-.843-.843a9.323 9.323 0 0 1-.588-.745 3.151 3.151 0 0 1-.51-1 3.988 3.988 0 0 1-.137-1.078c0-1.046.366-1.935 1.098-2.667.732-.732 1.62-1.098 2.667-1.098.392 0 .751.046 1.078.137.327.092.66.262 1 .51.34.248.588.445.745.588.157.144.438.425.843.843.406.419.647.667.726.745.863-.81 1.294-1.764 1.294-2.862zm27.569 27.647c0-1.046-.366-1.935-1.098-2.667l-8.157-8.157c-.732-.732-1.621-1.098-2.667-1.098-1.098 0-2.04.419-2.824 1.255.079.079.327.32.746.726.418.405.699.686.843.843.144.157.34.405.588.745.248.34.418.673.51 1 .091.327.137.686.137 1.078 0 1.046-.366 1.935-1.098 2.667-.732.732-1.62 1.098-2.667 1.098-.392 0-.751-.046-1.078-.137a3.153 3.153 0 0 1-1-.51 9.336 9.336 0 0 1-.745-.588 24.2 24.2 0 0 1-.843-.843c-.406-.419-.647-.667-.726-.745-.863.81-1.294 1.764-1.294 2.862 0 1.046.366 1.935 1.098 2.667l8.079 8.117c.705.706 1.594 1.06 2.666 1.06 1.046 0 1.935-.34 2.667-1.02l5.765-5.726c.732-.732 1.098-1.608 1.098-2.627z" transform="translate(1820 -524)"/></g></symbol><symbol class="amsprite-icon" viewBox="0 0 64 64" id="chatsmile"><title>chatsmile</title><path d="M1980-604h64v64h-64v-64z" fill="#FFF"/><g transform="translate(-1980 604)"><path id="primary" fill-rule="evenodd" d="M6.4 0h51.2A6.4 6.4 0 0 1 64 6.4v38.4a6.4 6.4 0 0 1-6.4 6.4H22.4L9.6 64V51.2H6.4A6.4 6.4 0 0 1 0 44.8V6.4A6.4 6.4 0 0 1 6.4 0zm20 16c0-2.208-1.795-4-4-4s-4 1.792-4 4 1.795 4 4 4 4-1.792 4-4zm-9.05 12.8c2.47 5.645 8.09 9.6 14.65 9.6 6.56 0 12.18-3.955 14.65-9.6h-29.3zM41.6 12c2.205 0 4 1.792 4 4s-1.795 4-4 4-4-1.792-4-4 1.795-4 4-4z" transform="translate(1980 -604)" fill=""/></g></symbol><symbol class="ansprite-icon" viewBox="0 0 64 64" id="checklist"><title>checklist</title><path d="M2058-604h64v64h-64v-64z" fill="#FFF"/><g transform="translate(-2058 604)"><path id="primary" fill-rule="evenodd" d="M0 4a4 4 0 0 1 4-4h56a4 4 0 0 1 4 4v56a4 4 0 0 1-4 4H4a4 4 0 0 1-4-4V4zm44.148 3.111L29.654 22.543 19.34 12.23l-5.118 5.685 15.945 15.944 19.61-21.116-5.63-5.63zM29.654 43.877l14.494-15.433 5.63 5.63-19.611 21.118-15.945-15.945 5.118-5.685 10.314 10.315z" transform="translate(2058 -604)" fill=""/></g></symbol><symbol class="aosprite-icon" viewBox="0 0 64 64" id="checkmarkbox"><title>checkmarkbox</title><path d="M1032-606h64v64h-64v-64z" fill="#FFF"/><g transform="translate(-1032 606)" fill-rule="evenodd"><path id="primary" d="M29.158 47.066L4.122 22.032l14.707-14.71 9.613 9.612L43.837 0H6.4C2.87 0 0 2.874 0 6.4v38.4c0 3.53 2.87 6.4 6.4 6.4h44.8c3.53 0 6.4-2.87 6.4-6.4V15.78L29.158 47.065z" transform="translate(1032 -597.6)" fill=""/><path id="accent" d="M15.766 43.683L0 27.92l5.658-5.658 9.833 9.834L44.67 0l5.92 5.38-34.823 38.303z" transform="translate(1045.17 -603.49)" fill="currentColor"/></g></symbol><symbol class="apsprite-icon" viewBox="0 0 64 64" id="clock"><title>clock</title><path d="M1586-448h64v64h-64v-64z" fill="#FFF"/><g transform="translate(-1586 448)" fill-rule="evenodd"><path id="accent" d="M5.333 0H0v21.333l16.889 10.134 2.667-4.374-14.223-8.426V0z" transform="translate(1614.44 -433.778)" fill="currentColor"/><path id="primary" d="M0 32C0 14.329 14.329 0 32 0s32 14.329 32 32-14.329 32-32 32C14.293 64 0 49.671 0 32zm8.556 0c0 12.961 10.483 23.444 23.444 23.444 12.961 0 23.444-10.483 23.444-23.444C55.444 19.039 44.962 8.556 32 8.556 19.039 8.556 8.556 19.039 8.556 32z" transform="translate(1586 -448)" fill=""/></g></symbol><symbol class="aqsprite-icon" viewBox="0 0 64 64" id="column"><title>column</title><path d="M1190-526h64v64h-64v-64z" fill="#FFF"/><g transform="translate(-1190 526)" fill-rule="evenodd"><path id="accent" d="M12.8 0h38.4C58.269 0 64 5.731 64 12.8c0 7.069-5.731 12.8-12.8 12.8-7.069 0-12.8-5.731-12.8-12.8 0-2.342.675-4.512 1.776-6.4H23.824c1.1 1.888 1.776 4.058 1.776 6.4 0 7.069-5.731 12.8-12.8 12.8C5.731 25.6 0 19.869 0 12.8 0 5.731 5.731 0 12.8 0zm6.4 12.8a6.4 6.4 0 1 1-12.8 0 6.4 6.4 0 0 1 12.8 0zm32 6.4a6.4 6.4 0 1 1 0-12.8 6.4 6.4 0 0 1 0 12.8z" transform="translate(1190 -526)" fill="currentColor"/><path id="primary" d="M0 28.8h6.4V6.4h3.2v22.4H16V6.4h3.2v22.4h6.4V0H0v28.8z" transform="translate(1209.2 -490.8)" fill=""/><path id="primary" d="M0 6.4h25.6V0H0v6.4z" transform="translate(1209.2 -500.4)" fill=""/></g></symbol><symbol class="arsprite-icon" viewBox="0 0 64 64" id="cpu"><title>cpu</title><path d="M2058-524h64v64h-64v-64z" fill="#FFF"/><g transform="translate(-2058 524)"><path id="primary" fill-rule="evenodd" d="M7.531 0L0 7.531V0h7.531zm16.803 0H7.531v7.531H0v24.334h31.866V0h-7.532zm0 7.531H7.531v16.804H0l7.531 7.53v-7.53h16.803v7.53l7.532-7.53h-7.532V7.53zm0 0h7.532L24.334 0v7.531z" transform="translate(2073.97 -508.031)" fill=""/><path id="accent" d="M2.824 5.649h9.394V0H0v5.649h2.824z" transform="translate(2109.78 -507.868)" fill="currentColor"/><path id="accent" d="M0 2.824v9.394h5.649V0H0v2.824z" transform="translate(2100.02 -472.218)" fill="currentColor"/><path id="accent" d="M0 2.824v9.394h5.649V0H0v2.824z" transform="translate(2074.13 -472.218)" fill="currentColor"/><path id="accent" d="M0 9.394v2.824h5.649V0H0v9.394z" transform="translate(2074.13 -524)" fill="currentColor"/></g></symbol><symbol class="assprite-icon" viewBox="0 0 64 64" id="dna"><title>dna</title><path d="M1900-604h64v64h-64v-64z" fill="#FFF"/><g transform="translate(-1900 604)"><path id="primary" fill-rule="evenodd" d="M58.38 21.135l1.742-1.739L64 23.274l-1.742 1.736c-7.185 7.192-17.117 10.817-27.146 10.102.71 10.024-2.913 19.963-10.102 27.15l-1.736 1.735-3.88-3.878 1.738-1.736c.037-.037.07-.076.102-.115.029-.033.057-.067.087-.099L5.831 42.68a1.94 1.94 0 0 1-.107.093c-.037.03-.073.06-.107.093l-1.739 1.742L0 40.728l1.739-1.741c7.186-7.183 17.125-10.806 27.15-10.096C28.174 18.867 31.8 8.927 38.986 1.74L40.726 0l3.878 3.878-1.736 1.739c-.037.037-.07.076-.102.115-.029.033-.057.067-.087.099l15.49 15.49c.035-.034.072-.065.108-.095.035-.03.07-.058.103-.091zm-4.52 3.637a29.454 29.454 0 0 1-5.054 2.701l-12.28-12.281a29.443 29.443 0 0 1 2.702-5.052L53.86 24.772zm-19.388 4.756c-.298-2.814-.23-5.626.27-8.366l8.093 8.1c-2.735.493-5.549.562-8.363.265zM10.137 39.23a28.847 28.847 0 0 1 5.057-2.704l12.28 12.279a29.318 29.318 0 0 1-2.702 5.06L10.137 39.23zm19.125 3.607c.496-2.738.564-5.549.265-8.366-2.814-.296-5.628-.23-8.365.267l8.1 8.099z" transform="translate(1900 -604)" fill=""/></g></symbol><symbol class="atsprite-icon" viewBox="0 0 64 64" id="doc"><title>doc</title><path d="M1348-606h64v64h-64v-64z" fill="#FFF"/><g transform="translate(-1348 606)"><path id="primary" fill-rule="evenodd" d="M6.4 0h30.125L51.2 14.675V57.6c0 3.526-2.87 6.4-6.4 6.4H6.4C2.87 64 0 61.126 0 57.6V6.4C0 2.874 2.87 0 6.4 0zM32 3.2v16h16l-16-16zm-22.4 48h32v-6.4h-32v6.4zm0-19.2h25.6v6.4H9.6V32z" transform="translate(1354 -606)" fill=""/></g></symbol><symbol class="ausprite-icon" viewBox="0 0 64 64" id="docs"><title>docs</title><path d="M1508-606h64v64h-64v-64z" fill="#FFF"/><g transform="translate(-1508 606)" fill-rule="evenodd"><path id="primary" d="M5.818 0h21.568l13.341 13.341v33.204a5.826 5.826 0 0 1-5.818 5.819H5.82A5.826 5.826 0 0 1 0 46.545V5.819A5.826 5.826 0 0 1 5.818 0zm17.455 2.91v14.544h14.545L23.273 2.91z" transform="translate(1525.64 -606)" fill=""/><path id="accent" d="M5.818 0H0v46.545a5.826 5.826 0 0 0 5.818 5.819h34.91v-5.819H5.817V0z" transform="translate(1514 -594.364)" fill="currentColor"/></g></symbol><symbol class="avsprite-icon" viewBox="0 0 64 64" id="download"><title>download</title><path d="M1664-686h64v64h-64v-64z" fill="#FFF"/><g transform="translate(-1664 686)" fill-rule="evenodd"><path id="accent" d="M14.636 38.92l13.791-14.096c1.374-1.371 1.068-2.338-.85-2.338H19.88l.001-17.128c0-2.96-2.346-5.358-5.242-5.358-2.895 0-5.243 2.399-5.243 5.358l-.001 17.129H1.694c-1.916-.001-2.219.968-.847 2.34l13.79 14.093z" transform="translate(1681.2 -686)" fill="currentColor"/><path id="primary" d="M52.45 0c-.748 0-1.353.54-1.353 1.207V20.85H12.904V1.207C12.904.54 12.3 0 11.551 0H1.353C.605 0 0 .54 0 1.207V25.91c0 3.677 3.355 6.668 7.475 6.668h49.05c4.122 0 7.475-2.991 7.475-6.668V1.207C64.001.54 63.397 0 62.648 0H52.45z" transform="translate(1664 -655)" fill=""/></g></symbol><symbol class="awsprite-icon" viewBox="0 0 64 64" id="downloaddoc"><title>downloaddoc</title><path d="M1742-684h64v64h-64v-64z" fill="#FFF"/><g transform="translate(-1742 684)" fill-rule="evenodd"><path id="primary" d="M54.463 0c-.749 0-1.354.536-1.354 1.2v19.523H10.892V1.2c0-.664-.605-1.2-1.353-1.2H1.353C.605 0 0 .536 0 1.2v24.553c0 3.655 3.355 6.628 7.475 6.628h49.05c4.122 0 7.475-2.973 7.475-6.628V1.2c.001-.664-.603-1.2-1.352-1.2h-8.185z" transform="translate(1742 -652.381)" fill=""/><path id="accent" d="M20.125 12.002V2l10.062 10.002H20.124zM2.013 39.47A4 4 0 0 1 0 36.007V4C0 1.796 1.805 0 4.025 0H22.97l9.23 9.174v26.833a3.96 3.96 0 0 1-.668 2.202c-.269-.775-1.41-1.378-2.59-1.378l-5.718.002.001-11.88c0-2.733-3.1-5.95-6.306-5.95-3.838 0-6.573 3.216-6.573 5.949l-.001 11.88h-5.45c-1.372 0-2.855 1.41-2.882 2.638z" transform="translate(1757.7 -684)" fill="currentColor"/><path id="accent" d="M19.896 18.706c.962-.954.748-1.627-.595-1.627h-5.387V3.727C13.914 1.67 12.272 0 10.244 0 8.219 0 6.577 1.669 6.577 3.727V17.08h-5.39c-1.341-.001-1.553.674-.593 1.628l9.65 8.369 9.653-8.371z" transform="translate(1764.2 -662.072)" fill="currentColor"/></g></symbol><symbol class="axsprite-icon" viewBox="0 0 64 64" id="downloadpdf"><title>downloadpdf</title><path d="M1822-684h64v64h-64v-64z" fill="#FFF"/><g transform="translate(-1822 684)" fill-rule="evenodd"><path id="primary" d="M54.463 0c-.749 0-1.354.536-1.354 1.2v19.523H10.892V1.2c0-.664-.605-1.2-1.353-1.2H1.353C.605 0 0 .536 0 1.2v24.553c0 3.655 3.355 6.628 7.475 6.628h49.05c4.122 0 7.475-2.973 7.475-6.628V1.2c.001-.664-.603-1.2-1.352-1.2h-8.185z" transform="translate(1822 -652.381)" fill=""/><path id="accent" d="M27.663 15.37c0 1.88-1.048 2.861-2.816 2.85-.278 0-.563 0-.75-.033v-5.313c.197-.042.495-.076.925-.076 1.703 0 2.657.948 2.642 2.572zm-8.979-2.58c-.373 0-.639.033-.783.064v2.484c.177.054.385.066.664.066 1.014 0 1.635-.504 1.635-1.363-.002-.825-.574-1.25-1.516-1.25zm18.322-3.08v11.607H12.959V9.71h24.047zm-15.457 4.275c0-.693-.291-1.275-.732-1.638-.475-.395-1.191-.605-2.187-.605-.907 0-1.582.066-2.08.156v7.306h1.35v-2.801c.186.045.409.055.663.055.963 0 1.803-.263 2.356-.803.408-.396.632-.965.63-1.67zm7.554 1.34c0-1.252-.44-2.144-1.173-2.726-.685-.572-1.636-.857-3.03-.857-.802 0-1.556.066-2.167.156v7.288c.453.054 1.053.097 1.836.097 1.45 0 2.632-.34 3.374-1.012.707-.635 1.161-1.615 1.16-2.946zm2.55-.371v-2.045h2.95V11.8h-4.31v7.407h1.36v-3.153h2.742v-1.1h-2.742zm-8.377 23.053v-5.148h4.748V22.598h4.918V35.67c0 .412-.177.8-.484 1.076l-2.699 2.4c-.423-.653-1.09-1.14-1.822-1.14h-4.662zm-18.358.006V4.89h23.105l.001 2.11h4.918l-.002-5.555C32.94.651 32.29 0 31.488 0H1.452C.647 0 0 .65 0 1.446v41.117c0 .8.647 1.445 1.452 1.445H5.09l-1.065-1c-1.187-1.2-.713-4.833.893-4.995z" transform="translate(1837.7 -684)" fill="currentColor"/><path id="accent" d="M19.542 17.965c.944-.916.734-1.562-.585-1.562h-5.29V3.58c0-1.977-1.614-3.58-3.605-3.58C8.072 0 6.46 1.603 6.46 3.58v12.824H1.165c-1.318-.001-1.526.647-.582 1.563l9.478 8.038 9.481-8.04z" transform="translate(1843.74 -659.996)" fill="currentColor"/></g></symbol><symbol class="aysprite-icon" viewBox="0 0 64 64" id="earth"><title>earth</title><path d="M1348-526h64v64h-64v-64z" fill="#FFF"/><g transform="translate(-1348 526)"><path id="Shape" fill-rule="evenodd" d="M31.5 0C14.13 0 0 14.13 0 31.499c0 7.121 2.32 13.84 6.706 19.43C12.724 58.599 21.76 63 31.5 63c9.739 0 18.777-4.4 24.796-12.072C60.682 45.338 63 38.618 63 31.498 62.999 14.13 48.868 0 31.5 0zm12.085 29.651a43.112 43.112 0 0 0-1.273-8.607 45.549 45.549 0 0 0 9.97-3.695 24.99 24.99 0 0 1 4.28 12.302H43.585zM31.15 56.646l.134.004a48.581 48.581 0 0 0 6.043-11.459 42.294 42.294 0 0 0-5.826-.408c-2.324 0-4.505.2-6.549.521 1.873 5.366 4.44 9.234 6.068 11.338.043 0 .087.002.13.004zm.35-15.67c-2.729 0-5.267.26-7.641.662a41.702 41.702 0 0 1-1.193-8.181h17.121a39.303 39.303 0 0 1-1.3 8.055 46.1 46.1 0 0 0-6.988-.535zM10.717 17.35a24.99 24.99 0 0 0-4.28 12.302v.002h12.436c.124-3.17.549-6.098 1.182-8.77a45.623 45.623 0 0 1-9.338-3.534zM22.665 29.65a41.527 41.527 0 0 1 1.125-7.968 45.97 45.97 0 0 0 14.78.1 39.197 39.197 0 0 1 1.222 7.868H22.665zM37.439 18.1a48.24 48.24 0 0 0-6.146-11.746c-.044 0-.088.004-.131.007h-.004a2.366 2.366 0 0 1-.138.007c-1.655 2.15-4.281 6.127-6.162 11.63 2.076.33 4.289.526 6.64.526 2.09 0 4.068-.158 5.94-.424zm12.385-3.78a41.633 41.633 0 0 1-8.579 3.064A51.094 51.094 0 0 0 36.19 6.798c5.333 1.011 10.062 3.713 13.635 7.521zM21.08 17.216a44.855 44.855 0 0 1 4.833-10.226 25.125 25.125 0 0 0-12.738 7.329 41.676 41.676 0 0 0 7.905 2.897zM6.424 33.457h12.452a45.8 45.8 0 0 0 1.256 8.975 45.78 45.78 0 0 0-9.248 3.455 24.795 24.795 0 0 1-4.46-12.43zm14.752 12.634a42.317 42.317 0 0 0-7.83 2.814 24.936 24.936 0 0 0 12.584 7.132 44.767 44.767 0 0 1-4.754-9.946zM36.18 56.216a51.167 51.167 0 0 0 4.969-10.314 41.747 41.747 0 0 1 8.503 3.006 24.954 24.954 0 0 1-13.472 7.308zm6.059-13.968a45.633 45.633 0 0 1 9.881 3.631 24.802 24.802 0 0 0 4.455-12.421H43.58a43.206 43.206 0 0 1-1.341 8.79z" transform="translate(1349 -526)"/></g></symbol><symbol class="azsprite-icon" viewBox="0 0 64 64" id="email"><title>email</title><path d="M1190-684h64v64h-64v-64z" fill="#FFF"/><g transform="translate(-1190 684)" fill-rule="evenodd"><path id="primary" d="M28.688 18.634L57.376.829C56.458.317 55.414 0 54.288 0h-51.2C1.962 0 .918.317 0 .829l28.688 17.805z" transform="translate(1193.31 -671.999)" fill=""/><path id="accent" d="M33.686 18.803a3.203 3.203 0 0 1-3.376 0L.01 0C.01.029 0 .058 0 .083v28.8c0 3.53 2.87 6.4 6.4 6.4h51.2c3.53 0 6.4-2.87 6.4-6.4V.083c0-.025-.01-.054-.01-.083L33.686 18.803z" transform="translate(1190 -665.684)" fill="currentColor"/></g></symbol><symbol class="basprite-icon" viewBox="0 0 64 64" id="error"><title>error</title><path d="M1032-448h64v64h-64v-64z" fill="#FFF"/><g transform="translate(-1032 448)"><path id="primary" fill-rule="evenodd" d="M17.621 56H46.38a3.24 3.24 0 0 0 2.806-1.613l14.38-24.772c.58-1 .58-2.23 0-3.228L49.185 1.613A3.24 3.24 0 0 0 46.379 0H17.62a3.246 3.246 0 0 0-2.808 1.613L.434 26.387a3.215 3.215 0 0 0 0 3.228l14.38 24.772A3.246 3.246 0 0 0 17.62 56zm26.884-6.45H19.493L6.984 28l12.51-21.55h25.01L57.015 28l-12.51 21.55z" transform="translate(1032 -444)" fill=""/><path id="accent" d="M2.408 25.048L26.25 2.298 23.842 0 0 22.75l2.408 2.298z" transform="translate(1050.51 -427.524)" fill="currentColor"/><path id="accent" d="M0 2.298l23.842 22.75 2.408-2.298L2.408 0 0 2.298z" transform="translate(1050.51 -427.524)" fill="currentColor"/></g></symbol><symbol class="bbsprite-icon" viewBox="0 0 64 64" id="externallink"><title>externallink</title><path d="M1900-524h64v64h-64v-64z" fill="#FFF"/><g transform="translate(-1900 524)" fill-rule="evenodd"><path id="accent" d="M21.554 0v6.903h12.374L0 40.83l4.884 4.883L38.81 11.787V24.16h6.903V0h-24.16z" transform="translate(1918.29 -524)" fill="currentColor"/><path id="primary" d="M56.889 56.889H7.11V7.11H32V0H7.111A7.11 7.11 0 0 0 0 7.111V56.89A7.11 7.11 0 0 0 7.111 64H56.89A7.11 7.11 0 0 0 64 56.889V32h-7.111v24.889z" transform="translate(1900 -524)" fill=""/></g></symbol><symbol class="bcsprite-icon" viewBox="0 0 64 64" id="facebook"><title>facebook</title><path d="M1348-764h64v64h-64v-64z" fill="#FFF"/><g transform="translate(-1348 764)"><path id="primary" fill-rule="evenodd" d="M6.606 64V31.998H0v-11.03h6.606v-6.62C6.606 5.35 10.336 0 20.934 0h8.823v11.03h-5.515c-4.126 0-4.399 1.541-4.399 4.418l-.015 5.52h9.991L28.65 31.996h-8.822V64H6.606z" transform="translate(1366 -764)" fill=""/></g></symbol><symbol class="bdsprite-icon" viewBox="0 0 64 64" id="fax"><title>fax</title><path d="M1428-686h64v64h-64v-64z" fill="#FFF"/><g transform="translate(-1428 686)" fill-rule="evenodd"><path id="primary" d="M56 0v3.778H8V0C3.582 0 0 3.383 0 7.556v22.666C0 32.31 1.79 34 4 34h56c2.211 0 4-1.69 4-3.778V7.556C64 3.383 60.418 0 56 0zm-8 30.222H16c-2.211 0-4-1.69-4-3.777v-5.117h40v5.117c0 2.088-1.789 3.777-4 3.777z" transform="translate(1428 -656)" fill=""/><path id="accent" d="M4.466 8.069v21.038H0V7.015C.692 3.053 5.02 0 10.257 0h21.664c2.492 0 4.532 1.6 4.532 3.557v25.55h-4.466V3.587l-17.34 4.477c0-2.377-1.852-4.466-4.741-4.466-2.89 0-5.44 2.067-5.44 4.47zm4.075 7.088h19.871V11.87H8.541v3.286zm0 6.193h19.871v-3.285H8.541v3.285zm19.871 6.194H8.541v-3.285h19.871v3.285z" transform="translate(1442 -684.978)" fill="currentColor"/></g></symbol><symbol class="besprite-icon" viewBox="0 0 64 64" id="flask"><title>flask</title><path d="M1820-604h64v64h-64v-64z" fill="#FFF"/><g transform="translate(-1820 604)"><path id="primary" fill-rule="evenodd" d="M35.063 21.37L52.21 52.896C56.36 59.03 53.647 64 46.147 64H8.118c-7.5 0-10.31-5.032-6.275-11.24l15.782-31.39V5.362h-1.552a1.345 1.345 0 0 1-1.358-1.333V1.333c0-.736.607-1.333 1.358-1.333H36.76c.75 0 1.358.597 1.358 1.333v2.695c0 .737-.607 1.333-1.358 1.333h-1.697V21.37zm-12.005 1.245l-.56 1.116-6.87 13.661h21.99l-7.348-13.51-.64-1.177V5.361h-6.572v17.254z" transform="translate(1824 -604)" fill=""/></g></symbol><symbol class="bfsprite-icon" viewBox="0 0 64 64" id="flickr"><title>flickr</title><path d="M1586-764h64v64h-64v-64z" fill="#FFF"/><g transform="translate(-1586 764)"><path id="primary" fill-rule="evenodd" d="M27.826 13.913c0 7.684-6.229 13.913-13.913 13.913S0 21.597 0 13.913 6.229 0 13.913 0s13.913 6.229 13.913 13.913zM50.086 0c-7.683 0-13.912 6.229-13.912 13.913s6.229 13.913 13.913 13.913S64 21.597 64 13.913 57.771 0 50.087 0zm11.131 13.913c0 6.147-4.983 11.13-11.13 11.13-6.147 0-11.13-4.983-11.13-11.13 0-6.147 4.983-11.13 11.13-11.13 6.147 0 11.13 4.983 11.13 11.13z" transform="translate(1586 -746)" fill=""/></g></symbol><symbol class="bgsprite-icon" viewBox="0 0 64 64" id="googlesearch"><title>googlesearch</title><path d="M1508-448h64v64h-64v-64z" fill="#FFF"/><g transform="translate(-1508 448)"><path id="primary" fill-rule="evenodd" d="M1.72 3.487c.949 0 1.721-.74 1.721-1.744C3.441.733 2.67 0 1.721 0S0 .733 0 1.743c0 1.004.773 1.744 1.72 1.744zm0-2.8c.52 0 .968.43.968 1.056 0 .62-.448 1.057-.967 1.057-.52 0-.968-.436-.968-1.057 0-.627.448-1.056.968-1.056z" transform="translate(1513.48 -417.072)" fill=""/><path id="primary" fill-rule="evenodd" d="M1.72 3.487c.949 0 1.721-.74 1.721-1.744C3.441.733 2.67 0 1.721 0S0 .733 0 1.743c0 1.004.773 1.744 1.72 1.744zm0-2.8c.52 0 .968.43.968 1.056 0 .62-.448 1.057-.967 1.057-.52 0-.968-.436-.968-1.057 0-.627.448-1.056.968-1.056z" transform="translate(1517.19 -417.072)" fill=""/><path id="primary" fill-rule="evenodd" d="M3.288 3.235V.105l-.715.001V.39h-.026C2.377.185 2.052 0 1.643 0 .786 0 0 .766 0 1.75c0 .977.786 1.736 1.643 1.736.41 0 .735-.185.904-.396h.026v.25c0 .668-.35 1.023-.916 1.023-.46 0-.747-.335-.864-.619l-.655.277c.188.463.689 1.028 1.52 1.028.883 0 1.63-.526 1.63-1.814zM1.711.687c.512 0 .915.449.915 1.063 0 .607-.403 1.05-.915 1.05-.52 0-.956-.443-.956-1.05 0-.614.436-1.063.956-1.063z" transform="translate(1520.9 -417.072)" fill=""/><path id="primary" fill-rule="evenodd" d="M.735 0v5.11H0V0h.735z" transform="translate(1524.64 -418.801)" fill=""/><path id="primary" fill-rule="evenodd" d="M3.131 2.714l-.584-.396c-.195.29-.461.483-.845.483-.383 0-.656-.179-.831-.529l2.293-.965-.078-.198C2.943.72 2.508 0 1.618 0 .734 0 0 .707 0 1.743c0 .978.728 1.744 1.702 1.744.786 0 1.24-.489 1.43-.773zm-.851-1.67L.747 1.69c-.02-.673.514-1.017.896-1.017.299 0 .553.152.637.37z" transform="translate(1525.69 -417.073)" fill=""/><path id="primary" fill-rule="evenodd" d="M2.701 3.218v-.74h2.453c.024.13.036.282.036.447 0 .555-.15 1.241-.63 1.73-.468.495-1.066.76-1.858.76A2.723 2.723 0 0 1 0 2.706 2.723 2.723 0 0 1 2.702 0c.812 0 1.39.324 1.825.746l-.513.522A1.84 1.84 0 0 0 2.7.74C1.63.74.791 1.618.791 2.707c0 1.09.838 1.968 1.91 1.968.696 0 1.091-.284 1.345-.542.206-.209.341-.508.395-.916l-1.74.001z" transform="translate(1508 -419)" fill=""/><path id="accent" fill-rule="evenodd" d="M2.08 2.3c-.1.404-.295.789-.799.789-.545 0-.918-.431-.918-1.389C.363.752.736.312 1.21.312c.49 0 .7.284.817.751l.336-.1C2.217.356 1.862 0 1.254 0 .464 0 0 .623 0 1.7c0 1.16.518 1.7 1.254 1.7.672 0 1.009-.421 1.154-1.035L2.08 2.3zm2.627 1.055V.972H4.38v1.782c-.15.16-.432.362-.677.362-.237 0-.386-.105-.386-.421V.972h-.328v1.732c0 .513.332.696.682.696.268 0 .513-.155.7-.366h.009v.32h.327zm1.458.045c-.368 0-.727-.16-.945-.453l.26-.197a.796.796 0 0 0 .676.366c.354 0 .509-.192.509-.394 0-.274-.288-.358-.6-.45-.376-.109-.787-.229-.772-.705.013-.412.327-.646.781-.641.31.004.65.174.809.417l-.227.201c-.182-.224-.355-.334-.609-.334-.277 0-.427.142-.427.353 0 .224.257.301.549.389.382.115.823.248.823.752 0 .463-.4.696-.827.696zM7.21.972v.284h.386v1.75c0 .303.15.394.505.394.19 0 .322-.018.381-.036v-.27a1.83 1.83 0 0 1-.29.022c-.191 0-.269-.055-.269-.165V1.256h.546V.972h-.546V.188h-.327v.784H7.21zm2.567 2.144c.39 0 .64-.339.64-.953 0-.614-.25-.953-.64-.953s-.64.339-.64.953c0 .614.25.953.64.953zm.968-.953c0-.687-.323-1.237-.968-1.237s-.968.55-.968 1.237.323 1.237.968 1.237.968-.55.968-1.237zm.868-.587v1.779h-.328V.972h.328v.316l.018-.019c.2-.224.458-.343.686-.343.304 0 .518.155.604.375.209-.224.473-.375.75-.375.313 0 .65.133.65.724v1.705h-.328V1.65c0-.321-.159-.44-.368-.44-.286 0-.475.186-.65.358l-.009.008v1.779h-.327V1.65c0-.321-.159-.44-.368-.44-.286 0-.475.186-.65.358l-.008.008zm6.832-.76C18.273.27 17.873 0 17.365 0c-.591 0-.987.376-.987.852 0 .55.512.743.997.924.435.163.848.318.848.717 0 .34-.24.596-.723.596-.481 0-.726-.321-.858-.67l-.332.12c.173.394.455.861 1.172.861.836 0 1.104-.49 1.104-.971 0-.582-.555-.79-1.056-.979-.415-.155-.792-.297-.788-.625.004-.33.232-.513.613-.513.423 0 .682.256.764.577l.326-.073zm1.622 2.3c.291 0 .518-.156.655-.403l.254.133c-.154.27-.372.554-.909.554-.527 0-1.026-.366-1.026-1.237 0-.77.381-1.237.963-1.237.49 0 .9.32.9 1.081v.22h-1.536c0 .523.309.89.7.89zm-.69-1.173c.027-.44.24-.733.636-.733.354 0 .563.293.563.733h-1.2zm2.903-.733c-.364 0-.54.21-.604.371l-.286-.151c.15-.275.44-.504.885-.504.4 0 .818.192.818.715v1.2c0 .261.023.39.055.514h-.336l-.037-.33c-.163.183-.427.375-.781.375-.364 0-.673-.22-.673-.655 0-.522.396-.784 1.445-.972v-.128c0-.316-.204-.435-.486-.435zm.486 1.512c-.19.22-.49.394-.727.394-.181 0-.39-.146-.39-.366 0-.33.367-.55 1.117-.683v.655zm1.281.633h-.327V.972h.327v.472h.01c.181-.326.377-.51.767-.51v.33c-.409.01-.622.28-.777.77v1.32zm2.88-1.783c-.15-.371-.376-.646-.863-.646-.59 0-.967.467-.967 1.237s.377 1.237.967 1.237c.468 0 .677-.201.914-.605l-.264-.119c-.181.34-.35.44-.65.44-.404 0-.64-.348-.64-.953s.236-.953.64-.953c.282 0 .468.183.56.472l.304-.11zm.991 1.783h-.327V.045h.327v1.247h.01c.185-.21.43-.366.699-.366.35 0 .681.183.681.696v1.733h-.327V1.63c0-.316-.15-.421-.386-.421-.245 0-.527.201-.677.362v1.783z" transform="translate(1532.11 -417.459)" fill="currentColor"/><path id="accent" d="M2.08 2.3l.02-.098-.093-.018-.023.092.097.024zm-.054-1.237l-.097.025.026.101.1-.03-.029-.096zm.336-.1l.03.095.09-.027L2.46.939l-.098.023zm.046 1.402l.097.023.024-.101-.102-.02-.02.098zM4.707.972h.1v-.1h-.1v.1zm0 2.383v.1h.1v-.1h-.1zM4.38.972v-.1h-.1v.1h.1zm0 1.782l.073.068.027-.028v-.04h-.1zM3.317.972h.1v-.1h-.1v.1zm-.328 0v-.1h-.1v.1h.1zm1.382 2.062v-.1h-.046l-.03.034.076.066zm.009 0h.1v-.1h-.1v.1zm0 .32h-.1v.1h.1v-.1zm.84-.407l-.06-.08-.08.06.06.08.08-.06zm.26-.197l.082-.057-.06-.087-.083.064.06.08zm.585-.477l.028-.096-.028.096zm-.772-.706l-.1-.003.1.003zm.781-.641l.002-.1-.002.1zm.809.417l.066.075.065-.058-.047-.072-.084.055zm-.227.201l-.078.063.066.082.078-.07-.066-.075zm-.487.408l.028-.096-.028.096zm1.041-.696h-.1v.1h.1v-.1zm0-.284v-.1h-.1v.1h.1zm.386.284h.1v-.1h-.1v.1zm.886 2.108l.03.095.07-.022v-.073h-.1zm0-.27h.1v-.118l-.115.019.015.098zm-.559-1.838v-.1h-.1v.1h.1zm.546 0v.1h.1v-.1h-.1zm0-.284h.1v-.1h-.1v.1zm-.546 0h-.1v.1h.1v-.1zm0-.784h.1v-.1h-.1v.1zm-.327 0v-.1h-.1v.1h.1zm0 .784v.1h.1v-.1h-.1zm4.017 2.383v.1h.1v-.1h-.1zm0-1.779l-.07-.07-.03.029v.041h.1zm-.328 1.779h-.1v.1h.1v-.1zm0-2.383v-.1h-.1v.1h.1zm.328 0h.1v-.1h-.1v.1zm0 .316h-.1v.243l.17-.173-.07-.07zm.018-.019l.07.07.004-.003-.074-.067zm1.29.032l-.093.037.058.148.108-.116-.073-.069zm1.4 2.054v.1h.1v-.1h-.1zm-.328 0h-.1v.1h.1v-.1zm-1.018-1.787l-.07-.072.07.072zm-.009.008l-.07-.07-.03.029v.041h.1zm0 1.779v.1h.1v-.1h-.1zm-.327 0h-.1v.1h.1v-.1zm-1.018-1.787l-.07-.072.07.072zm6.824-.752l.022.097.107-.024-.033-.103-.096.03zm-1.07.96l.035-.094-.035.094zm-.733.644l.093-.036-.034-.092-.093.034.034.094zm-.332.119l-.034-.094-.1.036.043.098.091-.04zm1.22-1.089l.035-.093-.035.093zm-.788-.625l-.1-.002.1.002zm1.377.064l-.097.025.024.094.094-.021-.021-.098zm2.603 1.824l.046-.089-.087-.045-.047.086.088.048zm.254.133l.087.05.052-.09-.093-.049-.046.089zm-.073-.619v.1h.1v-.1h-.1zm-1.535 0v-.1h-.1v.1h.1zm.009-.284l-.1-.006-.007.106h.107v-.1zm1.2 0v.1h.1v-.1h-.1zm1.099-.362l-.047.088.099.053.04-.104-.092-.037zm-.286-.151l-.088-.048-.049.089.09.047.047-.088zm1.758 1.925v.1h.129l-.032-.125-.097.025zm-.336 0l-.1.01.01.09h.09v-.1zm-.037-.33l.1-.011-.025-.223-.15.167.075.067zm-.009-1.252l.018.099.082-.015v-.084h-.1zm0 .95l.076.065.024-.029v-.037h-.1zm0-.656h.1v-.12l-.117.021.017.099zm.954 1.288h-.1v.1h.1v-.1zm.327 0v.1h.1v-.1h-.1zM23.72.972v-.1h-.1v.1h.1zm.327 0h.1v-.1h-.1v.1zm0 .472h-.1v.1h.1v-.1zm.01 0v.1h.058l.029-.052-.088-.048zm.767-.51h.1v-.1h-.1v.1zm0 .33l.002.1.098-.001v-.098h-.1zm-.777.77l-.095-.03-.005.015v.016h.1zm2.88-.462l.035.094.097-.035-.039-.097-.092.038zm.05 1.223l.087.051.056-.096-.101-.046-.041.091zm-.263-.119l.041-.09-.085-.04-.044.083.088.047zm-.09-.994l-.096.03.031.1.098-.036-.034-.094zm.967 1.673h-.1v.1h.1v-.1zm.327 0v.1h.1v-.1h-.1zm-.327-3.31v-.1h-.1v.1h.1zm.327 0h.1v-.1h-.1v.1zm0 1.247h-.1v.1h.1v-.1zm.01 0v.1h.044l.03-.033-.075-.067zm1.38 2.063v.1h.1v-.1h-.1zm-.327 0h-.1v.1h.1v-.1zm-1.063-1.783l-.073-.068-.027.028v.04h.1zM1.281 3.189c.282 0 .485-.11.628-.278.134-.161.217-.38.269-.586l-.194-.049c-.049.197-.113.373-.228.505a.584.584 0 0 1-.475.208v.2zM.263 1.7c0 .49.095.86.273 1.111a.874.874 0 0 0 .745.378v-.2A.675.675 0 0 1 .7 2.696C.555 2.492.463 2.168.463 1.7h-.2zM1.21.212a.802.802 0 0 0-.683.383C.358.845.263 1.215.263 1.7h.2c0-.463.092-.788.229-.994a.602.602 0 0 1 .517-.294v-.2zm.914.827c-.06-.24-.148-.45-.295-.597-.15-.152-.353-.23-.62-.23v.2c.225 0 .372.064.478.17.11.111.186.279.243.506l.194-.05zm.21-.172l-.335.1.057.192.336-.1-.057-.192zM1.254.1c.284 0 .5.083.662.229.163.147.28.367.35.657L2.46.939C2.384.624 2.25.363 2.049.18c-.204-.184-.47-.28-.795-.28v.2zM.1 1.7C.1 1.174.213.773.411.506.606.242.888.1 1.254.1v-.2C.829-.1.484.07.25.387.018.7-.1 1.149-.1 1.7h.2zm1.154 1.6c-.341 0-.624-.124-.825-.377C.227 2.667.1 2.267.1 1.7h-.2c0 .593.132 1.043.373 1.347.242.307.586.453.98.453l.001-.2zm1.057-.958c-.07.296-.184.535-.352.7-.166.161-.392.258-.705.258v.2c.36 0 .637-.113.844-.316.205-.2.332-.479.407-.796l-.194-.046zm-.25.057l.328.064.038-.196-.327-.065-.038.197zM4.608.972v2.383h.2V.972h-.2zm-.227.1h.327v-.2H4.38v.2zm.1 1.682V.972h-.2v1.782h.2zm-.777.462c.148 0 .297-.06.425-.134.126-.075.246-.175.325-.26l-.146-.136a1.26 1.26 0 0 1-.28.223.674.674 0 0 1-.324.107v.2zm-.486-.521c0 .172.04.308.134.4.093.092.22.121.352.121v-.2c-.106 0-.171-.023-.212-.063-.04-.04-.074-.114-.074-.258h-.2zm0-1.723v1.723h.2V.972h-.2zm-.228.1h.328v-.2h-.328v.2zm.1 1.632V.972h-.2v1.732h.2zm.582.596a.612.612 0 0 1-.406-.131c-.101-.087-.176-.232-.176-.465h-.2c0 .28.092.483.244.616.15.13.347.18.538.18v-.2zm.625-.332c-.176.199-.396.332-.625.332v.2c.308 0 .578-.178.774-.4l-.15-.132zm.084-.034h-.01v.2h.01v-.2zm.1.42v-.32h-.2v.32h.2zm.227-.1H4.38v.2h.327v-.2zm.433-.248c.24.322.63.494 1.025.494v-.2c-.34 0-.668-.148-.865-.413l-.16.12zm.279-.336l-.26.197.122.16.259-.198-.121-.159zm.737.346a.696.696 0 0 1-.594-.323l-.165.113c.17.248.427.41.759.41v-.2zm.409-.294a.258.258 0 0 1-.088.198c-.06.053-.162.096-.321.096v.2c.195 0 .348-.053.454-.146a.458.458 0 0 0 .155-.348h-.2zm-.528-.353c.156.045.294.085.394.145.09.055.134.116.134.208h.2c0-.183-.1-.3-.231-.379a1.991 1.991 0 0 0-.44-.166l-.057.192zm-.844-.805a.634.634 0 0 0 .282.575c.164.115.378.176.562.23l.056-.192c-.192-.056-.371-.11-.503-.202a.435.435 0 0 1-.197-.405l-.2-.006zm.882-.738c-.243-.003-.46.059-.62.186a.712.712 0 0 0-.262.552l.2.007a.513.513 0 0 1 .188-.403c.114-.091.282-.144.492-.142l.002-.2zm.892.462c-.18-.275-.554-.457-.891-.462l-.003.2c.28.004.588.16.726.372l.168-.11zm-.245.331l.227-.201-.132-.15-.228.202.133.15zm-.675-.31c.214 0 .361.088.531.298l.156-.126c-.194-.239-.393-.371-.687-.371v.2zm-.327.254c0-.08.028-.14.075-.18.049-.042.13-.073.252-.073v-.2a.576.576 0 0 0-.383.121.424.424 0 0 0-.144.332h.2zm.477.293c-.145-.044-.272-.081-.362-.134-.084-.049-.115-.097-.115-.16h-.2c0 .162.097.265.215.333.11.064.259.109.405.153l.057-.192zm.895.848a.695.695 0 0 0-.311-.604c-.172-.119-.393-.186-.584-.244l-.057.192c.19.057.382.113.526.216a.496.496 0 0 1 .226.44h.2zm-.927.796c.23 0 .46-.062.634-.195a.73.73 0 0 0 .293-.601h-.2a.53.53 0 0 1-.214.442.855.855 0 0 1-.513.154v.2zM7.31 1.256V.972h-.2v.284h.2zm.286-.1H7.21v.2h.386v-.2zm.1 1.85v-1.75h-.2v1.75h.2zm.405.294c-.175 0-.272-.024-.326-.064-.045-.033-.079-.094-.079-.23h-.2c0 .167.042.303.16.391.11.081.265.103.445.103v-.2zm.352-.032A1.42 1.42 0 0 1 8.1 3.3v.2c.194 0 .337-.018.41-.04l-.058-.192zm-.07-.175v.27h.2v-.27h-.2zm-.192.123c.114 0 .218-.01.307-.024l-.031-.197c-.084.013-.171.021-.276.021v.2zm-.368-.265c0 .083.032.16.11.208a.484.484 0 0 0 .258.057v-.2c-.09 0-.133-.013-.151-.025-.01-.006-.017-.012-.017-.04h-.2zm0-1.695V2.95h.2V1.256h-.2zm.646-.1h-.546v.2h.546v-.2zm-.1-.184v.284h.2V.972h-.2zm-.446.1h.546v-.2h-.546v.2zm-.1-.884v.784h.2V.188h-.2zm-.227.1h.327v-.2h-.327v.2zm.1.684V.188h-.2v.784h.2zm-.486.1h.386v-.2H7.21v.2zm3.108 1.091c0 .295-.06.511-.156.65a.444.444 0 0 1-.385.203v.2c.229 0 .42-.101.55-.29.126-.184.19-.444.19-.763h-.2zm-.541-.853c.162 0 .292.068.385.203.095.139.156.355.156.65h.2c0-.319-.065-.58-.192-.764a.644.644 0 0 0-.549-.29v.2zm-.54.853c0-.295.06-.511.156-.65a.444.444 0 0 1 .384-.203v-.2a.644.644 0 0 0-.55.29c-.126.184-.19.444-.19.763h.2zm.54.853a.444.444 0 0 1-.384-.203c-.096-.139-.157-.355-.157-.65h-.2c0 .319.065.58.192.764.13.188.32.29.549.29v-.2zm0-1.99c.29 0 .502.121.645.32.145.2.223.487.223.817h.2c0-.358-.084-.69-.261-.935a.955.955 0 0 0-.807-.402v.2zm-.868 1.137c0-.33.078-.616.223-.818a.756.756 0 0 1 .645-.32v-.2a.955.955 0 0 0-.807.403c-.177.245-.26.577-.26.935h.2zM9.777 3.3a.756.756 0 0 1-.645-.32c-.145-.2-.223-.487-.223-.817h-.2c0 .358.084.69.261.935.18.25.452.402.807.402v-.2zm.868-1.137c0 .33-.078.617-.223.818a.756.756 0 0 1-.645.32v.2a.955.955 0 0 0 .807-.403c.177-.245.26-.577.26-.935h-.2zm1.068 1.192V1.576h-.2v1.779h.2zm-.428.1h.328v-.2h-.328v.2zm-.1-2.483v2.383h.2V.972h-.2zm.428-.1h-.328v.2h.328v-.2zm.1.416V.972h-.2v.316h.2zm-.153-.089l-.019.018.143.141.018-.018-.142-.141zm.757-.373c-.26 0-.546.135-.761.377l.15.133c.184-.207.417-.31.61-.31v-.2zm.697.439c-.103-.262-.355-.44-.697-.44v.2c.267 0 .44.135.51.313l.187-.073zm.657-.44c-.314 0-.603.171-.823.408l.146.137c.198-.213.437-.344.677-.344v-.2zm.75.825c0-.315-.09-.528-.242-.66a.76.76 0 0 0-.508-.164v.2c.145 0 .279.03.376.116.095.082.173.231.173.508h.2zm0 1.705V1.65h-.2v1.705h.2zm-.428.1h.327v-.2h-.327v.2zm-.1-1.805v1.705h.2V1.65h-.2zm-.268-.34c.086 0 .148.024.19.068.042.045.078.127.078.272h.2c0-.176-.043-.314-.133-.41a.446.446 0 0 0-.335-.13v.2zm-.58.329c.18-.176.341-.33.58-.33v-.2c-.333 0-.55.22-.72.387l.14.143zm-.008.009l.008-.01-.14-.142-.009.01.14.142zm.03 1.707V1.576h-.2v1.779h.2zm-.428.1h.327v-.2h-.327v.2zm-.1-1.805v1.705h.2V1.65h-.2zm-.268-.34c.086 0 .148.024.19.068.042.045.078.127.078.272h.2c0-.176-.043-.314-.133-.41a.446.446 0 0 0-.335-.13v.2zm-.58.329c.18-.176.341-.33.58-.33v-.2c-.332 0-.55.22-.72.387l.14.143zm-.008.009l.009-.01-.14-.142-.01.01.14.142zM17.364.1c.465 0 .827.242.986.746l.19-.06C18.356.199 17.918-.1 17.365-.1v.2zm-.886.752c0-.41.34-.752.886-.752v-.2c-.634 0-1.086.41-1.086.952h.2zm.932.83c-.242-.09-.479-.178-.656-.31-.169-.125-.276-.283-.276-.52h-.2c0 .314.15.527.357.681.2.147.462.246.705.337l.07-.188zm.913.811c0-.243-.13-.408-.304-.53-.168-.115-.392-.199-.61-.28l-.07.187c.218.081.419.156.566.258.14.097.218.209.218.365h.2zm-.823.696c.259 0 .465-.07.609-.196a.65.65 0 0 0 .214-.5h-.2a.45.45 0 0 1-.147.35c-.097.086-.252.146-.476.146v.2zm-.952-.734c.07.181.176.369.325.504.157.14.362.23.627.23v-.2a.708.708 0 0 1-.493-.179 1.033 1.033 0 0 1-.272-.426l-.187.071zm-.204.178l.332-.12-.068-.187-.332.119.068.188zm1.138.667c-.334 0-.56-.107-.723-.256-.17-.154-.272-.352-.357-.545l-.183.08c.087.2.212.433.405.612.2.183.475.31.858.31v-.2zm1.004-.871a.857.857 0 0 1-.211.598c-.148.157-.395.273-.793.273v.2c.438 0 .744-.129.939-.337.194-.206.265-.476.265-.734h-.2zm-.991-.885c.25.094.502.187.692.328.182.135.3.305.3.557h.2c0-.33-.161-.555-.382-.718-.213-.155-.49-.26-.74-.354l-.07.187zm-.853-.72c-.003.211.122.356.282.462.155.101.364.18.57.258l.071-.187c-.207-.078-.395-.148-.531-.238-.131-.087-.194-.177-.192-.293l-.2-.002zm.713-.612c-.205 0-.383.049-.512.156a.58.58 0 0 0-.201.455l.2.003c.002-.14.05-.24.129-.304.081-.068.208-.11.384-.11v-.2zm.86.652c-.092-.36-.388-.652-.86-.652v.2c.373 0 .595.221.667.502l.193-.05zm.209-.146l-.327.073.043.196.327-.074-.043-.195zm2.21 1.947c-.121.22-.317.351-.567.351v.2c.332 0 .59-.18.742-.455l-.175-.096zm.388.092l-.254-.133-.093.178.255.132.092-.177zm-.955.743c.288 0 .498-.076.658-.195.153-.116.259-.271.338-.41l-.174-.099a1.045 1.045 0 0 1-.284.348c-.122.091-.289.156-.538.156v.2zm-1.126-1.337c0 .455.13.79.343 1.014.212.223.497.323.783.323v-.2a.864.864 0 0 1-.638-.26c-.17-.178-.288-.46-.288-.877h-.2zM20.004.826a.96.96 0 0 0-.778.368c-.186.235-.285.569-.285.969h.2c0-.37.091-.655.242-.845a.76.76 0 0 1 .62-.292v-.2zm1 1.181c0-.398-.108-.695-.293-.894a.942.942 0 0 0-.707-.287v.2c.223 0 .42.072.56.223.142.152.24.395.24.758h.2zm0 .22v-.22h-.2v.22h.2zm-1.636.1h1.535v-.2h-1.535v.2zm.7.69c-.317 0-.6-.301-.6-.79h-.2c0 .556.334.99.8.99v-.2zm-.055-1.907a.665.665 0 0 0-.533.238c-.124.15-.189.356-.203.589l.2.012c.012-.207.069-.367.157-.474a.466.466 0 0 1 .379-.165v-.2zm.663.833c0-.234-.055-.441-.168-.592a.598.598 0 0 0-.495-.241v.2c.146 0 .257.059.335.162.08.106.128.265.128.471h.2zm-1.3.1h1.2v-.2h-1.2v.2zm2.393-.425c.05-.13.195-.308.511-.308v-.2c-.411 0-.621.242-.697.434l.186.074zm-.426-.1l.286.151.093-.176-.286-.152-.093.177zm.932-.692c-.485 0-.807.252-.973.556l.175.096c.134-.246.393-.452.798-.452v-.2zm.918.815c0-.292-.119-.501-.3-.634a1.05 1.05 0 0 0-.618-.181v.2c.186 0 .368.045.5.142.128.094.218.242.218.473h.2zm0 1.2v-1.2h-.2v1.2h.2zm.052.489a1.728 1.728 0 0 1-.052-.489h-.2a2 2 0 0 0 .058.538l.194-.05zm-.433.125h.336v-.2h-.336v.2zm-.136-.42l.036.33.199-.021-.036-.33-.2.022zm-.682.465c.393 0 .681-.213.856-.409l-.15-.133c-.152.171-.39.342-.706.342v.2zm-.773-.755c0 .243.087.435.234.566.144.128.338.19.539.19v-.2a.603.603 0 0 1-.406-.14.533.533 0 0 1-.167-.416h-.2zm1.527-1.07c-.526.094-.905.21-1.154.376a.78.78 0 0 0-.373.694h.2c0-.228.083-.393.285-.528.212-.142.555-.251 1.078-.345l-.035-.197zm-.082-.03v.128h.2v-.128h-.2zm-.386-.335c.13 0 .224.027.286.077.058.046.1.123.1.258h.2c0-.181-.06-.322-.175-.414a.648.648 0 0 0-.411-.121v.2zm-.24 1.906c.275 0 .6-.196.802-.428l-.151-.131c-.18.207-.455.36-.652.36v.2zm-.491-.466c0 .289.268.466.49.466v-.2c-.142 0-.29-.116-.29-.266h-.2zm1.2-.782c-.38.067-.673.158-.875.28-.204.125-.325.29-.325.502h.2c0-.12.063-.229.23-.33.169-.103.434-.189.805-.255l-.035-.197zm.117.754v-.655h-.2v.655h.2zm.854.733h.327v-.2h-.327v.2zm-.1-2.483v2.383h.2V.972h-.2zm.427-.1h-.327v.2h.327v-.2zm.1.572V.972h-.2v.472h.2zm-.09-.1h-.01v.2h.01v-.2zm.767-.51c-.212 0-.38.051-.52.152-.133.096-.24.24-.335.409l.175.097c.087-.157.168-.267.276-.344a.66.66 0 0 1 .404-.113v-.2zm.1.43v-.33h-.2v.33h.2zm-.781.8c.075-.239.162-.412.27-.526a.553.553 0 0 1 .413-.173l-.004-.2a.752.752 0 0 0-.554.235c-.14.147-.237.354-.316.605l.19.06zm.004 1.29v-1.32h-.2v1.32h.2zm1.918-2.328c.222 0 .377.062.493.16.124.103.205.244.277.423l.185-.075a1.296 1.296 0 0 0-.333-.5.926.926 0 0 0-.623-.208v.2zm-.868 1.137c0-.37.09-.655.24-.845a.765.765 0 0 1 .627-.292v-.2a.964.964 0 0 0-.783.368c-.186.235-.284.569-.284.969h.2zm.867 1.137a.765.765 0 0 1-.626-.292c-.15-.19-.241-.475-.241-.845h-.2c0 .4.098.734.284.97.188.238.46.367.784.367v-.2zm.827-.555c-.116.199-.219.335-.341.423-.12.086-.267.132-.486.132v.2c.25 0 .441-.054.602-.17.158-.113.278-.28.398-.484l-.173-.101zm-.218.022l.264.12.082-.183-.264-.119-.082.182zm-.608.45c.16-.001.305-.034.424-.11.122-.081.22-.208.313-.384l-.176-.094c-.088.163-.165.257-.248.311-.085.059-.174.077-.314.076v.2zm-.741-1.054c0 .313.06.574.186.76.128.19.319.293.554.293v-.2a.443.443 0 0 1-.389-.205c-.094-.14-.151-.356-.151-.648h-.2zm.74-1.053a.643.643 0 0 0-.554.294c-.125.185-.186.446-.186.759h.2c0-.292.057-.508.151-.648a.443.443 0 0 1 .39-.205v-.2zm.655.542a.892.892 0 0 0-.237-.39.658.658 0 0 0-.418-.152v.2a.381.381 0 0 1 .285.103.61.61 0 0 1 .179.299l.19-.06zm.175-.174l-.305.11.068.188.305-.11-.068-.188zm.697 1.977h.327v-.2h-.327v.2zm-.1-3.41v3.31h.2V.045h-.2zm.427-.1h-.327v.2h.327v-.2zm.1 1.347V.046h-.2v1.246h.2zm-.09-.1h-.01v.2h.01v-.2zm.699-.366c-.308 0-.578.178-.775.4l.15.133c.176-.2.396-.333.625-.333v-.2zm.781.796c0-.28-.09-.483-.244-.616a.81.81 0 0 0-.537-.18v.2c.159 0 .303.041.406.131.1.087.175.232.175.465h.2zm0 1.733V1.622h-.2v1.733h.2zm-.427.1h.327v-.2h-.327v.2zm-.1-1.824v1.724h.2V1.63h-.2zm-.286-.321c.105 0 .171.024.212.063.04.04.074.114.074.258h.2c0-.172-.04-.308-.134-.4a.484.484 0 0 0-.352-.121v.2zm-.604.33c.07-.076.168-.157.28-.223a.674.674 0 0 1 .324-.107v-.2a.868.868 0 0 0-.425.134 1.551 1.551 0 0 0-.325.26l.146.136zm.027 1.715V1.572h-.2v1.783h.2z" transform="translate(1532.11 -417.459)" fill="currentColor"/><path id="accent" fill-rule="evenodd" d="M4.486 4.082l1.683 1.694-.444.446L4.04 4.527c-.437.339-.968.525-1.53.525-.67 0-1.3-.263-1.774-.74A2.517 2.517 0 0 1 0 2.526C0 1.85.261 1.216.736.74A2.486 2.486 0 0 1 2.51 0c.67 0 1.3.263 1.775.74.474.477.735 1.111.735 1.786 0 .572-.19 1.114-.535 1.556zM.628 2.526c0 .506.195.982.551 1.34.356.357.829.554 1.332.554a1.886 1.886 0 0 0 1.883-1.894c0-.506-.196-.982-.552-1.34A1.862 1.862 0 0 0 2.51.632c-.503 0-.976.197-1.332.556a1.886 1.886 0 0 0-.551 1.339z" transform="translate(1565.83 -419)" fill="currentColor"/></g></symbol><symbol class="bhsprite-icon" viewBox="0 0 64 64" id="greenbuilding"><title>greenbuilding</title><path d="M1664-524h64v64h-64v-64z" fill="#FFF"/><g transform="translate(-1664 524)" fill-rule="evenodd"><path id="accent" d="M8.247 18.721L1.6 21.203 0 16.92l6.64-2.477C5.462 7.689 10.025 0 19.256 0c6.741 0 16.103 2.2 22.3 3.76-3.594 5.605-11.64 17.71-18.32 20.206-5.693 2.128-11.922-.185-14.988-5.245zm25.91-12.044c-3.86-.844-10.395-2.106-14.902-2.106-6.02 0-8.42 4.508-8.192 8.223l11.178-4.17 1.597 4.283-11.154 4.163c2.063 2.596 5.72 3.818 8.951 2.615 3.748-1.402 9.277-8.4 12.523-13.008z" transform="translate(1685.33 -524)" fill="currentColor"/><path id="primary" d="M12.8 18.75h48c1.766 0 3.2 1.4 3.2 3.125v25C64 48.603 62.566 50 60.8 50H3.2C1.434 50 0 48.603 0 46.875V3.125C0 1.94.685.859 1.77.33a3.26 3.26 0 0 1 3.35.294l6.4 4.687a3.103 3.103 0 0 1 1.28 2.5V18.75zm3.2 12.5h9.6V25H16v6.25zm16 0h9.6V25H32v6.25zm25.6 0H48V25h9.6v6.25zm0 12.5H48V37.5h9.6v6.25zm-16 0H32V37.5h9.6v6.25zm-16 0H16V37.5h9.6v6.25z" transform="translate(1664 -509.81)" fill=""/></g></symbol><symbol class="bisprite-icon" viewBox="0 0 64 64" id="greencar"><title>greencar</title><path d="M1586-526h64v64h-64v-64z" fill="#FFF"/><g transform="translate(-1586 526)" fill-rule="evenodd"><path id="accent" d="M8.247 18.721L1.6 21.203 0 16.92l6.64-2.477C5.462 7.689 10.025 0 19.256 0c7.299 0 18.737 2.862 19.218 2.984l3.081.777-1.715 2.673c-.976 1.523-9.744 14.97-16.604 17.532-5.693 2.128-11.922-.185-14.988-5.245zm25.91-12.044c-3.86-.844-10.395-2.106-14.902-2.106-6.02 0-8.42 4.508-8.192 8.223l11.179-4.17 1.596 4.283-11.154 4.163c2.063 2.596 5.72 3.818 8.951 2.615 3.749-1.402 9.277-8.4 12.523-13.008z" transform="translate(1603.14 -526)" fill="currentColor"/><path id="primary" d="M37.733 0c1.155 0 2.21.652 2.724 1.685l7.985 15.958c.21.423.32.89.32 1.365v8.42a3.047 3.047 0 0 1-3.048 3.048h-3.047V32a4.573 4.573 0 0 1-4.572 4.571A4.573 4.573 0 0 1 33.524 32v-1.524H15.238V32a4.573 4.573 0 0 1-4.571 4.571A4.573 4.573 0 0 1 6.095 32v-1.524H3.048A3.047 3.047 0 0 1 0 27.43v-8.421c0-.475.11-.942.32-1.365L8.302 1.685A3.043 3.043 0 0 1 11.026 0h26.707zM12.19 6.095l-3.047 6.096h30.476l-3.048-6.096h-24.38zm21.334 18.286h9.143v-6.095h-9.143v6.095zm-18.286 0H6.095v-6.095h9.143v6.095z" transform="translate(1594 -498.571)" fill=""/></g></symbol><symbol class="bjsprite-icon" viewBox="0 0 64 64" id="home"><title>home</title><path d="M1586-686h64v64h-64v-64z" fill="#FFF"/><g transform="translate(-1586 686)" fill-rule="evenodd"><path id="accent" d="M32 0L0 27.429h64L32 0z" transform="translate(1586 -680)" fill="currentColor"/><path id="primary" d="M0 0v27.429h16.326V6.844h13.061V27.43h16.327V0H0z" transform="translate(1595.14 -652.571)" fill=""/></g></symbol><symbol class="bksprite-icon" viewBox="0 0 64 64" id="infogram"><title>infogram</title><path d="M1586-606h64v64h-64v-64z" fill="#FFF"/><g transform="translate(-1586 606)" fill-rule="evenodd"><path id="primary" d="M38.666 0L51.2 12.538l7.725-7.728H64v35.2c0 3.526-2.87 6.4-6.4 6.4H6.4c-3.53 0-6.4-2.874-6.4-6.4v-28.8h10.925L16 6.138 25.866 16l12.8-16zM22.4 40.01h6.4v-16h-6.4v16zm32.003 0h-6.4v-16h6.4v16zm-12.8 0h-6.4v-9.6h6.4v9.6zM16 40.01H9.6v-9.6H16v9.6z" transform="translate(1586 -588.41)" fill=""/><path id="accent" d="M57.6 0H6.4C2.87 0 0 2.87 0 6.4v16h8.275L16 14.675l9.334 9.335 12.8-16L51.2 21.075 56.275 16H64V6.4C64 2.87 61.13 0 57.6 0z" transform="translate(1586 -606)" fill="currentColor"/></g></symbol><symbol class="blsprite-icon" viewBox="0 0 64 64" id="instagram"><title>instagram</title><path d="M1664-764h64v64h-64v-64z" fill="#FFF"/><g transform="translate(-1664 764)"><path id="primary" fill-rule="evenodd" d="M6.396 64h51.208l.285-.046c.237-.038.475-.077.71-.128 2.613-.554 4.748-2.735 5.26-5.364.037-.192.067-.387.097-.582l.001-.006.043-.27V6.397a28.378 28.378 0 0 1-.025-.16l-.006-.039-.006-.039c-.03-.201-.062-.403-.1-.603C63.301 2.687 60.935.46 58.03.063a3.853 3.853 0 0 1-.237-.04h-.002L57.787.02A7.646 7.646 0 0 0 57.675 0H6.326l-.291.05-.015.002c-.208.034-.416.069-.62.115A6.902 6.902 0 0 0 .062 5.97c-.011.08-.026.161-.04.242l-.001.001v.002L0 6.328v51.348l.052.304.002.008c.037.222.074.444.124.665.627 2.772 2.994 4.921 5.81 5.283.09.01.18.026.272.042l.007.001h.002l.127.022zm.528-37.877v-.173c2.046 0 4.064 0 6.09-.002-1.586 5.425-1.154 10.652 1.552 15.633 1.813 3.338 4.415 5.929 7.728 7.787 6.555 3.679 14.687 3.308 20.865-.899a19.808 19.808 0 0 0 5.83-6.12 19.571 19.571 0 0 0 2.762-7.976 20.009 20.009 0 0 0-.79-8.42h6.11V54.53c0 1.372-1.173 2.542-2.549 2.542H9.467c-1.363 0-2.542-1.172-2.542-2.534-.002-7.027-.002-14.054-.001-21.081v-7.333zM32 19.031c-7.099-.004-12.87 5.707-12.969 12.773-.102 7.256 5.707 13.009 12.67 13.158 7.247.156 13.108-5.634 13.26-12.676.157-7.261-5.7-13.26-12.962-13.255zm19.447-2.611v.011l-1.094.001c-.608 0-1.216.002-1.823 0-1.196-.005-2.173-.66-2.535-1.726a2.916 2.916 0 0 1-.154-.893c-.01-1.621-.01-3.242-.008-4.863l.001-1.146a2.59 2.59 0 0 1 2.595-2.607c2.016-.002 4.03-.001 6.046 0A2.583 2.583 0 0 1 57.07 7.8v6.062c0 1.357-1.104 2.518-2.459 2.552a73.18 73.18 0 0 1-2.198.01c-.322-.002-.643-.004-.965-.004z" transform="translate(1664 -764)" fill=""/></g></symbol><symbol class="bmsprite-icon" viewBox="0 0 64 64" id="linkedin"><title>linkedin</title><path d="M1508-764h64v64h-64v-64z" fill="#FFF"/><g transform="translate(-1508 764)"><path id="LinkedIN Copy 4" fill-rule="evenodd" d="M7.67 14.264h-.087C2.977 14.264 0 11.093 0 7.13 0 3.082 3.068 0 7.76 0c4.693 0 7.583 3.082 7.672 7.13 0 3.963-2.979 7.134-7.762 7.134zm6.859 46.91H.81V19.897H14.53v41.275zm35.753 0H64V37.506c0-12.678-6.767-18.578-15.794-18.578-7.283 0-10.544 4.006-12.365 6.816V19.9h-13.72c.182 3.873 0 41.275 0 41.275h13.72V38.123c0-1.234.09-2.465.452-3.348.991-2.464 3.249-5.016 7.038-5.016 4.966 0 6.951 3.785 6.951 9.332v22.082z" transform="translate(1508 -761)"/></g></symbol><symbol class="bnsprite-icon" viewBox="0 0 64 64" id="loading"><title>loading</title><path d="M2058-684h64v64h-64v-64z" fill="#FFF"/><g transform="translate(-2058 684)" fill-rule="evenodd"><path id="accent" d="M31.608 0l-4.29 4.18a16.639 16.639 0 0 1 2.057 8.02c0 9.492-7.887 17.18-17.625 17.18v-8.59L0 32.245l11.75 11.454v-8.59c12.984 0 23.5-10.253 23.5-22.91 0-4.496-1.351-8.662-3.642-12.199z" transform="translate(2078.75 -663.699)" fill="currentColor"/><path id="primary" d="M23.5 14.318v8.591l11.75-11.454L23.5 0v8.59C10.516 8.59 0 18.844 0 31.5c0 4.496 1.351 8.663 3.643 12.2l4.288-4.182A16.639 16.639 0 0 1 5.875 31.5c0-9.493 7.887-17.182 17.625-17.182z" transform="translate(2065 -684)" fill=""/></g></symbol><symbol class="bosprite-icon" viewBox="0 0 64 64" id="location"><title>location</title><path d="M1270-764h64v64h-64v-64z" fill="#FFF"/><g transform="translate(-1270 764)"><path id="primary" fill-rule="evenodd" d="M23 0c12.7 0 23 10.112 23 22.588C46 37.647 23 64 23 64S0 37.647 0 22.588C0 10.112 10.296 0 23 0zm0 13.177c-5.29 0-9.583 4.216-9.583 9.411C13.417 27.783 17.71 32 23 32s9.583-4.216 9.583-9.412c0-5.195-4.293-9.412-9.583-9.412z" transform="translate(1280 -764)" fill=""/></g></symbol><symbol class="bpsprite-icon" viewBox="0 0 64 64" id="lockclosed"><title>lockclosed</title><path d="M1112-684h64v64h-64v-64z" fill="#FFF"/><g transform="translate(-1112 684)"><path id="primary" fill-rule="evenodd" d="M38.4 16v12.8c3.53 0 6.4 2.867 6.4 6.4v22.4c0 3.53-2.87 6.4-6.4 6.4h-32C2.87 64 0 61.13 0 57.6V35.2c0-3.533 2.87-6.4 6.4-6.4V16c0-8.822 7.178-16 16-16s16 7.178 16 16zM12.8 28.8V16c0-5.293 4.307-9.6 9.6-9.6 5.293 0 9.6 4.307 9.6 9.6v12.8H12.8zm9.6 22.4c-2.65 0-4.8-2.15-4.8-4.8s2.15-4.8 4.8-4.8 4.8 2.15 4.8 4.8-2.15 4.8-4.8 4.8z" transform="translate(1122 -684)" fill=""/></g></symbol><symbol class="bqsprite-icon" viewBox="0 0 64 64" id="lockopen"><title>lockopen</title><path d="M1032-684h64v64h-64v-64z" fill="#FFF"/><g transform="translate(-1032 684)"><path id="primary" fill-rule="evenodd" d="M12.8 28.8h25.6c3.53 0 6.4 2.867 6.4 6.4v22.4c0 3.53-2.87 6.4-6.4 6.4h-32C2.87 64 0 61.13 0 57.6V35.2c0-3.533 2.87-6.4 6.4-6.4V16c0-8.822 7.178-16 16-16s16 7.178 16 16v3.2H32V16c0-5.293-4.307-9.6-9.6-9.6-5.293 0-9.6 4.307-9.6 9.6v12.8zm4.8 17.6c0 2.65 2.15 4.8 4.8 4.8s4.8-2.15 4.8-4.8-2.15-4.8-4.8-4.8-4.8 2.15-4.8 4.8z" transform="translate(1042 -684)" fill=""/></g></symbol><symbol class="brsprite-icon" viewBox="0 0 64 64" id="logo"><title>logo</title><path d="M1032-764h64v64h-64v-64z" fill="#FFF"/><g transform="translate(-1032 764)" fill-rule="evenodd"><path id="accent" d="M.214 1.303V0H0v1.287c0 .368.278.583.675.583.398 0 .676-.215.676-.583V0h-.214v1.303c0 .214-.16.393-.462.393-.301 0-.461-.18-.461-.393zM2.366 0v1.844h.193V.199h.005l.977 1.645h.176V0h-.192v1.42h-.01L2.673 0h-.307zM4.65 1.844h-.214V0h.214v1.844zM5.832 0h-.213l.595 1.844h.195L7.007 0H6.79l-.478 1.512h-.006L5.832 0zm3.013 0v.173h-.943v.619h.67v.173h-.67v.705h.996v.174h-1.21V0h1.157zm1.218.833h-.386v-.66h.384c.275 0 .451.075.451.323 0 .232-.155.337-.449.337zm-.6 1.01V0h.62c.416 0 .643.178.643.485 0 .26-.158.409-.384.48l.408.879h-.233l-.39-.838h-.45v.838h-.214zm2.685-1.67c.248 0 .4.144.448.323l.192-.041A.628.628 0 0 0 12.153 0c-.348 0-.58.21-.58.475 0 .307.3.413.586.515.255.09.498.177.498.399 0 .189-.141.332-.424.332-.283 0-.428-.179-.505-.372l-.195.065c.102.22.267.481.69.481.49 0 .647-.273.647-.541 0-.324-.326-.44-.62-.546-.244-.087-.466-.166-.463-.348.003-.184.136-.287.36-.287zm1.668 1.67h-.213V0h.213v1.844zm1.465 0V.174h.576V0H14.49v.173h.576v1.67h.214zm1.871-.776L16.56 0h.235l.464.845.465-.845h.235l-.592 1.067v.777h-.215v-.777zm3.658-.12c0 .524-.2.774-.54.774-.339 0-.539-.25-.539-.773 0-.524.2-.775.539-.775.34 0 .54.25.54.775zM20.27 0c.473 0 .754.332.754.948 0 .615-.281.947-.754.947-.472 0-.752-.332-.752-.947 0-.616.28-.948.752-.948zm2.756.173V0h-1.142v1.844h.212V.965h.69V.792h-.69V.173h.93zm2.935 1.145c-.086.342-.283.577-.678.577-.433 0-.738-.301-.738-.948 0-.6.273-.947.737-.947.359 0 .567.199.652.536l-.198.056c-.069-.26-.192-.419-.48-.419-.278 0-.497.246-.497.774 0 .534.22.774.54.774.296 0 .41-.214.47-.439l.192.036zm1.698-.225h-.584l.277-.95h.03l.277.95zm-1.044.75L27.208 0h.317l.594 1.844h-.225l-.181-.577h-.692l-.181.577h-.225zM28.685 0v1.844h1.127V1.67h-.913V0h-.214zm1.988 1.844h-.213V0h.213v1.844zm2.112-1.67V0h-1.143v1.844h.214V.965h.689V.792h-.69V.173h.93zM34.17 1.72c.339 0 .539-.25.539-.773 0-.524-.2-.775-.54-.775-.339 0-.538.25-.538.775 0 .523.2.773.539.773zm.752-.773c0-.616-.28-.948-.752-.948-.473 0-.753.332-.753.948 0 .615.28.947.753.947.472 0 .752-.332.752-.947zm1.074-.115h.387c.294 0 .449-.105.449-.337 0-.248-.177-.323-.452-.323h-.384v.66zM35.782 0v1.844h.214v-.838h.451l.39.838h.232l-.408-.879c.227-.071.384-.22.384-.48 0-.307-.226-.485-.643-.485h-.62zm2.07 1.844V0h.307l.842 1.42h.01V0h.192v1.844h-.175L38.05.199h-.005v1.645h-.193zm2.366 0h.213V0h-.213v1.844zm1.347-.751h.585l-.278-.95h-.03l-.277.95zM41.698 0l-.593 1.844h.225l.182-.577h.69l.182.577h.225L42.016 0h-.318z" transform="translate(1053 -738)" fill="currentColor"/><path id="accent" d="M0 0h2.12l-.006 11.776H0V0zm5.064 6.442c.716-.31 1.483-1.076 1.483-2.968C6.547.962 5.337 0 2.967 0H2.19l.341 2.045L3.783.18l.02.004-.784 2.23 2.098-1.23.013.013L3.408 2.88l2.922-.342.001.019-2.784.905 2.79.925-.007.017-2.922-.36 1.72 1.682-.011.013L3.019 4.51l.784 2.227-.014.008-1.245-1.848-.353 2.05c.357-.003.76-.019 1.015-.048l1.5 4.875h2.148l-1.79-5.333zm4.569-3.896H7.985v9.182h1.648V2.546zm6.676 0h-1.622l-1.196 6.372h-.027l-1.197-6.372h-1.621l2.007 9.182h1.648l2.008-9.182zm1.139 9.182V2.546h4.415V3.92h-2.766v2.366h2.127v1.373h-2.127v2.696h2.952v1.374h-4.601zm8.148-5.062h-.585V3.843h.585c.89 0 1.223.318 1.223 1.412 0 1.093-.333 1.411-1.223 1.411zm-.585 5.062h-1.649V2.546h2.314c1.847 0 2.791.75 2.791 2.709 0 1.476-.598 2.072-1.156 2.314l1.395 4.159h-1.675l-1.17-3.803a8.286 8.286 0 0 1-.85.038v3.765zm7.114-7.809c.372 0 .81.23.877 1.018l1.569-.165c-.147-1.298-.944-2.226-2.287-2.226-1.622 0-2.553.827-2.553 2.29 0 1.436 1 2.233 1.906 2.956.754.6 1.445 1.151 1.445 1.977 0 .547-.386.84-.957.84-.532 0-.918-.458-.985-1.387l-1.568.216c.066 1.374.944 2.544 2.473 2.544 1.542 0 2.605-.84 2.605-2.353 0-1.39-1.042-2.239-1.965-2.989-.73-.594-1.385-1.126-1.385-1.818 0-.572.293-.903.825-.903zm3.953-1.373h1.649v9.182h-1.649V2.546zm5.473 7.884h-.57V3.843h.57c.878 0 1.184.318 1.184 1.284v4.019c0 .967-.306 1.284-1.184 1.284zm-2.22-7.884h2.447c1.702 0 2.605.89 2.605 2.773v3.636c0 1.882-.903 2.773-2.605 2.773H39.33V2.546zm6.802 0v9.182h4.6v-1.373H47.78V7.657h2.128V6.285H47.78V3.92h2.766V2.546h-4.414z" transform="translate(1045.01 -738)" fill="currentColor"/><path id="primary" d="M1.63 0H0v6.79c0 1.56.946 2.415 2.498 2.415 1.551 0 2.497-.855 2.497-2.415V0h-1.63v6.853c0 .667-.276.994-.867.994-.592 0-.868-.327-.868-.994V0zm8.162 2.452v.704h1.63V2.49c0-1.358-.789-2.49-2.419-2.49-1.709 0-2.497 1.044-2.497 2.326v4.678c0 1.283.788 2.326 2.497 2.326 1.63 0 2.42-1.043 2.42-2.326V5.96H9.791v1.094c0 .59-.197.918-.789.918-.657 0-.867-.327-.867-1.006V2.364c0-.68.21-1.006.867-1.006.42 0 .789.327.789 1.094z" transform="translate(1032 -735.454)" fill=""/></g></symbol><symbol class="bssprite-icon" viewBox="0 0 64 64" id="magnifier"><title>magnifier</title><path d="M1980-524h64v64h-64v-64z" fill="#FFF"/><g transform="translate(-1980 524)"><path id="primary" fill-rule="evenodd" d="M46.538 41.991L64 59.408 59.396 64 41.911 46.56a25.884 25.884 0 0 1-15.863 5.401c-6.958 0-13.496-2.702-18.416-7.609S0 32.924 0 25.981c0-6.94 2.712-13.465 7.632-18.369C12.552 2.705 19.09 0 26.048 0s13.5 2.705 18.416 7.612c4.923 4.904 7.632 11.429 7.632 18.369 0 5.884-1.967 11.46-5.558 16.01zM6.512 25.981a19.305 19.305 0 0 0 5.724 13.776 19.423 19.423 0 0 0 13.812 5.71c5.22 0 10.123-2.027 13.812-5.707a19.319 19.319 0 0 0 5.724-13.78 19.304 19.304 0 0 0-5.724-13.772 19.407 19.407 0 0 0-13.812-5.713 19.423 19.423 0 0 0-13.812 5.71A19.316 19.316 0 0 0 6.512 25.98z" transform="translate(1980 -524)" fill=""/></g></symbol><symbol class="btsprite-icon" viewBox="0 0 64 64" id="minus"><title>minus</title><path d="M1820-448h64v64h-64v-64z" fill="#FFF"/><g transform="translate(-1820 448)"><path id="primary" fill-rule="evenodd" d="M0 12.8V0h64v12.8H0z" transform="translate(1820 -422.4)" fill=""/></g></symbol><symbol class="busprite-icon" viewBox="0 0 64 64" id="monogram"><title>monogram</title><path d="M1112-764h64v64h-64v-64z" fill="#FFF"/><g transform="translate(-1112 764)" fill-rule="evenodd"><path id="Fill 1" d="M0 0h5.618v24.41c0 2.374.951 3.54 2.99 3.54 2.038 0 2.99-1.166 2.99-3.54V0h5.617v24.186c0 5.555-3.261 8.6-8.607 8.6-5.346 0-8.608-3.045-8.608-8.6V0z" transform="translate(1112 -747.215)"/><path id="Fill 2" d="M11.326 11.12V8.64c0-2.703-1.27-3.855-2.719-3.855-2.264 0-2.99 1.152-2.99 3.544v16.215c0 2.392.726 3.544 2.99 3.544 2.04 0 2.719-1.152 2.719-3.234v-3.855h5.617v3.678c0 4.518-2.718 8.197-8.336 8.197C2.718 32.873 0 29.195 0 24.677V8.197C0 3.677 2.718 0 8.607 0c5.618 0 8.337 3.987 8.337 8.772v2.349h-5.618z" transform="translate(1134.65 -747.215)"/><path id="accent" d="M0 0l5.7.003v32.816H0V0zm17.652 9.682c0 5.274-2.069 7.41-3.998 8.272L18.48 32.82h-5.792l-4.046-13.59c-.686.084-1.773.129-2.737.134l.952-5.712 3.378 5.143-2.095-6.22 5.667 3.404-4.618-4.707 7.779.98-7.405-2.602 7.708-2.559-8.082.937 4.618-4.705L8.14 6.726l2.095-6.22-3.412 5.193L5.903 0h2.096c6.39 0 9.653 2.681 9.653 9.682z" transform="translate(1156.93 -747.215)" fill="currentColor"/></g></symbol><symbol class="bvsprite-icon" viewBox="0 0 64 64" id="mortarhat"><title>mortarhat</title><path d="M1742-604h64v64h-64v-64z" fill="#FFF"/><g transform="translate(-1742 604)" fill-rule="evenodd"><path id="primary" d="M33.3.308a2.908 2.908 0 0 0-2.603 0L1.606 14.853A2.898 2.898 0 0 0 .31 16.2c-.177.352-.311.957-.311 1.254v16.77a2.908 2.908 0 1 0 5.818 0V20.85l26.223 10.926 30.13-11.619a2.909 2.909 0 0 0 .22-5.303L33.301.308z" transform="translate(1742 -598)" fill=""/><path id="accent" d="M20.364 8.241c-.381 0-.762-.075-1.12-.224L0 0v8.768c0 1.1.623 2.11 1.609 2.6 4.989 2.497 10.13 5.583 18.755 5.583 8.62 0 13.774-3.092 18.754-5.582a2.908 2.908 0 0 0 1.61-2.601V.617l-19.32 7.432c-.338.128-.69.192-1.044.192z" transform="translate(1753.64 -566)" fill="currentColor"/><path id="primary" d="M2.91 0A2.91 2.91 0 0 0 0 2.91v5.817a2.91 2.91 0 0 0 5.818 0V2.91A2.91 2.91 0 0 0 2.91 0z" transform="translate(1742 -557.273)" fill=""/></g></symbol><symbol class="bwsprite-icon" viewBox="0 0 64 64" id="news"><title>news</title><path d="M1742-524h64v64h-64v-64z" fill="#FFF"/><g transform="translate(-1742 524)"><path id="News Icon" fill-rule="evenodd" d="M57.69 0c1.703 0 3.18.612 4.432 1.835C63.374 3.058 64 4.5 64 6.165v37.57c0 1.664-.626 3.132-1.878 4.403-1.252 1.272-2.73 1.908-4.432 1.908H19.23c-1.703 0-3.205-.636-4.507-1.908-1.302-1.271-1.953-2.74-1.953-4.402V6.163c0-1.663.651-3.106 1.953-4.33C16.025.613 17.527 0 19.23 0h38.46zm-3.305 9.393v15.63h-32V9.393h32zm-12.77 24.95v6.31h-19.23v-6.31h19.23zM6.31 57.399V10.41H0V57.4c0 1.78.626 3.326 1.878 4.636C3.13 63.346 4.608 64 6.31 64h44.92v-6.6H6.31z" transform="translate(1742 -524)"/></g></symbol><symbol class="bxsprite-icon" viewBox="0 0 64 64" id="pantheon"><title>pantheon</title><path d="M1108-526h64v64h-64v-64z" fill="#FFF"/><g transform="translate(-1108 526)"><path id="Shape" fill-rule="evenodd" d="M0 21.333v-6.095L32 0l32 15.238v6.095H0zm6.737 6.096v21.333h10.105V27.429H6.737zm20.21 0v21.333h10.106V27.429H26.947zM64 54.857V64H0v-9.143h64zM47.158 27.43v21.333h10.105V27.429H47.158z" transform="translate(1108 -526)"/></g></symbol><symbol class="bysprite-icon" viewBox="0 0 64 64" id="pdfdoc"><title>pdfdoc</title><path d="M2058-448h64v64h-64v-64z" fill="#FFF"/><g transform="translate(-2058 448)"><path id="primary" fill-rule="evenodd" d="M31.875 19.2v-16l15.938 16H31.874zM36.382 0H6.375C2.859 0 0 2.874 0 6.4v51.2C0 61.126 2.86 64 6.375 64h38.25C48.141 64 51 61.126 51 57.6V14.675L36.382 0zM10.687 42.148c-.825 0-1.41.072-1.729.14v5.537c.39.12.85.148 1.465.148 2.24 0 3.609-1.124 3.609-3.038-.004-1.839-1.267-2.788-3.345-2.788zm6.323 2.663c0-1.547-.644-2.842-1.616-3.653-1.047-.88-2.629-1.348-4.827-1.348-2.002 0-3.492.148-4.59.348v16.286h2.978V50.2c.41.1.904.123 1.465.123 2.126 0 3.978-.587 5.2-1.79.9-.883 1.393-2.151 1.39-3.722zm13.494 3.086c0 4.193-2.314 6.379-6.216 6.351-.613 0-1.243 0-1.654-.072V42.333c.435-.093 1.092-.168 2.04-.168 3.76 0 5.865 2.113 5.83 5.732zm3.177-.1c0-2.79-.972-4.78-2.588-6.076-1.513-1.275-3.611-1.91-6.689-1.91-1.77 0-3.433.147-4.782.347v16.245c1 .12 2.324.217 4.053.217 3.2 0 5.81-.757 7.446-2.255 1.56-1.416 2.564-3.602 2.56-6.568zm5.628-.828v-4.557h6.511v-2.474h-9.513v16.51h3.002V49.42h6.053v-2.45h-6.053z" transform="translate(2064 -448)" fill=""/></g></symbol><symbol class="bzsprite-icon" viewBox="0 0 64 64" id="persona"><title>persona</title><path d="M1270-684h64v64h-64v-64z" fill="#FFF"/><g transform="translate(-1270 684)" fill-rule="evenodd"><path id="accent" d="M16 32c8.824 0 16-7.176 16-16S24.824 0 16 0 0 7.176 0 16s7.176 16 16 16z" transform="translate(1286 -684)" fill="currentColor"/><path id="primary" d="M32 0C13.16 0 0 9.868 0 24v4h64v-4C64 9.868 50.84 0 32 0z" transform="translate(1270 -648)" fill=""/></g></symbol><symbol class="casprite-icon" viewBox="0 0 64 64" id="phone"><title>phone</title><path d="M1190-606h64v64h-64v-64z" fill="#FFF"/><g transform="translate(-1190 606)"><path id="primary" fill-rule="evenodd" d="M60.235 41.412H45.176a3.761 3.761 0 0 0-3.764 3.764v3.765c-15.06 0-26.12-11.527-26.353-26.353h3.764a3.761 3.761 0 0 0 3.765-3.765V3.765A3.761 3.761 0 0 0 18.823 0H3.765A3.761 3.761 0 0 0 0 3.765v18.823C0 45.458 18.541 64 41.412 64h18.823A3.761 3.761 0 0 0 64 60.235V45.176a3.761 3.761 0 0 0-3.765-3.764z" transform="translate(1190 -606)" fill=""/></g></symbol><symbol class="cbsprite-icon" viewBox="0 0 62 62" id="piechart"><title>piechart</title><g transform="translate(-1665 604)" fill-rule="evenodd"><path id="primary" d="M27.814 0C12.452-.001 0 12.432 0 27.77c-.001 15.338 12.452 27.77 27.814 27.77 15.363 0 27.816-12.432 27.814-27.77l-27.814-.002V0z" transform="translate(1665.19 -598.163)" fill=""/><path id="accent" d="M0 0v27.77h27.814C27.815 12.433 15.364-.001 0 0z" transform="translate(1698.99 -603.936)" fill="currentColor"/></g></symbol><symbol class="ccsprite-icon" viewBox="0 0 64 64" id="plus"><title>plus</title><path d="M1742-448h64v64h-64v-64z" fill="#FFF"/><g transform="translate(-1742 448)"><path id="primary" fill-rule="evenodd" d="M64 38.4H38.4V64H25.6V38.4H0V25.6h25.6V0h12.8v25.6H64v12.8z" transform="translate(1742 -448.218)" fill=""/></g></symbol><symbol class="cdsprite-icon" viewBox="0 0 64 64" id="print"><title>print</title><path d="M1508-686h64v64h-64v-64z" fill="#FFF"/><g transform="translate(-1508 686)" fill-rule="evenodd"><path id="accent" d="M0 0v20.524c0 2.28 1.78 4.14 3.968 4.14h23.81c2.189 0 3.969-1.86 3.969-4.14V0h-4.505l.002 20.788H3.431V0H0zm6.006 7.927h18.876v3.524H6.006V7.927zm18.876 6.166H6.006v3.524h18.876v-3.524z" transform="translate(1524.45 -646.774)" fill="currentColor"/><path id="primary" d="M3.968 0C1.78 0 0 1.858 0 4.14v19.643h4.29V4.404h15.015v8.28h7.937v11.099h4.505V9.493L22.647 0H3.968z" transform="translate(1524.45 -686)" fill=""/><path id="primary" d="M52 2.753V0h5.753C61.753 0 64 4.019 64 8.038v28.021l-12 .11v-8.037H12v8.037l-12-.11V8.038C0 4.018 2.247 0 6.247 0H12v2.753h40zm-.274 7.845H32.438v5.285h19.288v-5.285z" transform="translate(1508 -669.484)" fill=""/></g></symbol><symbol class="cesprite-icon" viewBox="0 0 64 64" id="quicklinks"><title>quicklinks</title><path d="M1508-526h64v64h-64v-64z" fill="#FFF"/><g transform="translate(-1508 526)"><path id="Shape" fill-rule="evenodd" d="M7.037 18.518c0-6.334 5.147-11.481 11.48-11.481h14.814V0H18.517C8.296 0 0 8.296 0 18.517 0 28.74 8.296 37.035 18.517 37.035h14.814v-7.037H18.517c-6.332 0-11.48-5.148-11.48-11.48zM22.22 22.22h29.628v-7.407H22.221v7.407zM40.739 0h14.814C65.773 0 74.07 8.296 74.07 18.517c0 10.222-8.296 18.518-18.518 18.518H40.738v-7.037h14.815c6.332 0 11.48-5.148 11.48-11.48 0-6.334-5.148-11.481-11.48-11.481H40.737V0z" transform="scale(-1 1) rotate(45 -133.126 -2141.102)"/></g></symbol><symbol class="cfsprite-icon" viewBox="0 0 64 64" id="rss"><title>rss</title><path d="M1900-764h64v64h-64v-64z" fill="#FFF"/><g transform="translate(-1900 764)"><path id="primary" fill-rule="evenodd" d="M0 12.272c28.495 0 51.692 23.21 51.692 51.728H64C64 28.72 35.286 0 0 0v12.272zM30.22 64c0-8.094-3.147-15.713-8.853-21.414C15.655 36.873 8.068 33.719 0 33.719V21.333c23.52 0 42.667 19.139 42.667 42.667H30.22zM7.615 60.952A7.61 7.61 0 0 1 0 53.342c0-4.19 3.413-7.628 7.614-7.628 4.217 0 7.624 3.438 7.624 7.627a7.608 7.608 0 0 1-7.624 7.611z" transform="translate(1900 -764)" fill=""/></g></symbol><symbol class="cgsprite-icon" viewBox="0 0 64 64" id="send"><title>send</title><path d="M1348-686h64v64h-64v-64z" fill="#FFF"/><g transform="translate(-1348 686)" fill-rule="evenodd"><path id="accent" d="M0 46.523V58.94c0 .475.139.908.417 1.3.278.39.646.67 1.106.835.217.095.483.142.797.142.75 0 1.341-.272 1.777-.818l8.773-10.496 16.422 6.582c.315.12.605.178.87.178a2.26 2.26 0 0 0 1.124-.284c.653-.38 1.04-.913 1.16-1.601L41.727.128c.007-.043.007-.085.012-.128L31.321 8.847 0 46.523z" transform="translate(1370.26 -683.217)" fill="currentColor"/><path id="primary" d="M63.008.393A2.216 2.216 0 0 0 61.722 0c-.405 0-.786.107-1.143.322L1.147 34.652c-.81.453-1.19 1.156-1.143 2.11.071.977.548 1.633 1.428 1.967l14.108 5.793 38.181-33.079-.001.002 10.264-8.892c.095-.893-.227-1.614-.976-2.16z" transform="translate(1348 -686)" fill=""/></g></symbol><symbol class="chsprite-icon" viewBox="0 0 64 64" id="sharesocial"><title>sharesocial</title><path d="M1270-526h64v64h-64v-64z" fill="#FFF"/><g transform="translate(-1270 526)" fill-rule="evenodd"><path id="primary" d="M53.12 21.76c6.009 0 10.88-4.871 10.88-10.88S59.129 0 53.12 0 42.24 4.871 42.24 10.88c0 .528.038 1.047.11 1.555l-23.053 10.75A10.858 10.858 0 0 0 10.88 19.2C4.871 19.2 0 24.071 0 30.08s4.871 10.88 10.88 10.88 10.88-4.871 10.88-10.88c0-.324-.014-.645-.042-.962l23.37-10.898a10.852 10.852 0 0 0 8.032 3.54z" transform="translate(1270 -526)" fill=""/><path id="accent" d="M0 5.57l20.603 9.608c-.072.508-.11 1.027-.11 1.555 0 6.01 4.871 10.88 10.88 10.88s10.88-4.87 10.88-10.88c0-6.009-4.871-10.88-10.88-10.88-3.18 0-6.042 1.365-8.031 3.54L3.197 0A14.702 14.702 0 0 1 0 5.57z" transform="translate(1291.75 -491.562)" fill="currentColor"/></g></symbol><symbol class="cisprite-icon" viewBox="0 0 64 64" id="success1"><title>success1</title><path d="M1270-448h64v64h-64v-64z" fill="#FFF"/><g transform="translate(-1270 448)"><path id="success1" fill-rule="evenodd" d="M64 32c0 17.673-14.327 32-32 32C14.327 64 0 49.673 0 32 0 14.327 14.327 0 32 0c17.673 0 32 14.327 32 32zm-52.52 2.76l14.573 14.573 27.442-27.44L47.602 16 26.053 37.549l-8.682-8.682-5.892 5.892z" transform="translate(1270 -448)"/></g></symbol><symbol class="cjsprite-icon" viewBox="0 0 64 64" id="success2"><title>success2</title><path d="M1348-448h64v64h-64v-64z" fill="#FFF"/><g transform="translate(-1348 448)" fill-rule="evenodd"><path id="primary" d="M56.889 56.889H7.11V7.11H32V0H7.111A7.11 7.11 0 0 0 0 7.111V56.89A7.11 7.11 0 0 0 7.111 64H56.89A7.11 7.11 0 0 0 64 56.889V32h-7.111v24.889z" transform="translate(1348 -448)" fill=""/><path id="accent" d="M17.453 41.91L0 24.59l6.263-6.217 10.885 10.805L44.447 0 51 5.91l-33.547 36z" transform="translate(1360 -440)" fill="currentColor"/></g></symbol><symbol class="cksprite-icon" viewBox="0 0 64 64" id="success3"><title>success3</title><path d="M1428-448h64v64h-64v-64z" fill="#FFF"/><g transform="translate(-1428 448)"><path id="primary" fill-rule="evenodd" d="M50.336 32.394c2.35 1.19 3.982 3.605 3.982 6.419a7.179 7.179 0 0 1-2.002 4.963 6.839 6.839 0 0 1 2.002 4.836c0 3.59-2.783 6.515-6.303 6.804.248.684.407 1.41.407 2.178A6.412 6.412 0 0 1 42.018 64H20.156C9.76 64 .636 55.6.544 45.985.355 44.512-.994 33.098 1.43 26.56 2.704 23.125 11.658 6.17 12.536 4.511 14.004.88 18.132-.927 21.809.475 25.528 1.9 27.397 6.082 25.977 9.8l-3.473 9.106a2.352 2.352 0 0 0-.047.478c0 1.126.915 2.042 2.04 2.042H44.19c3.982 0 7.224 3.238 7.224 7.222a7.152 7.152 0 0 1-1.077 3.745zm-8.27 18.796h5.392a2.58 2.58 0 0 0 2.578-2.578 2.58 2.58 0 0 0-2.578-2.578h-6.346a2.139 2.139 0 0 1-2.14-2.14c0-1.185.956-2.142 2.14-2.142h5.982a2.944 2.944 0 0 0 2.942-2.94c0-1.62-1.319-2.939-2.942-2.939H40.112a2.142 2.142 0 0 1 0-4.282H44.19a2.947 2.947 0 0 0 2.94-2.942c0-1.62-1.32-2.94-2.94-2.94H24.497c-3.486 0-6.323-2.839-6.323-6.324 0-.643.097-1.276.285-1.88l3.516-9.232a2.945 2.945 0 0 0-1.696-3.799 2.95 2.95 0 0 0-3.796 1.7l-.11.236c-2.697 5.098-9.921 18.922-10.93 21.637-2.15 5.8-.677 17.204-.638 17.505v.005l.02.285c0 7.264 7.305 13.876 15.33 13.876h21.862a2.123 2.123 0 1 0 0-4.246h-4.151a2.14 2.14 0 0 1-2.142-2.14c0-1.185.957-2.142 2.142-2.142h4.15l.017.002a.08.08 0 0 0 .016.002.02.02 0 0 0 .01-.002.014.014 0 0 1 .005-.002z" transform="translate(1434 -448)" fill=""/></g></symbol><symbol class="clsprite-icon" viewBox="0 0 64 64" id="textlinkarrows"><title>textlinkarrows</title><path d="M1032-370h64v64h-64v-64z" fill="#FFF"/><g transform="translate(-1032 370)"><path id="Vector" fill-rule="evenodd" d="M14 0H0l15.374 20.235L0 39.724h14l14.998-19.49L14 0zm35 0H35.003l15.374 20.235-15.374 19.49H49L64 20.234 49 0z" transform="translate(1032 -357.862)"/></g></symbol><symbol class="cmsprite-icon" viewBox="0 0 64 64" id="tumblr"><title>tumblr</title><path d="M1822-764h64v64h-64v-64z" fill="#FFF"/><g transform="translate(-1822 764)"><path id="primary" fill-rule="evenodd" d="M40.193 60.51c-2.73 1.285-5.207 2.195-7.428 2.71-2.22.514-4.612.78-7.192.78-2.925 0-4.654-.37-6.897-1.107-2.25-.742-4.168-1.802-5.754-3.16-1.593-1.369-2.689-2.825-3.303-4.361-.614-1.544-.922-3.777-.922-6.705V26.223H0v-9.067c2.513-.815 5.427-1.984 7.217-3.509a17.466 17.466 0 0 0 4.316-5.496C12.626 6.02 13.37 3.296 13.78 0h9.102v14.797H37.68v11.428H22.882v16.408c0 3.715-.05 5.858.346 6.909.392 1.045 1.371 2.134 2.435 2.76 1.423.85 3.035 1.275 4.856 1.275 3.242 0 6.466-1.05 9.672-3.158v10.09h.002z" transform="translate(1833.85 -764.148)" fill=""/></g></symbol><symbol class="cnsprite-icon" viewBox="0 0 64 64" id="twitter"><title>twitter</title><path d="M40.093 6.625c-5.78 2.104-9.434 7.527-9.017 13.465l.138 2.29-2.312-.28c-8.416-1.075-15.769-4.722-22.012-10.847L3.838 8.214l-.786 2.244c-1.665 5.003-.601 10.286 2.867 13.84 1.85 1.963 1.434 2.244-1.757 1.075-1.11-.374-2.081-.655-2.174-.515-.323.328.787 4.582 1.665 6.265 1.203 2.338 3.653 4.629 6.336 5.985l2.266 1.075-2.683.047c-2.59 0-2.682.047-2.404 1.028.925 3.04 4.578 6.265 8.647 7.668l2.867.982-2.497 1.496c-3.7 2.15-8.046 3.366-12.393 3.46-2.081.046-3.792.233-3.792.374 0 .467 5.642 3.085 8.925 4.114 9.85 3.039 21.55 1.73 30.336-3.46 6.243-3.693 12.486-11.034 15.399-18.14 1.572-3.787 3.144-10.707 3.144-14.026 0-2.15.14-2.431 2.729-5.003 1.526-1.496 2.96-3.132 3.237-3.6.462-.888.416-.888-1.942-.093-3.931 1.403-4.486 1.216-2.544-.888 1.434-1.496 3.145-4.208 3.145-5.003 0-.14-.694.094-1.48.514-.832.468-2.682 1.17-4.07 1.59l-2.497.795-2.266-1.543c-1.248-.842-3.005-1.777-3.93-2.057-2.359-.655-5.966-.561-8.093.187z" id="primary" fill=""/></symbol><symbol class="cosprite-icon" viewBox="0 0 64 64" id="twitter2"><title>twitter2</title><g transform="translate(-1429 764)"><path id="primary" d="M40.093.625c-5.78 2.104-9.434 7.527-9.017 13.465l.138 2.29-2.312-.28C20.486 15.025 13.133 11.378 6.89 5.253L3.838 2.214l-.786 2.244c-1.665 5.003-.601 10.286 2.867 13.84 1.85 1.963 1.434 2.244-1.757 1.075-1.11-.374-2.081-.655-2.174-.515-.323.328.787 4.582 1.665 6.265 1.203 2.338 3.653 4.629 6.336 5.985l2.265 1.075-2.682.047c-2.59 0-2.682.047-2.404 1.029.925 3.038 4.578 6.264 8.647 7.667l2.867.982-2.497 1.496c-3.7 2.15-8.046 3.366-12.393 3.46-2.081.046-3.792.233-3.792.374 0 .467 5.642 3.085 8.925 4.114 9.85 3.039 21.55 1.73 30.336-3.46 6.243-3.693 12.485-11.034 15.399-18.14 1.572-3.787 3.144-10.706 3.144-14.026 0-2.15.14-2.431 2.729-5.003 1.526-1.496 2.96-3.132 3.237-3.6.462-.888.416-.888-1.942-.093-3.931 1.403-4.486 1.215-2.544-.888 1.434-1.497 3.145-4.208 3.145-5.003 0-.14-.694.094-1.48.514-.832.468-2.682 1.17-4.07 1.59l-2.497.795-2.265-1.543C50.867 1.653 49.11.718 48.186.438c-2.359-.655-5.966-.561-8.093.187z" transform="translate(1429 -758)" fill=""/></g></symbol><symbol class="cpsprite-icon" viewBox="0 0 64 64" id="upload"><title>upload</title><path d="M1900-684h64v64h-64v-64z" fill="#FFF"/><g transform="translate(-1900 684)"><path id="Exclude" fill-rule="evenodd" d="M32 0c9.707 0 17.8 6.92 19.613 16.093C58.52 16.587 64 22.293 64 29.333c0 7.36-5.973 13.334-13.333 13.334H16c-8.84 0-16-7.16-16-16 0-8.254 6.253-15.04 14.267-15.907C17.613 4.373 24.293 0 32 0zm5.333 34.667V24h8L32 10.667 18.667 24h8v10.667h10.666z" transform="translate(1900 -674)"/></g></symbol><symbol class="cqsprite-icon" viewBox="0 0 64 64" id="uploaddone"><title>uploaddone</title><path d="M1980-684h64v64h-64v-64z" fill="#FFF"/><g transform="translate(-1980 684)"><path id="primary" fill-rule="evenodd" d="M32 0c9.707 0 17.8 6.92 19.613 16.093C58.52 16.587 64 22.293 64 29.333c0 7.36-5.973 13.334-13.333 13.334H16c-8.84 0-16-7.16-16-16 0-8.254 6.253-15.04 14.267-15.907C17.613 4.373 24.293 0 32 0zM17.333 25.333l9.334 9.334L44.24 17.093l-3.773-3.773-13.8 13.8-5.56-5.56-3.774 3.773z" transform="translate(1980 -673.333)" fill=""/></g></symbol><symbol class="crsprite-icon" viewBox="0 0 64 64" id="video"><title>video</title><path d="M1428-606h64v64h-64v-64z" fill="#FFF"/><g transform="translate(-1428 606)"><path id="primary" fill-rule="evenodd" d="M62.215 8.094a3.758 3.758 0 0 0-3.663-.166l-9.61 4.804V7.53c0-4.152-3.378-7.529-7.53-7.529H7.529C3.377 0 0 3.377 0 7.53v30.117c0 4.153 3.377 7.53 7.53 7.53h33.882c4.152 0 7.53-3.377 7.53-7.53v-5.199l9.61 4.804a3.782 3.782 0 0 0 3.663-.166A3.77 3.77 0 0 0 64 33.882V11.294a3.763 3.763 0 0 0-1.785-3.2z" transform="translate(1428 -596)" fill=""/></g></symbol><symbol class="cssprite-icon" viewBox="0 0 64 64" id="youtube"><title>youtube</title><path d="M1742-764h64v64h-64v-64z" fill="#FFF"/><g transform="translate(-1742 764)"><path id="primary" fill-rule="evenodd" d="M55.975.896c3.352.378 6.136 2.915 6.919 6.355C64 12.108 64 17.407 64 22.413v.124c0 5.042-.004 10.387-1.12 15.285-.783 3.44-3.568 5.976-6.918 6.355-7.934.896-15.966.9-23.964.896-7.997.004-16.03 0-23.967-.896-3.351-.38-6.134-2.917-6.916-6.355C0 32.925 0 27.579 0 22.537 0 17.494.013 12.148 1.128 7.25 1.91 3.81 4.693 1.274 8.043.896 15.979 0 24.013-.004 32.01 0c7.996-.005 16.029 0 23.965.895zM23.741 11.188v21.386l8.79-4.605 11.556-6.055-20.346-10.726z" transform="translate(1742 -753.549)" fill=""/></g></symbol></svg>