<?xml version="1.0" encoding="UTF-8"?>
<svg width="317px" height="64px" viewBox="0 0 317 64" version="1.1" xmlns="http://www.w3.org/2000/svg" xmlns:xlink="http://www.w3.org/1999/xlink">
    <!-- Generator: Sketch 50.2 (55047) - http://www.bohemiancoding.com/sketch -->
    <title>Untitled</title>
    <desc>Created with Sketch.</desc>
    <defs>
        <polygon id="path-1" points="0 1023.99997 1365.3333 1023.99997 1365.3333 0 0 0"></polygon>
    </defs>
    <g id="Page-1" stroke="none" stroke-width="1" fill="none" fill-rule="evenodd">
        <g id="logo" transform="translate(-525.000000, -480.000000)">
            <g id="g10" transform="translate(683.000000, 512.000000) scale(-1, 1) rotate(-180.000000) translate(-683.000000, -512.000000) translate(0.000000, -0.000000)">
                <g id="g14">
                    <g id="g16-Clipped">
                        <mask id="mask-2" fill="white">
                            <use xlink:href="#path-1"></use>
                        </mask>
                        <g id="path18"></g>
                        <polygon id="path12" fill="#8A7965" fill-rule="nonzero" mask="url(#mask-2)" points="658.455984 480.887988 656.599984 480.887988 656.599984 542.418653 658.455984 542.418653"></polygon>
                        <g id="g16" mask="url(#mask-2)">
                            <g transform="translate(525.333320, 479.999988)">
                                <g id="g22" stroke-width="1" fill="none" fill-rule="evenodd" transform="translate(1.222000, 0.836533)">
                                    <path d="M0,61.3333318 L10.2666664,61.3333318 L10.2666664,16.2173329 C10.2666664,11.8306664 12.0039997,9.67599976 15.7293329,9.67599976 C19.4546662,9.67599976 21.1919995,11.8306664 21.1919995,16.2173329 L21.1919995,61.3333318 L31.4586659,61.3333318 L31.4586659,16.6319996 C31.4586659,6.36666651 25.4973327,0.733333315 15.7293329,0.733333315 C5.96133318,0.733333315 0,6.36666651 0,16.6319996 L0,61.3333318 Z" id="path24" fill="#FDB912" fill-rule="nonzero"></path>
                                </g>
                                <g id="g26" stroke-width="1" fill="none" fill-rule="evenodd" transform="translate(41.981066, 0.884133)">
                                    <path d="M21.3333328,41.3333323 L21.3333328,45.9719989 C21.3333328,51.0199987 19.0133329,53.1719987 16.3626663,53.1719987 C12.225333,53.1719987 10.8986664,51.0199987 10.8986664,46.5493322 L10.8986664,16.2506663 C10.8986664,11.7826664 12.225333,9.62933309 16.3626663,9.62933309 C20.0919995,9.62933309 21.3333328,11.7826664 21.3333328,15.6706663 L21.3333328,22.8759994 L31.5999992,22.8759994 L31.5999992,16.0053329 C31.5999992,7.55999981 26.630666,0.68666665 16.3626663,0.68666665 C5.60266653,0.68666665 0.635999984,7.55999981 0.635999984,16.0053329 L0.635999984,46.7959988 C0.635999984,55.2426653 5.60266653,62.1119984 16.3626663,62.1119984 C26.630666,62.1119984 31.5999992,54.661332 31.5999992,45.7226655 L31.5999992,41.3333323 L21.3333328,41.3333323 Z" id="path28" fill="#FDB912" fill-rule="nonzero"></path>
                                </g>
                                <g id="g30" stroke-width="1" fill="none" fill-rule="evenodd" transform="translate(83.080665, 1.046933)">
                                    <path d="M25.3333327,27.9999993 C28.8613326,29.5933326 32.6426659,33.5413325 32.6426659,43.2853323 C32.6426659,56.2253319 26.6813327,61.1826651 15.0026663,61.1826651 L11.1719997,61.1826651 L12.8519997,50.6493321 L19.0213329,60.2506652 L19.1186662,60.2333318 L15.257333,48.7506654 L25.5959994,55.085332 L25.6573327,55.0146653 L17.1759996,46.3479988 L31.5733325,48.1093321 L31.5799992,48.0133321 L17.8613329,43.3479989 L31.6053325,38.5826657 L31.5733325,38.495999 L17.1759996,40.351999 L25.6519994,31.6839992 L25.5933327,31.6226659 L15.257333,37.9439991 L19.1239995,26.4733327 L19.0533329,26.4293327 L12.9159997,35.9519991 L11.1746664,25.3959994 C12.9359997,25.4053327 14.9226663,25.4879994 16.1773329,25.642666 L23.5719994,0.52533332 L34.1546658,0.52533332 L25.3333327,27.9999993 Z M10.8293331,61.1826651 L0.382666657,61.1826651 L0.382666657,0.523999987 L10.8013331,0.523999987 L10.8293331,61.1826651 Z" id="path32" fill="#0074BC" fill-rule="nonzero"></path>
                                </g>
                                <g id="g34" stroke-width="1" fill="none" fill-rule="evenodd" transform="translate(151.772130, 14.781866)">
                                    <polygon id="path36" fill="#8A7965" fill-rule="nonzero" points="3.9999999 34.6666658 3.9999999 3.18399992 15.2306663 3.18399992 15.2306663 0.0159999996 0.255999994 0.0159999996 0.255999994 34.6666658"></polygon>
                                </g>
                                <polygon id="path38" fill="#8A7965" fill-rule="nonzero" points="178.571996 14.7986663 174.827996 14.7986663 174.827996 49.4493321 178.571996 49.4493321"></polygon>
                                <g id="g40" stroke-width="1" fill="none" fill-rule="evenodd" transform="translate(188.778662, 13.966133)">
                                    <path d="M3.9999999,3.9999999 L7.74399981,3.9999999 C12.2546664,3.9999999 14.6546663,5.96799985 14.6546663,10.4306664 C14.6546663,14.9906663 12.6386664,17.4373329 7.74399981,17.4373329 L3.9999999,17.4373329 L3.9999999,3.9999999 Z M3.9999999,20.6053328 L6.11199985,20.6053328 C11.4866664,20.6053328 13.8866663,22.2359994 13.8866663,26.9399993 C13.8866663,30.8759992 12.1586664,32.3159992 7.74399981,32.3159992 L3.9999999,32.3159992 L3.9999999,20.6053328 Z M0.255999994,35.4826658 L9.47199976,35.4826658 C14.6546663,35.4826658 17.6306662,32.0279992 17.6306662,26.9399993 C17.6306662,23.4853327 16.0933329,20.3653328 12.3506664,19.2613329 L12.3506664,19.1653329 C16.5266663,18.0613329 18.3986662,14.7506663 18.3986662,10.4306664 C18.3986662,3.9999999 14.8466663,0.831999979 7.26266649,0.831999979 L0.255999994,0.831999979 L0.255999994,35.4826658 Z" id="path42" fill="#8A7965" fill-rule="nonzero"></path>
                                </g>
                                <g id="g44" stroke-width="1" fill="none" fill-rule="evenodd" transform="translate(216.618528, 14.283200)">
                                    <path d="M3.9999999,19.9999995 L7.26266649,19.9999995 C12.6386664,19.9999995 14.365333,22.1119994 14.365333,25.998666 C14.365333,29.8866659 12.6386664,31.9986659 7.26266649,31.9986659 L3.9999999,31.9986659 L3.9999999,19.9999995 Z M0.255999994,35.1653325 L8.60666645,35.1653325 C14.1746663,35.1653325 18.1093329,31.9026659 18.1093329,26.1919993 C18.1093329,22.3039994 16.3813329,19.0399995 12.5426664,17.6959996 L18.3986662,0.514666654 L14.4626663,0.514666654 L8.89466644,16.9279996 L3.9999999,16.7359996 L3.9999999,0.514666654 L0.255999994,0.514666654 L0.255999994,35.1653325 Z" id="path46" fill="#8A7965" fill-rule="nonzero"></path>
                                </g>
                                <g id="g48" stroke-width="1" fill="none" fill-rule="evenodd" transform="translate(241.647194, 13.570266)">
                                    <path d="M6.6666665,14.6666663 L14.441333,14.6666663 L10.6026664,33.2866658 L10.5066664,33.2866658 L6.6666665,14.6666663 Z M13.145333,35.8786658 L20.7773328,1.22799997 L17.0333329,1.22799997 L14.9706663,11.4986664 L6.13866651,11.4986664 L4.0759999,1.22799997 L0.331999992,1.22799997 L7.96266647,35.8786658 L13.145333,35.8786658 Z" id="path50" fill="#8A7965" fill-rule="nonzero"></path>
                                </g>
                                <g id="g52" stroke-width="1" fill="none" fill-rule="evenodd" transform="translate(269.610660, 14.283200)">
                                    <path d="M3.9999999,19.9999995 L7.26266649,19.9999995 C12.6386664,19.9999995 14.365333,22.1119994 14.365333,25.998666 C14.365333,29.8866659 12.6386664,31.9986659 7.26266649,31.9986659 L3.9999999,31.9986659 L3.9999999,19.9999995 Z M0.255999994,35.1653325 L8.60666645,35.1653325 C14.1746663,35.1653325 18.1093329,31.9026659 18.1093329,26.1919993 C18.1093329,22.3039994 16.3813329,19.0399995 12.5426664,17.6959996 L18.3986662,0.514666654 L14.4626663,0.514666654 L8.89466644,16.9279996 L3.9999999,16.7359996 L3.9999999,0.514666654 L0.255999994,0.514666654 L0.255999994,35.1653325 Z" id="path54" fill="#8A7965" fill-rule="nonzero"></path>
                                </g>
                                <g id="g56" stroke-width="1" fill="none" fill-rule="evenodd" transform="translate(293.141859, 14.781866)">
                                    <polygon id="path58" fill="#8A7965" fill-rule="nonzero" points="5.3333332 34.6666658 11.2839997 19.5013328 17.0439996 34.6666658 21.0759995 34.6666658 13.1079997 14.7026663 13.1079997 0.0159999996 9.36399977 0.0159999996 9.36399977 14.7026663 1.30266663 34.6666658"></polygon>
                                </g>
                            </g>
                        </g>
                    </g>
                </g>
            </g>
        </g>
    </g>
</svg>