<svg width="64" height="64" viewBox="0 0 64 64" version="1.1" xmlns="http://www.w3.org/2000/svg" xmlns:xlink="http://www.w3.org/1999/xlink" xmlns:figma="http://www.figma.com/figma/ns">
<title>googlesearch</title>
<desc>Created using Figma</desc>
<g id="Canvas" transform="translate(-1508 448)" figma:type="canvas">
<mask id="mask0_alpha" mask-type="alpha">
<path d="M 1508 -448L 1572 -448L 1572 -384L 1508 -384L 1508 -448Z" fill="#FFFFFF"/>
</mask>
<g id="googlesearch" style="mix-blend-mode:normal;" mask="url(#mask0_alpha)" figma:type="frame">
<path d="M 1508 -448L 1572 -448L 1572 -384L 1508 -384L 1508 -448Z" fill="#FFFFFF"/>
<g id="primary" style="mix-blend-mode:normal;" figma:type="vector-operation">
<use xlink:href="#path0_fill" transform="translate(1513.48 -417.072)" style="mix-blend-mode:normal;"/>
</g>
<g id="primary" style="mix-blend-mode:normal;" figma:type="vector-operation">
<use xlink:href="#path1_fill" transform="translate(1517.19 -417.072)" style="mix-blend-mode:normal;"/>
</g>
<g id="primary" style="mix-blend-mode:normal;" figma:type="vector-operation">
<use xlink:href="#path2_fill" transform="translate(1520.9 -417.072)" style="mix-blend-mode:normal;"/>
</g>
<g id="primary" style="mix-blend-mode:normal;" figma:type="vector">
<use xlink:href="#path3_fill" transform="translate(1524.64 -418.801)" style="mix-blend-mode:normal;"/>
</g>
<g id="primary" style="mix-blend-mode:normal;" figma:type="vector-operation">
<use xlink:href="#path4_fill" transform="translate(1525.69 -417.073)" style="mix-blend-mode:normal;"/>
</g>
<g id="primary" style="mix-blend-mode:normal;" figma:type="vector">
<use xlink:href="#path5_fill" transform="translate(1508 -419)" style="mix-blend-mode:normal;"/>
</g>
<g id="accent" style="mix-blend-mode:normal;" figma:type="vector-operation">
<use xlink:href="#path6_fill" transform="translate(1532.11 -417.459)" style="mix-blend-mode:normal;"/>
<use xlink:href="#path7_stroke" transform="translate(1532.11 -417.459)" style="mix-blend-mode:normal;"/>
</g>
<g id="accent" style="mix-blend-mode:normal;" figma:type="vector-operation">
<use xlink:href="#path8_fill" transform="translate(1565.83 -419)" style="mix-blend-mode:normal;"/>
</g>
</g>
</g>
<defs>
<path id="path0_fill" fill-rule="evenodd" d="M 1.7207 3.48691C 2.66882 3.48691 3.44141 2.74725 3.44141 1.74347C 3.44141 0.732605 2.66882 0 1.7207 0C 0.772583 0 0 0.732605 0 1.74347C 0 2.74725 0.772583 3.48691 1.7207 3.48691ZM 1.7207 0.687012C 2.24048 0.687012 2.68823 1.11618 2.68823 1.74347C 2.68823 2.36365 2.24048 2.79993 1.7207 2.79993C 1.20105 2.79993 0.753296 2.36444 0.753296 1.74347C 0.753296 1.11618 1.20105 0.687012 1.7207 0.687012Z"/>
<path id="path1_fill" fill-rule="evenodd" d="M 1.7207 3.48691C 2.66882 3.48691 3.44141 2.74725 3.44141 1.74347C 3.44141 0.732605 2.66882 0 1.7207 0C 0.772583 0 0 0.733368 0 1.74347C 0 2.74725 0.772583 3.48691 1.7207 3.48691ZM 1.7207 0.687012C 2.24048 0.687012 2.68823 1.11618 2.68823 1.74347C 2.68823 2.36365 2.24048 2.79993 1.7207 2.79993C 1.20105 2.79993 0.753296 2.36444 0.753296 1.74347C 0.753296 1.11618 1.20105 0.687012 1.7207 0.687012Z"/>
<path id="path2_fill" fill-rule="evenodd" d="M 3.28821 3.23538L 3.28821 0.105316L 2.57288 0.10611L 2.57288 0.389862L 2.54663 0.389862C 2.3772 0.184723 2.05237 0 1.64331 0C 0.785645 0 0 0.765594 0 1.74976C 0 2.72681 0.785645 3.48615 1.64331 3.48615C 2.05322 3.48615 2.37805 3.30142 2.54663 3.08997L 2.57288 3.08997L 2.57288 3.34073C 2.57288 4.00809 2.22253 4.36258 1.65723 4.36258C 1.19629 4.36258 0.910156 4.02771 0.793457 3.74396L 0.137573 4.02142C 0.326294 4.48364 0.82666 5.0488 1.65808 5.0488C 2.54114 5.0488 3.28821 4.52295 3.28821 3.23538ZM 1.71057 0.687012C 2.22339 0.687012 2.62622 1.13583 2.62622 1.74976C 2.62622 2.35736 2.22339 2.79993 1.71057 2.79993C 1.19092 2.79993 0.755493 2.35736 0.755493 1.74976C 0.755493 1.13583 1.19092 0.687012 1.71057 0.687012Z"/>
<path id="path3_fill" fill-rule="evenodd" d="M 0.734675 0L 0.734675 5.10934L 0 5.10934L 0 0L 0.734675 0Z"/>
<path id="path4_fill" fill-rule="evenodd" d="M 3.13135 2.71423L 2.54663 2.31805C 2.35181 2.60892 2.08582 2.80069 1.70215 2.80069C 1.31934 2.80069 1.04639 2.62228 0.87085 2.27249L 3.16382 1.30719L 3.08569 1.10913C 2.94336 0.720032 2.50806 0 1.61792 0C 0.734009 0 0 0.706665 0 1.74347C 0 2.72131 0.727783 3.48694 1.70215 3.48694C 2.48792 3.48694 2.94263 2.99802 3.13135 2.71423ZM 2.27991 1.04388L 0.74707 1.6908C 0.727783 1.01794 1.26062 0.674438 1.64343 0.674438C 1.94189 0.674438 2.19556 0.826141 2.27991 1.04388Z"/>
<path id="path5_fill" fill-rule="evenodd" d="M 2.70128 3.2181L 2.70128 2.47842L 5.15355 2.47842C 5.17753 2.60733 5.1899 2.75983 5.1899 2.9249C 5.1899 3.47985 5.04065 4.16608 4.55963 4.655C 4.09175 5.15021 3.49396 5.41433 2.70206 5.41433C 1.23425 5.41433 0 4.19909 0 2.70716C 0 1.21524 1.23425 0 2.70206 0C 3.51407 0 4.09253 0.323853 4.52715 0.745963L 4.01365 1.2679C 3.70199 0.970774 3.27974 0.739675 2.70128 0.739675C 1.62943 0.739675 0.791129 1.61769 0.791129 2.70716C 0.791129 3.79663 1.62943 4.67465 2.70128 4.67465C 3.39652 4.67465 3.79247 4.39089 4.04613 4.13306C 4.25184 3.92397 4.38717 3.62527 4.44053 3.21731L 2.70128 3.2181Z"/>
<path id="path6_fill" fill-rule="evenodd" d="M 2.08085 2.30049C 1.98088 2.70378 1.78544 3.08873 1.28117 3.08873C 0.736006 3.08873 0.363447 2.65794 0.363447 1.70018C 0.363447 0.751572 0.736006 0.31163 1.20854 0.31163C 1.69914 0.31163 1.90812 0.595749 2.02629 1.06319L 2.36247 0.962357C 2.21708 0.357437 1.86271 -1.52588e-05 1.25395 -1.52588e-05C 0.463423 -1.52588e-05 4.3869e-05 0.623245 4.3869e-05 1.70018C 4.3869e-05 2.85957 0.517988 3.40034 1.25395 3.40034C 1.92631 3.40034 2.2625 2.97874 2.40788 2.36467L 2.08085 2.30049ZM 4.70683 3.35451L 4.70683 0.971512L 4.37968 0.971512L 4.37968 2.7542C 4.22978 2.91457 3.94804 3.11623 3.70268 3.11623C 3.46647 3.11623 3.31657 3.01082 3.31657 2.6946L 3.31657 0.971512L 2.98942 0.971512L 2.98942 2.70378C 2.98942 3.21703 3.32109 3.40034 3.67094 3.40034C 3.93901 3.40034 4.18437 3.24452 4.37053 3.03374L 4.37968 3.03374L 4.37968 3.35451L 4.70683 3.35451ZM 6.16521 3.40034C 5.79716 3.40034 5.43828 3.23994 5.22014 2.94664L 5.47917 2.74959C 5.63359 2.97414 5.86076 3.11623 6.15605 3.11623C 6.51042 3.11623 6.66496 2.92375 6.66496 2.72209C 6.66496 2.4478 6.37724 2.36385 6.06523 2.27281C 5.68913 2.16313 5.278 2.04314 5.29289 1.56728C 5.30644 1.15483 5.61992 0.921127 6.07426 0.925705C 6.38322 0.930283 6.72392 1.09984 6.88298 1.34273L 6.65581 1.54436C 6.47404 1.31981 6.30144 1.20982 6.04704 1.20982C 5.76994 1.20982 5.61992 1.35188 5.61992 1.5627C 5.61992 1.78685 5.877 1.86415 6.16862 1.95186C 6.55058 2.06679 6.99199 2.19957 6.99199 2.70378C 6.99199 3.16661 6.59221 3.40034 6.16521 3.40034ZM 7.21013 0.971512L 7.21013 1.25566L 7.59624 1.25566L 7.59624 3.00624C 7.59624 3.3087 7.74626 3.40034 8.10063 3.40034C 8.29143 3.40034 8.42314 3.382 8.48222 3.36366L 8.48222 3.09331C 8.39592 3.10704 8.30046 3.11623 8.19145 3.11623C 8.00065 3.11623 7.92338 3.06123 7.92338 2.95125L 7.92338 1.25566L 8.46855 1.25566L 8.46855 0.971512L 7.92338 0.971512L 7.92338 0.187881L 7.59624 0.187881L 7.59624 0.971512L 7.21013 0.971512ZM 9.77702 3.11623C 10.1678 3.11623 10.4176 2.77708 10.4176 2.16301C 10.4176 1.54893 10.1678 1.20982 9.77702 1.20982C 9.38627 1.20982 9.1364 1.54893 9.1364 2.16301C 9.1364 2.77708 9.38627 3.11623 9.77702 3.11623ZM 10.7448 2.16301C 10.7448 1.47563 10.4222 0.925705 9.77702 0.925705C 9.13188 0.925705 8.80937 1.47563 8.80937 2.16301C 8.80937 2.85042 9.13188 3.40034 9.77702 3.40034C 10.4222 3.40034 10.7448 2.85042 10.7448 2.16301ZM 11.6125 1.57643L 11.6125 3.35451L 11.2853 3.35451L 11.2853 0.971512L 11.6125 0.971512L 11.6125 1.28773L 11.6307 1.26939C 11.8306 1.04485 12.0895 0.925705 12.3167 0.925705C 12.6211 0.925705 12.8346 1.0815 12.9209 1.30147C 13.1299 1.07692 13.3935 0.925705 13.6706 0.925705C 13.9841 0.925705 14.3202 1.05861 14.3202 1.64977L 14.3202 3.35451L 13.9931 3.35451L 13.9931 1.64977C 13.9931 1.32896 13.8342 1.20982 13.6252 1.20982C 13.3393 1.20982 13.1501 1.39583 12.9754 1.56755L 12.9664 1.57643L 12.9664 3.35451L 12.6392 3.35451L 12.6392 1.64977C 12.6392 1.32896 12.4803 1.20982 12.2713 1.20982C 11.9854 1.20982 11.7962 1.39583 11.6215 1.56755L 11.6125 1.57643ZM 18.4455 0.81572C 18.2729 0.27037 17.8731 -1.52588e-05 17.3642 -1.52588e-05C 16.7736 -1.52588e-05 16.3783 0.375778 16.3783 0.852371C 16.3783 1.40279 16.8902 1.59459 17.3747 1.77611C 17.8099 1.93916 18.2229 2.09395 18.2229 2.49297C 18.2229 2.83208 17.9821 3.08873 17.5005 3.08873C 17.019 3.08873 16.7736 2.76793 16.6419 2.41966L 16.3102 2.5388C 16.4828 2.93291 16.7646 3.40034 17.4823 3.40034C 18.3183 3.40034 18.5863 2.90999 18.5863 2.42882C 18.5863 1.84694 18.0312 1.63844 17.53 1.45021C 17.1153 1.29451 16.7376 1.15266 16.7417 0.824875C 16.7464 0.494919 16.9736 0.31163 17.3551 0.31163C 17.7776 0.31163 18.0367 0.568253 18.1185 0.889023L 18.4455 0.81572ZM 20.0674 3.11623C 20.3582 3.11623 20.5854 2.9604 20.7217 2.71294L 20.9761 2.84584C 20.8216 3.11623 20.6036 3.40034 20.0674 3.40034C 19.5404 3.40034 19.0407 3.03374 19.0407 2.16301C 19.0407 1.39314 19.4223 0.925705 20.0038 0.925705C 20.4946 0.925705 20.9034 1.24648 20.9034 2.00722L 20.9034 2.22719L 19.3678 2.22719C 19.3678 2.74959 19.6767 3.11623 20.0674 3.11623ZM 19.3769 1.94304C 19.4041 1.50313 19.6177 1.20982 20.013 1.20982C 20.3674 1.20982 20.5763 1.50313 20.5763 1.94304L 19.3769 1.94304ZM 22.28 1.20982C 21.9165 1.20982 21.7393 1.42064 21.6757 1.58101L 21.3896 1.42979C 21.5395 1.15483 21.8302 0.925705 22.2754 0.925705C 22.6752 0.925705 23.0932 1.11818 23.0932 1.64061L 23.0932 2.84126C 23.0932 3.10246 23.116 3.23079 23.1477 3.35451L 22.8116 3.35451L 22.7752 3.02455C 22.6116 3.20787 22.3482 3.40034 21.9938 3.40034C 21.6303 3.40034 21.3213 3.18037 21.3213 2.74501C 21.3213 2.22258 21.7166 1.96138 22.7662 1.77348L 22.7662 1.64519C 22.7662 1.32896 22.5617 1.20982 22.28 1.20982ZM 22.7662 2.72209C 22.5754 2.94206 22.2754 3.11623 22.0392 3.11623C 21.8575 3.11623 21.6485 2.96956 21.6485 2.74959C 21.6485 2.41966 22.0165 2.19969 22.7662 2.06679L 22.7662 2.72209ZM 24.0473 3.35451L 23.7203 3.35451L 23.7203 0.971512L 24.0473 0.971512L 24.0473 1.44353L 24.0564 1.44353C 24.2381 1.11818 24.4335 0.93486 24.8243 0.93486L 24.8243 1.26482C 24.4153 1.27397 24.2018 1.54436 24.0473 2.03471L 24.0473 3.35451ZM 26.9278 1.57185C 26.7778 1.20067 26.5506 0.925705 26.0645 0.925705C 25.4739 0.925705 25.0968 1.39314 25.0968 2.16301C 25.0968 2.93291 25.4739 3.40034 26.0645 3.40034C 26.5325 3.40034 26.7415 3.19872 26.9777 2.79543L 26.7142 2.67628C 26.5325 3.0154 26.3643 3.11623 26.0645 3.11623C 25.6602 3.11623 25.4239 2.76793 25.4239 2.16301C 25.4239 1.55812 25.6602 1.20982 26.0645 1.20982C 26.3462 1.20982 26.5325 1.39314 26.6233 1.68184L 26.9278 1.57185ZM 27.9181 3.35451L 27.591 3.35451L 27.591 0.0458221L 27.9181 0.0458221L 27.9181 1.29231L 27.9273 1.29231C 28.1134 1.0815 28.3588 0.925705 28.6269 0.925705C 28.9767 0.925705 29.3084 1.10899 29.3084 1.62227L 29.3084 3.35451L 28.9812 3.35451L 28.9812 1.63142C 28.9812 1.31523 28.8313 1.20982 28.5951 1.20982C 28.3498 1.20982 28.068 1.41145 27.9181 1.57185L 27.9181 3.35451Z"/>
<path id="path7_stroke" d="M 2.08085 2.30049L 2.10011 2.20236L 2.0067 2.18403L 1.98379 2.27643L 2.08085 2.30049ZM 2.02629 1.06319L 1.92934 1.08769L 1.95494 1.18899L 2.05502 1.15897L 2.02629 1.06319ZM 2.36247 0.962357L 2.3912 1.05814L 2.48181 1.03097L 2.4597 0.938988L 2.36247 0.962357ZM 2.40788 2.36467L 2.50519 2.38771L 2.52914 2.28656L 2.42714 2.26654L 2.40788 2.36467ZM 4.70683 0.971512L 4.80683 0.971512L 4.80683 0.871512L 4.70683 0.871512L 4.70683 0.971512ZM 4.70683 3.35451L 4.70683 3.45451L 4.80683 3.45451L 4.80683 3.35451L 4.70683 3.35451ZM 4.37968 0.971512L 4.37968 0.871512L 4.27968 0.871512L 4.27968 0.971512L 4.37968 0.971512ZM 4.37968 2.7542L 4.45274 2.82248L 4.47968 2.79366L 4.47968 2.7542L 4.37968 2.7542ZM 3.31657 0.971512L 3.41657 0.971512L 3.41657 0.871512L 3.31657 0.871512L 3.31657 0.971512ZM 2.98942 0.971512L 2.98942 0.871512L 2.88942 0.871512L 2.88942 0.971512L 2.98942 0.971512ZM 4.37053 3.03374L 4.37053 2.93374L 4.32543 2.93374L 4.29557 2.96754L 4.37053 3.03374ZM 4.37968 3.03374L 4.47968 3.03374L 4.47968 2.93374L 4.37968 2.93374L 4.37968 3.03374ZM 4.37968 3.35451L 4.27968 3.35451L 4.27968 3.45451L 4.37968 3.45451L 4.37968 3.35451ZM 5.22014 2.94664L 5.15959 2.86705L 5.08086 2.92694L 5.1399 3.00632L 5.22014 2.94664ZM 5.47917 2.74959L 5.56157 2.69292L 5.50212 2.60648L 5.41863 2.67L 5.47917 2.74959ZM 6.06523 2.27281L 6.09324 2.17681L 6.09323 2.17681L 6.06523 2.27281ZM 5.29289 1.56728L 5.19294 1.56399L 5.19294 1.56415L 5.29289 1.56728ZM 6.07426 0.925705L 6.07574 0.825715L 6.07527 0.82571L 6.07426 0.925705ZM 6.88298 1.34273L 6.94936 1.41752L 7.01395 1.36019L 6.96664 1.28794L 6.88298 1.34273ZM 6.65581 1.54436L 6.57808 1.60727L 6.64392 1.68861L 6.72219 1.61915L 6.65581 1.54436ZM 6.16862 1.95186L 6.19744 1.8561L 6.19742 1.8561L 6.16862 1.95186ZM 7.21013 1.25566L 7.11013 1.25566L 7.11013 1.35566L 7.21013 1.35566L 7.21013 1.25566ZM 7.21013 0.971512L 7.21013 0.871512L 7.11013 0.871512L 7.11013 0.971512L 7.21013 0.971512ZM 7.59624 1.25566L 7.69624 1.25566L 7.69624 1.15566L 7.59624 1.15566L 7.59624 1.25566ZM 8.48222 3.36366L 8.51187 3.45917L 8.58222 3.43733L 8.58222 3.36366L 8.48222 3.36366ZM 8.48222 3.09331L 8.58222 3.09331L 8.58222 2.97614L 8.46651 2.99455L 8.48222 3.09331ZM 7.92338 1.25566L 7.92338 1.15566L 7.82338 1.15566L 7.82338 1.25566L 7.92338 1.25566ZM 8.46855 1.25566L 8.46855 1.35566L 8.56855 1.35566L 8.56855 1.25566L 8.46855 1.25566ZM 8.46855 0.971512L 8.56855 0.971512L 8.56855 0.871512L 8.46855 0.871512L 8.46855 0.971512ZM 7.92338 0.971512L 7.82338 0.971512L 7.82338 1.07151L 7.92338 1.07151L 7.92338 0.971512ZM 7.92338 0.187881L 8.02338 0.187881L 8.02338 0.0878815L 7.92338 0.0878815L 7.92338 0.187881ZM 7.59624 0.187881L 7.59624 0.0878815L 7.49624 0.0878815L 7.49624 0.187881L 7.59624 0.187881ZM 7.59624 0.971512L 7.59624 1.07151L 7.69624 1.07151L 7.69624 0.971512L 7.59624 0.971512ZM 11.6125 3.35451L 11.6125 3.45451L 11.7125 3.45451L 11.7125 3.35451L 11.6125 3.35451ZM 11.6125 1.57643L 11.5424 1.50512L 11.5125 1.53451L 11.5125 1.57643L 11.6125 1.57643ZM 11.2853 3.35451L 11.1853 3.35451L 11.1853 3.45451L 11.2853 3.45451L 11.2853 3.35451ZM 11.2853 0.971512L 11.2853 0.871512L 11.1853 0.871512L 11.1853 0.971512L 11.2853 0.971512ZM 11.6125 0.971512L 11.7125 0.971512L 11.7125 0.871512L 11.6125 0.871512L 11.6125 0.971512ZM 11.6125 1.28773L 11.5125 1.28773L 11.5125 1.53059L 11.6835 1.35815L 11.6125 1.28773ZM 11.6307 1.26939L 11.7018 1.33991L 11.7053 1.3359L 11.6307 1.26939ZM 12.9209 1.30147L 12.8279 1.33799L 12.8859 1.48592L 12.9941 1.3696L 12.9209 1.30147ZM 14.3202 3.35451L 14.3202 3.45451L 14.4202 3.45451L 14.4202 3.35451L 14.3202 3.35451ZM 13.9931 3.35451L 13.8931 3.35451L 13.8931 3.45451L 13.9931 3.45451L 13.9931 3.35451ZM 12.9754 1.56755L 12.9053 1.49624L 12.9053 1.49624L 12.9754 1.56755ZM 12.9664 1.57643L 12.8962 1.50512L 12.8664 1.53451L 12.8664 1.57643L 12.9664 1.57643ZM 12.9664 3.35451L 12.9664 3.45451L 13.0664 3.45451L 13.0664 3.35451L 12.9664 3.35451ZM 12.6392 3.35451L 12.5392 3.35451L 12.5392 3.45451L 12.6392 3.45451L 12.6392 3.35451ZM 11.6215 1.56755L 11.5514 1.49624L 11.5514 1.49624L 11.6215 1.56755ZM 18.4455 0.81572L 18.4674 0.913298L 18.5737 0.889459L 18.5408 0.785544L 18.4455 0.81572ZM 17.3747 1.77611L 17.4098 1.68247L 17.4098 1.68246L 17.3747 1.77611ZM 16.6419 2.41966L 16.7354 2.38429L 16.7006 2.2923L 16.6081 2.32555L 16.6419 2.41966ZM 16.3102 2.5388L 16.2764 2.44469L 16.1757 2.48088L 16.2186 2.57892L 16.3102 2.5388ZM 17.53 1.45021L 17.5651 1.35659L 17.5651 1.35659L 17.53 1.45021ZM 16.7417 0.824875L 16.6418 0.823469L 16.6418 0.823609L 16.7417 0.824875ZM 18.1185 0.889023L 18.0216 0.913729L 18.0455 1.00785L 18.1403 0.986602L 18.1185 0.889023ZM 20.7217 2.71294L 20.768 2.6243L 20.6813 2.57901L 20.6341 2.66468L 20.7217 2.71294ZM 20.9761 2.84584L 21.0629 2.89546L 21.1145 2.8053L 21.0224 2.75721L 20.9761 2.84584ZM 20.9034 2.22719L 20.9034 2.32719L 21.0034 2.32719L 21.0034 2.22719L 20.9034 2.22719ZM 19.3678 2.22719L 19.3678 2.12719L 19.2678 2.12719L 19.2678 2.22719L 19.3678 2.22719ZM 19.3769 1.94304L 19.2771 1.93686L 19.2705 2.04304L 19.3769 2.04304L 19.3769 1.94304ZM 20.5763 1.94304L 20.5763 2.04304L 20.6763 2.04304L 20.6763 1.94304L 20.5763 1.94304ZM 21.6757 1.58101L 21.629 1.66942L 21.7276 1.72152L 21.7687 1.61787L 21.6757 1.58101ZM 21.3896 1.42979L 21.3018 1.38193L 21.2533 1.47087L 21.3428 1.51821L 21.3896 1.42979ZM 23.1477 3.35451L 23.1477 3.45451L 23.2766 3.45451L 23.2446 3.32966L 23.1477 3.35451ZM 22.8116 3.35451L 22.7122 3.36547L 22.722 3.45451L 22.8116 3.45451L 22.8116 3.35451ZM 22.7752 3.02455L 22.8746 3.01359L 22.85 2.79052L 22.7006 2.95797L 22.7752 3.02455ZM 22.7662 1.77348L 22.7838 1.87192L 22.8662 1.85717L 22.8662 1.77348L 22.7662 1.77348ZM 22.7662 2.72209L 22.8417 2.78762L 22.8662 2.75942L 22.8662 2.72209L 22.7662 2.72209ZM 22.7662 2.06679L 22.8662 2.06679L 22.8662 1.9475L 22.7487 1.96832L 22.7662 2.06679ZM 23.7203 3.35451L 23.6203 3.35451L 23.6203 3.45451L 23.7203 3.45451L 23.7203 3.35451ZM 24.0473 3.35451L 24.0473 3.45451L 24.1473 3.45451L 24.1473 3.35451L 24.0473 3.35451ZM 23.7203 0.971512L 23.7203 0.871512L 23.6203 0.871512L 23.6203 0.971512L 23.7203 0.971512ZM 24.0473 0.971512L 24.1473 0.971512L 24.1473 0.871512L 24.0473 0.871512L 24.0473 0.971512ZM 24.0473 1.44353L 23.9473 1.44353L 23.9473 1.54353L 24.0473 1.54353L 24.0473 1.44353ZM 24.0564 1.44353L 24.0564 1.54353L 24.1151 1.54353L 24.1438 1.49227L 24.0564 1.44353ZM 24.8243 0.93486L 24.9243 0.93486L 24.9243 0.83486L 24.8243 0.83486L 24.8243 0.93486ZM 24.8243 1.26482L 24.8265 1.36479L 24.9243 1.3626L 24.9243 1.26482L 24.8243 1.26482ZM 24.0473 2.03471L 23.9519 2.00466L 23.9473 2.01933L 23.9473 2.03471L 24.0473 2.03471ZM 26.9278 1.57185L 26.9618 1.6659L 27.0594 1.63063L 27.0205 1.53438L 26.9278 1.57185ZM 26.9777 2.79543L 27.064 2.84596L 27.1202 2.75008L 27.0189 2.7043L 26.9777 2.79543ZM 26.7142 2.67628L 26.7553 2.58516L 26.6702 2.54665L 26.626 2.62907L 26.7142 2.67628ZM 26.6233 1.68184L 26.5279 1.71185L 26.5592 1.81132L 26.6573 1.77589L 26.6233 1.68184ZM 27.591 3.35451L 27.491 3.35451L 27.491 3.45451L 27.591 3.45451L 27.591 3.35451ZM 27.9181 3.35451L 27.9181 3.45451L 28.0181 3.45451L 28.0181 3.35451L 27.9181 3.35451ZM 27.591 0.0458221L 27.591 -0.0541779L 27.491 -0.0541779L 27.491 0.0458221L 27.591 0.0458221ZM 27.9181 0.0458221L 28.0181 0.0458221L 28.0181 -0.0541779L 27.9181 -0.0541779L 27.9181 0.0458221ZM 27.9181 1.29231L 27.8181 1.29231L 27.8181 1.39231L 27.9181 1.39231L 27.9181 1.29231ZM 27.9273 1.29231L 27.9273 1.39231L 27.9724 1.39231L 28.0022 1.3585L 27.9273 1.29231ZM 29.3084 3.35451L 29.3084 3.45451L 29.4084 3.45451L 29.4084 3.35451L 29.3084 3.35451ZM 28.9812 3.35451L 28.8812 3.35451L 28.8812 3.45451L 28.9812 3.45451L 28.9812 3.35451ZM 27.9181 1.57185L 27.8451 1.50357L 27.8181 1.5324L 27.8181 1.57185L 27.9181 1.57185ZM 1.28117 3.18873C 1.56314 3.18873 1.76579 3.07923 1.90889 2.91053C 2.04324 2.74984 2.12638 2.53176 2.17792 2.32455L 1.98379 2.27643C 1.93536 2.47251 1.87078 2.64856 1.75636 2.78116C 1.65068 2.90576 1.50348 2.98873 1.28117 2.98873L 1.28117 3.18873ZM 0.263447 1.70018C 0.263447 2.18974 0.358293 2.56047 0.536303 2.81147C 0.71775 3.06731 0.978691 3.18873 1.28117 3.18873L 1.28117 2.98873C 1.03849 2.98873 0.840565 2.89476 0.699441 2.69577C 0.55488 2.49193 0.463447 2.16838 0.463447 1.70018L 0.263447 1.70018ZM 1.20854 0.21163C 0.936799 0.21163 0.69516 0.340068 0.52556 0.594749C 0.358495 0.845623 0.263447 1.21468 0.263447 1.70018L 0.463447 1.70018C 0.463447 1.23707 0.554678 0.911854 0.692026 0.705605C 0.826839 0.503163 1.00775 0.41163 1.20854 0.41163L 1.20854 0.21163ZM 2.12324 1.03868C 2.06248 0.798341 1.97503 0.589929 1.82809 0.441716C 1.67749 0.289799 1.47512 0.21163 1.20854 0.21163L 1.20854 0.41163C 1.43256 0.41163 1.57998 0.47552 1.68606 0.582523C 1.79581 0.693228 1.87193 0.860595 1.92934 1.08769L 2.12324 1.03868ZM 2.33374 0.866572L 1.99756 0.967402L 2.05502 1.15897L 2.3912 1.05814L 2.33374 0.866572ZM 1.25395 0.0999847C 1.53744 0.0999847 1.75318 0.182585 1.91499 0.328574C 2.07839 0.475991 2.19562 0.696064 2.26524 0.985725L 2.4597 0.938988C 2.38393 0.623729 2.25129 0.362617 2.04896 0.180078C 1.84506 -0.00388906 1.57922 -0.100015 1.25395 -0.100015L 1.25395 0.0999847ZM 0.100044 1.70018C 0.100044 1.17419 0.213465 0.772888 0.410968 0.50567C 0.605535 0.242424 0.888266 0.0999847 1.25395 0.0999847L 1.25395 -0.100015C 0.829107 -0.100015 0.484885 0.0691756 0.250131 0.386794C 0.0183127 0.70044 -0.0999561 1.14924 -0.0999561 1.70018L 0.100044 1.70018ZM 1.25395 3.30034C 0.912609 3.30034 0.629653 3.17621 0.429454 2.92301C 0.226774 2.66667 0.100044 2.26666 0.100044 1.70018L -0.0999561 1.70018C -0.0999561 2.29309 0.0322861 2.74316 0.272569 3.04706C 0.515332 3.35409 0.85933 3.50034 1.25395 3.50034L 1.25395 3.30034ZM 2.31057 2.34163C 2.24036 2.6382 2.1265 2.87711 1.95861 3.04129C 1.7932 3.20306 1.56719 3.30034 1.25395 3.30034L 1.25395 3.50034C 1.61308 3.50034 1.89134 3.38683 2.09845 3.18428C 2.30309 2.98415 2.43002 2.70522 2.50519 2.38771L 2.31057 2.34163ZM 2.0616 2.39862L 2.38862 2.4628L 2.42714 2.26654L 2.10011 2.20236L 2.0616 2.39862ZM 4.60683 0.971512L 4.60683 3.35451L 4.80683 3.35451L 4.80683 0.971512L 4.60683 0.971512ZM 4.37968 1.07151L 4.70683 1.07151L 4.70683 0.871512L 4.37968 0.871512L 4.37968 1.07151ZM 4.47968 2.7542L 4.47968 0.971512L 4.27968 0.971512L 4.27968 2.7542L 4.47968 2.7542ZM 3.70268 3.21623C 3.85062 3.21623 4.00048 3.15633 4.12766 3.08155C 4.25449 3.00658 4.37352 2.90697 4.45274 2.82248L 4.30663 2.68591C 4.23595 2.7618 4.13915 2.84319 4.0263 2.90915C 3.9138 2.97529 3.8001 3.01623 3.70268 3.01623L 3.70268 3.21623ZM 3.21657 2.6946C 3.21657 2.86663 3.25725 3.00318 3.35094 3.0953C 3.44443 3.18722 3.57178 3.21623 3.70268 3.21623L 3.70268 3.01623C 3.59737 3.01623 3.53168 2.99253 3.49116 2.95269C 3.45084 2.91305 3.41657 2.83878 3.41657 2.6946L 3.21657 2.6946ZM 3.21657 0.971512L 3.21657 2.6946L 3.41657 2.6946L 3.41657 0.971512L 3.21657 0.971512ZM 2.98942 1.07151L 3.31657 1.07151L 3.31657 0.871512L 2.98942 0.871512L 2.98942 1.07151ZM 3.08942 2.70378L 3.08942 0.971512L 2.88942 0.971512L 2.88942 2.70378L 3.08942 2.70378ZM 3.67094 3.30034C 3.51197 3.30034 3.36769 3.25859 3.26456 3.16903C 3.16396 3.08166 3.08942 2.93747 3.08942 2.70378L 2.88942 2.70378C 2.88942 2.98333 2.98072 3.18742 3.13342 3.32003C 3.28358 3.45044 3.48006 3.50034 3.67094 3.50034L 3.67094 3.30034ZM 4.29557 2.96754C 4.11982 3.16655 3.89952 3.30034 3.67094 3.30034L 3.67094 3.50034C 3.9785 3.50034 4.24892 3.3225 4.44548 3.09993L 4.29557 2.96754ZM 4.37968 2.93374L 4.37053 2.93374L 4.37053 3.13374L 4.37968 3.13374L 4.37968 2.93374ZM 4.47968 3.35451L 4.47968 3.03374L 4.27968 3.03374L 4.27968 3.35451L 4.47968 3.35451ZM 4.70683 3.25451L 4.37968 3.25451L 4.37968 3.45451L 4.70683 3.45451L 4.70683 3.25451ZM 5.1399 3.00632C 5.37912 3.32797 5.76945 3.50034 6.16521 3.50034L 6.16521 3.30034C 5.82488 3.30034 5.49743 3.15192 5.30038 2.88696L 5.1399 3.00632ZM 5.41863 2.67L 5.15959 2.86705L 5.28068 3.02623L 5.53971 2.82918L 5.41863 2.67ZM 6.15605 3.01623C 5.89784 3.01623 5.69982 2.89396 5.56157 2.69292L 5.39677 2.80625C 5.56736 3.05431 5.82368 3.21623 6.15605 3.21623L 6.15605 3.01623ZM 6.56496 2.72209C 6.56496 2.79665 6.5369 2.86704 6.47716 2.91987C 6.4169 2.97314 6.31542 3.01623 6.15605 3.01623L 6.15605 3.21623C 6.35105 3.21623 6.50403 3.16307 6.60963 3.0697C 6.71575 2.97587 6.76496 2.8492 6.76496 2.72209L 6.56496 2.72209ZM 6.03722 2.36881C 6.19323 2.41433 6.33108 2.45369 6.4306 2.51445C 6.52152 2.56908 6.56496 2.6304 6.56496 2.72209L 6.76496 2.72209C 6.76496 2.53949 6.66454 2.42169 6.5336 2.34301C 6.41126 2.27046 6.24924 2.22233 6.09324 2.17681L 6.03722 2.36881ZM 5.19294 1.56415C 5.18433 1.83913 5.30237 2.0188 5.47523 2.13938C 5.63923 2.25378 5.85331 2.31518 6.03723 2.36881L 6.09323 2.17681C 5.90105 2.12077 5.72152 2.06733 5.58965 1.97534C 5.46664 1.88954 5.38655 1.77128 5.39284 1.5704L 5.19294 1.56415ZM 6.07527 0.82571C 5.83167 0.823256 5.61525 0.884553 5.45583 1.012C 5.29429 1.14114 5.2006 1.33099 5.19294 1.56399L 5.39284 1.57056C 5.39873 1.39112 5.46855 1.25789 5.58072 1.16821C 5.69502 1.07684 5.86251 1.02358 6.07326 1.0257L 6.07527 0.82571ZM 6.96664 1.28794C 6.7869 1.01347 6.41308 0.830714 6.07574 0.825716L 6.07278 1.02569C 6.35336 1.02985 6.66094 1.1862 6.79932 1.39751L 6.96664 1.28794ZM 6.72219 1.61915L 6.94936 1.41752L 6.8166 1.26794L 6.58942 1.46957L 6.72219 1.61915ZM 6.04704 1.30982C 6.26142 1.30982 6.4081 1.39729 6.57808 1.60727L 6.73353 1.48144C 6.53998 1.24233 6.34145 1.10982 6.04704 1.10982L 6.04704 1.30982ZM 5.71992 1.5627C 5.71992 1.48248 5.74753 1.42353 5.79466 1.38312C 5.84357 1.34118 5.92464 1.30982 6.04704 1.30982L 6.04704 1.10982C 5.89234 1.10982 5.75985 1.1495 5.66447 1.23129C 5.56731 1.31461 5.51992 1.4321 5.51992 1.5627L 5.71992 1.5627ZM 6.19742 1.8561C 6.05161 1.81224 5.92535 1.77498 5.83501 1.7219C 5.75118 1.67337 5.71992 1.62544 5.71992 1.5627L 5.51992 1.5627C 5.51992 1.72411 5.61719 1.8269 5.73481 1.89499C 5.84592 1.95853 5.99401 2.00377 6.13982 2.04762L 6.19742 1.8561ZM 7.09199 2.70378C 7.09199 2.41504 6.96225 2.22678 6.78086 2.0999C 6.60906 1.98126 6.38841 1.91356 6.19744 1.8561L 6.13981 2.04762C 6.33079 2.10508 6.52183 2.16124 6.66622 2.26378C 6.80102 2.35807 6.89199 2.48831 6.89199 2.70378L 7.09199 2.70378ZM 6.16521 3.50034C 6.39549 3.50034 6.62482 3.43752 6.79915 3.3053C 6.97636 3.17089 7.09199 2.96776 7.09199 2.70378L 6.89199 2.70378C 6.89199 2.90263 6.80772 3.04778 6.67829 3.14595C 6.54598 3.2463 6.36192 3.30034 6.16521 3.30034L 6.16521 3.50034ZM 7.31013 1.25566L 7.31013 0.971512L 7.11013 0.971512L 7.11013 1.25566L 7.31013 1.25566ZM 7.59624 1.15566L 7.21013 1.15566L 7.21013 1.35566L 7.59624 1.35566L 7.59624 1.15566ZM 7.69624 3.00624L 7.69624 1.25566L 7.49624 1.25566L 7.49624 3.00624L 7.69624 3.00624ZM 8.10063 3.30034C 7.92622 3.30034 7.82911 3.27648 7.77515 3.23642C 7.72953 3.20256 7.69624 3.1422 7.69624 3.00624L 7.49624 3.00624C 7.49624 3.17274 7.53795 3.30943 7.65594 3.39701C 7.76558 3.47839 7.92067 3.50034 8.10063 3.50034L 8.10063 3.30034ZM 8.45257 3.26816C 8.40791 3.28202 8.28812 3.30034 8.10063 3.30034L 8.10063 3.50034C 8.29474 3.50034 8.43837 3.48198 8.51187 3.45917L 8.45257 3.26816ZM 8.38222 3.09331L 8.38222 3.36366L 8.58222 3.36366L 8.58222 3.09331L 8.38222 3.09331ZM 8.19145 3.21623C 8.30525 3.21611 8.40857 3.20624 8.49794 3.19207L 8.46651 2.99455C 8.38327 3.00784 8.29566 3.01634 8.19145 3.01623L 8.19145 3.21623ZM 7.82338 2.95125C 7.82338 3.03387 7.85503 3.11021 7.93214 3.15932C 7.99982 3.20243 8.09044 3.21623 8.19145 3.21623L 8.19145 3.01623C 8.10166 3.01623 8.05825 3.00253 8.03959 2.99064C 8.03037 2.98476 8.02338 2.97862 8.02338 2.95125L 7.82338 2.95125ZM 7.82338 1.25566L 7.82338 2.95125L 8.02338 2.95125L 8.02338 1.25566L 7.82338 1.25566ZM 8.46855 1.15566L 7.92338 1.15566L 7.92338 1.35566L 8.46855 1.35566L 8.46855 1.15566ZM 8.36855 0.971512L 8.36855 1.25566L 8.56855 1.25566L 8.56855 0.971512L 8.36855 0.971512ZM 7.92338 1.07151L 8.46855 1.07151L 8.46855 0.871512L 7.92338 0.871512L 7.92338 1.07151ZM 7.82338 0.187881L 7.82338 0.971512L 8.02338 0.971512L 8.02338 0.187881L 7.82338 0.187881ZM 7.59624 0.287881L 7.92338 0.287881L 7.92338 0.0878815L 7.59624 0.0878815L 7.59624 0.287881ZM 7.69624 0.971512L 7.69624 0.187881L 7.49624 0.187881L 7.49624 0.971512L 7.69624 0.971512ZM 7.21013 1.07151L 7.59624 1.07151L 7.59624 0.871512L 7.21013 0.871512L 7.21013 1.07151ZM 10.3176 2.16301C 10.3176 2.45842 10.2573 2.67422 10.1615 2.81316C 10.0687 2.94788 9.93918 3.01623 9.77702 3.01623L 9.77702 3.21623C 10.0056 3.21623 10.1964 3.115 10.3262 2.92664C 10.4531 2.74248 10.5176 2.48167 10.5176 2.16301L 10.3176 2.16301ZM 9.77702 1.30982C 9.93918 1.30982 10.0687 1.37816 10.1615 1.51288C 10.2573 1.6518 10.3176 1.8676 10.3176 2.16301L 10.5176 2.16301C 10.5176 1.84435 10.4531 1.58355 10.3262 1.3994C 10.1964 1.21104 10.0056 1.10982 9.77702 1.10982L 9.77702 1.30982ZM 9.2364 2.16301C 9.2364 1.8676 9.29679 1.6518 9.39252 1.51288C 9.48535 1.37816 9.61486 1.30982 9.77702 1.30982L 9.77702 1.10982C 9.54844 1.10982 9.35763 1.21104 9.22784 1.3994C 9.10094 1.58355 9.0364 1.84435 9.0364 2.16301L 9.2364 2.16301ZM 9.77702 3.01623C 9.61486 3.01623 9.48536 2.94788 9.39252 2.81316C 9.29679 2.67422 9.2364 2.45842 9.2364 2.16301L 9.0364 2.16301C 9.0364 2.48167 9.10094 2.74248 9.22783 2.92664C 9.35763 3.115 9.54843 3.21623 9.77702 3.21623L 9.77702 3.01623ZM 9.77702 1.0257C 10.0671 1.0257 10.279 1.14742 10.4218 1.34513C 10.5672 1.54654 10.6448 1.83327 10.6448 2.16301L 10.8448 2.16301C 10.8448 1.80537 10.7611 1.47345 10.5839 1.22805C 10.4041 0.978955 10.1321 0.825705 9.77702 0.825705L 9.77702 1.0257ZM 8.90937 2.16301C 8.90937 1.83326 8.98695 1.54653 9.13235 1.34512C 9.27507 1.14742 9.48699 1.0257 9.77702 1.0257L 9.77702 0.825705C 9.42191 0.825705 9.15001 0.978958 8.97019 1.22806C 8.79304 1.47346 8.70937 1.80538 8.70937 2.16301L 8.90937 2.16301ZM 9.77702 3.30034C 9.48699 3.30034 9.27507 3.17863 9.13235 2.98093C 8.98696 2.77951 8.90937 2.49277 8.90937 2.16301L 8.70937 2.16301C 8.70937 2.52066 8.79304 2.85258 8.97019 3.09799C 9.15001 3.34709 9.42191 3.50034 9.77702 3.50034L 9.77702 3.30034ZM 10.6448 2.16301C 10.6448 2.49276 10.5672 2.7795 10.4218 2.98092C 10.279 3.17863 10.0671 3.30034 9.77702 3.30034L 9.77702 3.50034C 10.1321 3.50034 10.4041 3.34709 10.5839 3.09799C 10.7611 2.85259 10.8448 2.52066 10.8448 2.16301L 10.6448 2.16301ZM 11.7125 3.35451L 11.7125 1.57643L 11.5125 1.57643L 11.5125 3.35451L 11.7125 3.35451ZM 11.2853 3.45451L 11.6125 3.45451L 11.6125 3.25451L 11.2853 3.25451L 11.2853 3.45451ZM 11.1853 0.971512L 11.1853 3.35451L 11.3853 3.35451L 11.3853 0.971512L 11.1853 0.971512ZM 11.6125 0.871512L 11.2853 0.871512L 11.2853 1.07151L 11.6125 1.07151L 11.6125 0.871512ZM 11.7125 1.28773L 11.7125 0.971512L 11.5125 0.971512L 11.5125 1.28773L 11.7125 1.28773ZM 11.5597 1.19898L 11.5415 1.21732L 11.6835 1.35815L 11.7017 1.33981L 11.5597 1.19898ZM 12.3167 0.825705C 12.0562 0.825705 11.7715 0.960863 11.556 1.20289L 11.7053 1.3359C 11.8897 1.12883 12.1228 1.0257 12.3167 1.0257L 12.3167 0.825705ZM 13.014 1.26494C 12.9114 1.00342 12.6587 0.825705 12.3167 0.825705L 12.3167 1.0257C 12.5836 1.0257 12.7578 1.15957 12.8279 1.33799L 13.014 1.26494ZM 13.6706 0.825705C 13.3565 0.825705 13.0683 0.996383 12.8477 1.23334L 12.9941 1.3696C 13.1916 1.15746 13.4305 1.0257 13.6706 1.0257L 13.6706 0.825705ZM 14.4202 1.64977C 14.4202 1.33521 14.3302 1.12238 14.1786 0.99058C 14.0296 0.861102 13.8391 0.825705 13.6706 0.825705L 13.6706 1.0257C 13.8155 1.0257 13.9498 1.05676 14.0474 1.14152C 14.1422 1.22396 14.2202 1.37317 14.2202 1.64977L 14.4202 1.64977ZM 14.4202 3.35451L 14.4202 1.64977L 14.2202 1.64977L 14.2202 3.35451L 14.4202 3.35451ZM 13.9931 3.45451L 14.3202 3.45451L 14.3202 3.25451L 13.9931 3.25451L 13.9931 3.45451ZM 13.8931 1.64977L 13.8931 3.35451L 14.0931 3.35451L 14.0931 1.64977L 13.8931 1.64977ZM 13.6252 1.30982C 13.711 1.30982 13.7731 1.33389 13.8147 1.37808C 13.8572 1.42312 13.8931 1.50467 13.8931 1.64977L 14.0931 1.64977C 14.0931 1.47406 14.0495 1.33564 13.9603 1.24091C 13.8702 1.14533 13.7484 1.10982 13.6252 1.10982L 13.6252 1.30982ZM 13.0455 1.63886C 13.2249 1.46251 13.3861 1.30982 13.6252 1.30982L 13.6252 1.10982C 13.2924 1.10982 13.0752 1.32915 12.9053 1.49624L 13.0455 1.63886ZM 13.0365 1.64774L 13.0455 1.63886L 12.9053 1.49624L 12.8962 1.50512L 13.0365 1.64774ZM 13.0664 3.35451L 13.0664 1.57643L 12.8664 1.57643L 12.8664 3.35451L 13.0664 3.35451ZM 12.6392 3.45451L 12.9664 3.45451L 12.9664 3.25451L 12.6392 3.25451L 12.6392 3.45451ZM 12.5392 1.64977L 12.5392 3.35451L 12.7392 3.35451L 12.7392 1.64977L 12.5392 1.64977ZM 12.2713 1.30982C 12.3571 1.30982 12.4192 1.33389 12.4608 1.37808C 12.5033 1.42312 12.5392 1.50467 12.5392 1.64977L 12.7392 1.64977C 12.7392 1.47406 12.6957 1.33564 12.6064 1.24091C 12.5163 1.14533 12.3945 1.10982 12.2713 1.10982L 12.2713 1.30982ZM 11.6916 1.63886C 11.871 1.46251 12.0322 1.30982 12.2713 1.30982L 12.2713 1.10982C 11.9386 1.10982 11.7214 1.32915 11.5514 1.49624L 11.6916 1.63886ZM 11.6826 1.64774L 11.6916 1.63886L 11.5514 1.49624L 11.5424 1.50512L 11.6826 1.64774ZM 17.3642 0.0999847C 17.8294 0.0999847 18.1907 0.34202 18.3501 0.845895L 18.5408 0.785544C 18.3551 0.198721 17.9168 -0.100015 17.3642 -0.100015L 17.3642 0.0999847ZM 16.4783 0.852371C 16.4783 0.441716 16.8175 0.0999847 17.3642 0.0999847L 17.3642 -0.100015C 16.7297 -0.100015 16.2783 0.309841 16.2783 0.852371L 16.4783 0.852371ZM 17.4098 1.68246C 17.1675 1.59171 16.9311 1.50415 16.7543 1.37218C 16.5853 1.24715 16.4783 1.08907 16.4783 0.852371L 16.2783 0.852371C 16.2783 1.16608 16.4273 1.37912 16.6354 1.53297C 16.8356 1.67989 17.0973 1.77899 17.3396 1.86975L 17.4098 1.68246ZM 18.3229 2.49297C 18.3229 2.25033 18.1938 2.08468 18.0189 1.96378C 17.8507 1.84847 17.6274 1.76399 17.4098 1.68247L 17.3396 1.86975C 17.5572 1.95128 17.758 2.02572 17.9052 2.12832C 18.0455 2.22533 18.1229 2.33659 18.1229 2.49297L 18.3229 2.49297ZM 17.5005 3.18873C 17.7585 3.18873 17.9651 3.11987 18.1086 2.9929C 18.2532 2.86493 18.3229 2.68726 18.3229 2.49297L 18.1229 2.49297C 18.1229 2.63778 18.0723 2.75799 17.9761 2.84313C 17.8787 2.92926 17.7242 2.98873 17.5005 2.98873L 17.5005 3.18873ZM 16.5484 2.45504C 16.6172 2.63615 16.724 2.82367 16.8733 2.95925C 17.0296 3.09942 17.2351 3.18873 17.5005 3.18873L 17.5005 2.98873C 17.2844 2.98873 17.1264 2.91764 17.0068 2.81034C 16.88 2.69845 16.7983 2.55144 16.7354 2.38429L 16.5484 2.45504ZM 16.344 2.63292L 16.6757 2.51377L 16.6081 2.32555L 16.2764 2.44469L 16.344 2.63292ZM 17.4823 3.30034C 17.1479 3.30034 16.9223 3.19251 16.7593 3.04355C 16.5893 2.89011 16.4866 2.69244 16.4018 2.49868L 16.2186 2.57892C 16.3064 2.77927 16.431 3.01238 16.6244 3.19117C 16.8249 3.37447 17.099 3.50034 17.4823 3.50034L 17.4823 3.30034ZM 18.4863 2.42882C 18.4863 2.65202 18.4242 2.86752 18.2749 3.02658C 18.127 3.1842 17.8804 3.30034 17.4823 3.30034L 17.4823 3.50034C 17.9203 3.50034 18.2257 3.37131 18.4207 3.16346C 18.6145 2.95705 18.6863 2.68678 18.6863 2.42882L 18.4863 2.42882ZM 17.4948 1.54383C 17.7454 1.63794 17.997 1.73141 18.1868 1.87241C 18.3694 2.00691 18.4863 2.17718 18.4863 2.42882L 18.6863 2.42882C 18.6863 2.09858 18.5257 1.87366 18.3054 1.71138C 18.0923 1.55561 17.8157 1.45071 17.5651 1.35659L 17.4948 1.54383ZM 16.6418 0.823609C 16.6391 1.03549 16.7636 1.18016 16.9238 1.28561C 17.0792 1.3871 17.2875 1.46598 17.4948 1.54383L 17.5651 1.35659C 17.3578 1.27874 17.1699 1.20884 17.0338 1.11854C 16.9025 1.03219 16.8403 0.942045 16.8417 0.826141L 16.6418 0.823609ZM 17.3551 0.21163C 17.1497 0.21163 16.972 0.260873 16.8433 0.367519C 16.7121 0.476233 16.6444 0.634195 16.6418 0.823469L 16.8417 0.826281C 16.8437 0.685598 16.8919 0.586938 16.9709 0.521519C 17.0523 0.454032 17.179 0.41163 17.3551 0.41163L 17.3551 0.21163ZM 18.2154 0.864316C 18.1233 0.503191 17.8273 0.21163 17.3551 0.21163L 17.3551 0.41163C 17.728 0.41163 17.9501 0.633314 18.0216 0.913729L 18.2154 0.864316ZM 18.4236 0.718141L 18.0966 0.791444L 18.1403 0.986602L 18.4674 0.913298L 18.4236 0.718141ZM 20.6341 2.66468C 20.5129 2.88464 20.317 3.01623 20.0674 3.01623L 20.0674 3.21623C 20.3994 3.21623 20.6578 3.03617 20.8093 2.7612L 20.6341 2.66468ZM 21.0224 2.75721L 20.768 2.6243L 20.6754 2.80157L 20.9298 2.93447L 21.0224 2.75721ZM 20.0674 3.50034C 20.3548 3.50034 20.5648 3.42365 20.7246 3.30471C 20.8781 3.18864 20.9838 3.03376 21.0629 2.89546L 20.8893 2.79622C 20.8139 2.9283 20.7333 3.05068 20.6052 3.14427C 20.4833 3.23498 20.3162 3.30034 20.0674 3.30034L 20.0674 3.50034ZM 18.9407 2.16301C 18.9407 2.61761 19.0715 2.95387 19.284 3.17714C 19.4964 3.40026 19.7807 3.50034 20.0674 3.50034L 20.0674 3.30034C 19.8272 3.30034 19.5982 3.21712 19.4289 3.03926C 19.2597 2.86154 19.1407 2.57914 19.1407 2.16301L 18.9407 2.16301ZM 20.0038 0.825705C 19.6836 0.825705 19.4134 0.955679 19.2257 1.19372C 19.0398 1.42932 18.9407 1.7627 18.9407 2.16301L 19.1407 2.16301C 19.1407 1.79345 19.2324 1.50818 19.3827 1.31759C 19.5311 1.12945 19.7425 1.0257 20.0038 1.0257L 20.0038 0.825705ZM 21.0034 2.00722C 21.0034 1.6094 20.8963 1.31181 20.7107 1.11296C 20.5247 0.913607 20.2712 0.825705 20.0038 0.825705L 20.0038 1.0257C 20.2271 1.0257 20.4234 1.09819 20.5645 1.2494C 20.7061 1.40112 20.8034 1.64429 20.8034 2.00722L 21.0034 2.00722ZM 21.0034 2.22719L 21.0034 2.00722L 20.8034 2.00722L 20.8034 2.22719L 21.0034 2.22719ZM 19.3678 2.32719L 20.9034 2.32719L 20.9034 2.12719L 19.3678 2.12719L 19.3678 2.32719ZM 20.0674 3.01623C 19.7513 3.01623 19.4678 2.71594 19.4678 2.22719L 19.2678 2.22719C 19.2678 2.78323 19.6021 3.21623 20.0674 3.21623L 20.0674 3.01623ZM 20.013 1.10982C 19.7878 1.10982 19.6065 1.19474 19.4799 1.3477C 19.3559 1.49752 19.2915 1.70371 19.2771 1.93686L 19.4767 1.94922C 19.4895 1.74246 19.5455 1.58204 19.6339 1.47523C 19.7198 1.37156 19.8429 1.30982 20.013 1.30982L 20.013 1.10982ZM 20.6763 1.94304C 20.6763 1.70868 20.6208 1.50203 20.5075 1.35134C 20.3917 1.19754 20.2211 1.10982 20.013 1.10982L 20.013 1.30982C 20.1592 1.30982 20.2703 1.36876 20.3476 1.47159C 20.4274 1.57753 20.4763 1.73748 20.4763 1.94304L 20.6763 1.94304ZM 19.3769 2.04304L 20.5763 2.04304L 20.5763 1.84304L 19.3769 1.84304L 19.3769 2.04304ZM 21.7687 1.61787C 21.8198 1.48889 21.9643 1.30982 22.28 1.30982L 22.28 1.10982C 21.8688 1.10982 21.6588 1.35239 21.5827 1.54414L 21.7687 1.61787ZM 21.3428 1.51821L 21.629 1.66942L 21.7224 1.4926L 21.4363 1.34138L 21.3428 1.51821ZM 22.2754 0.825705C 21.7904 0.825705 21.4676 1.0778 21.3018 1.38193L 21.4774 1.47766C 21.6114 1.23186 21.8701 1.0257 22.2754 1.0257L 22.2754 0.825705ZM 23.1932 1.64061C 23.1932 1.34875 23.0745 1.1396 22.8934 1.00664C 22.7167 0.876884 22.4893 0.825705 22.2754 0.825705L 22.2754 1.0257C 22.4614 1.0257 22.6428 1.07076 22.775 1.16785C 22.9029 1.26174 22.9932 1.41004 22.9932 1.64061L 23.1932 1.64061ZM 23.1932 2.84126L 23.1932 1.64061L 22.9932 1.64061L 22.9932 2.84126L 23.1932 2.84126ZM 23.2446 3.32966C 23.2137 3.20959 23.1928 3.09367 23.1932 2.84126L 22.9932 2.84126C 22.9936 3.11125 23.0183 3.25199 23.0509 3.37936L 23.2446 3.32966ZM 22.8116 3.45451L 23.1477 3.45451L 23.1477 3.25451L 22.8116 3.25451L 22.8116 3.45451ZM 22.6758 3.03551L 22.7122 3.36547L 22.911 3.34355L 22.8746 3.01359L 22.6758 3.03551ZM 21.9938 3.50034C 22.387 3.50034 22.6754 3.2866 22.8498 3.09113L 22.7006 2.95797C 22.5478 3.12914 22.3094 3.30034 21.9938 3.30034L 21.9938 3.50034ZM 21.2213 2.74501C 21.2213 2.98809 21.3085 3.18021 21.4547 3.31057C 21.5992 3.43943 21.7926 3.50034 21.9938 3.50034L 21.9938 3.30034C 21.8315 3.30034 21.6887 3.25128 21.5878 3.16131C 21.4886 3.07285 21.4213 2.9373 21.4213 2.74501L 21.2213 2.74501ZM 22.7485 1.67505C 22.2218 1.76934 21.8429 1.88432 21.5945 2.05072C 21.3364 2.22363 21.2213 2.4509 21.2213 2.74501L 21.4213 2.74501C 21.4213 2.51669 21.5039 2.35215 21.7058 2.21688C 21.9175 2.0751 22.2609 1.96552 22.7838 1.87192L 22.7485 1.67505ZM 22.6662 1.64519L 22.6662 1.77348L 22.8662 1.77348L 22.8662 1.64519L 22.6662 1.64519ZM 22.28 1.30982C 22.4091 1.30982 22.5045 1.33747 22.5661 1.3869C 22.6237 1.43314 22.6662 1.5102 22.6662 1.64519L 22.8662 1.64519C 22.8662 1.46395 22.8064 1.32333 22.6913 1.23094C 22.5802 1.14175 22.4326 1.10982 22.28 1.10982L 22.28 1.30982ZM 22.0392 3.21623C 22.3148 3.21623 22.64 3.02021 22.8417 2.78762L 22.6906 2.65657C 22.5108 2.86392 22.2361 3.01623 22.0392 3.01623L 22.0392 3.21623ZM 21.5485 2.74959C 21.5485 3.03882 21.8174 3.21623 22.0392 3.21623L 22.0392 3.01623C 21.8975 3.01623 21.7485 2.9003 21.7485 2.74959L 21.5485 2.74959ZM 22.7487 1.96832C 22.3698 2.0355 22.0759 2.12636 21.8743 2.24884C 21.6695 2.37329 21.5485 2.53872 21.5485 2.74959L 21.7485 2.74959C 21.7485 2.63053 21.8115 2.52102 21.9781 2.41976C 22.148 2.31656 22.4129 2.23097 22.7836 2.16525L 22.7487 1.96832ZM 22.8662 2.72209L 22.8662 2.06679L 22.6662 2.06679L 22.6662 2.72209L 22.8662 2.72209ZM 23.7203 3.45451L 24.0473 3.45451L 24.0473 3.25451L 23.7203 3.25451L 23.7203 3.45451ZM 23.6203 0.971512L 23.6203 3.35451L 23.8203 3.35451L 23.8203 0.971512L 23.6203 0.971512ZM 24.0473 0.871512L 23.7203 0.871512L 23.7203 1.07151L 24.0473 1.07151L 24.0473 0.871512ZM 24.1473 1.44353L 24.1473 0.971512L 23.9473 0.971512L 23.9473 1.44353L 24.1473 1.44353ZM 24.0564 1.34353L 24.0473 1.34353L 24.0473 1.54353L 24.0564 1.54353L 24.0564 1.34353ZM 24.8243 0.83486C 24.6119 0.83486 24.4439 0.88516 24.3036 0.985973C 24.1713 1.08245 24.0633 1.22659 23.9691 1.39478L 24.1438 1.49227C 24.2313 1.33512 24.3117 1.22492 24.4203 1.1484C 24.5208 1.07622 24.6459 1.03486 24.8243 1.03486L 24.8243 0.83486ZM 24.9243 1.26482L 24.9243 0.93486L 24.7243 0.93486L 24.7243 1.26482L 24.9243 1.26482ZM 24.1427 2.06477C 24.2182 1.82501 24.3046 1.65196 24.4128 1.53827C 24.5172 1.42862 24.647 1.36881 24.8265 1.36479L 24.822 1.16484C 24.5926 1.16998 24.4112 1.24994 24.268 1.40036C 24.1286 1.54674 24.0309 1.75406 23.9519 2.00466L 24.1427 2.06477ZM 24.1473 3.35451L 24.1473 2.03471L 23.9473 2.03471L 23.9473 3.35451L 24.1473 3.35451ZM 26.0645 1.0257C 26.2868 1.0257 26.4415 1.08787 26.5576 1.18598C 26.6819 1.28906 26.763 1.43032 26.8351 1.60933L 27.0205 1.53438C 26.9425 1.3422 26.835 1.16039 26.6867 1.03319C 26.5302 0.901021 26.3282 0.825705 26.0645 0.825705L 26.0645 1.0257ZM 25.1968 2.16301C 25.1968 1.79318 25.2875 1.50801 25.4377 1.31759C 25.5859 1.12977 25.7982 1.0257 26.0645 1.0257L 26.0645 0.825705C 25.7402 0.825705 25.4687 0.955362 25.2807 1.19372C 25.0947 1.42949 24.9968 1.76297 24.9968 2.16301L 25.1968 2.16301ZM 26.0645 3.30034C 25.7982 3.30034 25.5859 3.19628 25.4377 3.00846C 25.2875 2.81803 25.1968 2.53286 25.1968 2.16301L 24.9968 2.16301C 24.9968 2.56306 25.0947 2.89655 25.2807 3.13232C 25.4687 3.37069 25.7402 3.50034 26.0645 3.50034L 26.0645 3.30034ZM 26.8914 2.74489C 26.775 2.94359 26.6724 3.07974 26.5497 3.16792C 26.4303 3.25374 26.2829 3.30034 26.0645 3.30034L 26.0645 3.50034C 26.3141 3.50034 26.5053 3.44613 26.6664 3.33032C 26.8243 3.21686 26.9442 3.05055 27.064 2.84596L 26.8914 2.74489ZM 26.673 2.76741L 26.9365 2.88655L 27.0189 2.7043L 26.7553 2.58516L 26.673 2.76741ZM 26.0645 3.21623C 26.225 3.21566 26.3702 3.18319 26.4888 3.10684C 26.611 3.02601 26.7081 2.89933 26.8023 2.7235L 26.626 2.62907C 26.5385 2.79235 26.4607 2.88564 26.3785 2.94001C 26.2926 2.99884 26.2038 3.01679 26.0645 3.01623L 26.0645 3.21623ZM 25.3239 2.16301C 25.3239 2.47634 25.3847 2.73697 25.5096 2.92234C 25.6378 3.11253 25.829 3.21623 26.0645 3.21623L 26.0645 3.01623C 25.8957 3.01623 25.7666 2.94578 25.6755 2.81058C 25.5812 2.67058 25.5239 2.4546 25.5239 2.16301L 25.3239 2.16301ZM 26.0645 1.10982C 25.829 1.10982 25.6378 1.21352 25.5096 1.4037C 25.3847 1.58907 25.3239 1.84969 25.3239 2.16301L 25.5239 2.16301C 25.5239 1.87144 25.5812 1.65546 25.6755 1.51546C 25.7666 1.38027 25.8957 1.30982 26.0645 1.30982L 26.0645 1.10982ZM 26.7187 1.65183C 26.6693 1.49691 26.5858 1.35582 26.4816 1.26248C 26.3744 1.17026 26.2239 1.11156 26.0645 1.10982L 26.0645 1.30982C 26.1868 1.30809 26.2703 1.34104 26.3495 1.41266C 26.4315 1.48315 26.4865 1.57807 26.5279 1.71185L 26.7187 1.65183ZM 26.8938 1.4778L 26.5894 1.58779L 26.6573 1.77589L 26.9618 1.6659L 26.8938 1.4778ZM 27.591 3.45451L 27.9181 3.45451L 27.9181 3.25451L 27.591 3.25451L 27.591 3.45451ZM 27.491 0.0458221L 27.491 3.35451L 27.691 3.35451L 27.691 0.0458221L 27.491 0.0458221ZM 27.9181 -0.0541779L 27.591 -0.0541779L 27.591 0.145822L 27.9181 0.145822L 27.9181 -0.0541779ZM 28.0181 1.29231L 28.0181 0.0458221L 27.8181 0.0458221L 27.8181 1.29231L 28.0181 1.29231ZM 27.9273 1.19231L 27.9181 1.19231L 27.9181 1.39231L 27.9273 1.39231L 27.9273 1.19231ZM 28.6269 0.825705C 28.3193 0.825705 28.0489 1.00352 27.8523 1.22612L 28.0022 1.3585C 28.178 1.15948 28.3983 1.0257 28.6269 1.0257L 28.6269 0.825705ZM 29.4084 1.62227C 29.4084 1.3427 29.3171 1.13861 29.1644 1.006C 29.0142 0.875602 28.8178 0.825705 28.6269 0.825705L 28.6269 1.0257C 28.7858 1.0257 28.9301 1.06745 29.0333 1.15701C 29.1339 1.24437 29.2084 1.38856 29.2084 1.62227L 29.4084 1.62227ZM 29.4084 3.35451L 29.4084 1.62227L 29.2084 1.62227L 29.2084 3.35451L 29.4084 3.35451ZM 28.9812 3.45451L 29.3084 3.45451L 29.3084 3.25451L 28.9812 3.25451L 28.9812 3.45451ZM 28.8812 1.63142L 28.8812 3.35451L 29.0812 3.35451L 29.0812 1.63142L 28.8812 1.63142ZM 28.5951 1.30982C 28.7004 1.30982 28.7661 1.33352 28.8067 1.37336C 28.847 1.413 28.8812 1.48725 28.8812 1.63142L 29.0812 1.63142C 29.0812 1.4594 29.0406 1.32286 28.9469 1.23074C 28.8534 1.13883 28.726 1.10982 28.5951 1.10982L 28.5951 1.30982ZM 27.9912 1.64013C 28.0619 1.56424 28.1587 1.48284 28.2715 1.41689C 28.384 1.35076 28.4977 1.30982 28.5951 1.30982L 28.5951 1.10982C 28.4472 1.10982 28.2973 1.16971 28.1702 1.24448C 28.0433 1.31945 27.9243 1.41907 27.8451 1.50357L 27.9912 1.64013ZM 28.0181 3.35451L 28.0181 1.57185L 27.8181 1.57185L 27.8181 3.35451L 28.0181 3.35451Z"/>
<path id="path8_fill" fill-rule="evenodd" d="M 4.4856 4.08249L 6.1687 5.77576L 5.72498 6.22223L 4.03967 4.5267C 3.60278 4.86581 3.07153 5.05179 2.51062 5.05179C 1.83997 5.05179 1.20984 4.78909 0.735596 4.31201C 0.261475 3.83493 0 3.20093 0 2.52588C 0 1.85117 0.261475 1.21686 0.735596 0.740082C 1.20984 0.263 1.83997 0 2.51062 0C 3.1814 0 3.81177 0.263 4.28577 0.740082C 4.76025 1.21686 5.02136 1.85117 5.02136 2.52588C 5.02136 3.09802 4.83179 3.64014 4.4856 4.08249ZM 0.627686 2.52588C 0.627686 3.03201 0.823486 3.50815 1.17944 3.86523C 1.53503 4.2233 2.00793 4.42032 2.51062 4.42032C 3.01379 4.42032 3.48633 4.2233 3.84192 3.86557C 4.19788 3.50815 4.39368 3.03201 4.39368 2.52588C 4.39368 2.01978 4.19788 1.54428 3.84192 1.18686C 3.48633 0.828491 3.01379 0.63147 2.51062 0.63147C 2.00793 0.63147 1.53503 0.828491 1.17944 1.18652C 0.823486 1.54428 0.627686 2.01978 0.627686 2.52588Z"/>
</defs>
</svg>
