<?xml version="1.0" encoding="utf-8"?>
<!-- Generator: Adobe Illustrator 22.1.0, SVG Export Plug-In . SVG Version: 6.00 Build 0)  -->
<!DOCTYPE svg PUBLIC "-//W3C//DTD SVG 1.1//EN" "http://www.w3.org/Graphics/SVG/1.1/DTD/svg11.dtd">
<svg version="1.1" id="Layer_1" xmlns="http://www.w3.org/2000/svg" xmlns:xlink="http://www.w3.org/1999/xlink" x="0px" y="0px"
	 viewBox="0 0 487 91.8" style="enable-background:new 0 0 487 91.8;" xml:space="preserve">
<style type="text/css">
	.st0{fill:#2D6CC0;}
	.st1{fill:#F1AB00;}
</style>
<title>ucr_logo</title>
<path class="st0" d="M159.1,0.3v10.2c0,1.7,1.2,3.1,3.4,3.1s3.4-1.4,3.4-3.1V0.3h1.6v10.1c0,2.9-2.1,4.6-5.1,4.6s-5-1.7-5-4.6V0.3
	H159.1z"/>
<path class="st0" d="M174.4,14.7V0.3h2.3l6.3,11.1h0.1V0.3h1.4v14.4h-1.3l-7.3-12.8l0,0v12.8H174.4z"/>
<path class="st0" d="M193.2,0.3v14.4h-1.6V0.3H193.2z"/>
<path class="st0" d="M198.6,0.3h1.6l3.6,11.8l0,0l3.6-11.8h1.6l-4.5,14.4h-1.5L198.6,0.3z"/>
<path class="st0" d="M222.7,0.3v1.4h-7v4.8h5v1.4h-5v5.5h7.4v1.4h-9V0.3H222.7z"/>
<path class="st0" d="M228.6,14.7V0.3h4.6c3.1,0,4.8,1.4,4.8,3.8c0.1,1.8-1.1,3.3-2.9,3.8l3.1,6.9h-1.7l-2.9-6.5h-3.4v6.5H228.6z
	 M230.2,6.8h2.9c2.2,0,3.4-0.8,3.4-2.6s-1.4-2.5-3.4-2.5h-2.9L230.2,6.8z"/>
<path class="st0" d="M251.3,3.9c-0.4-1.5-1.8-2.6-3.4-2.5c-1.7,0-2.7,0.8-2.7,2.2c0,3.2,8.1,2.3,8.1,7c0,2.1-1.2,4.2-4.8,4.2
	c-3.2,0-4.4-2-5.1-3.8l1.5-0.5c0.5,1.7,2,2.9,3.8,2.9c2.1,0,3.2-1.1,3.2-2.6c0-3.7-8.1-2.6-8.1-7.1c0-2.1,1.7-3.7,4.3-3.7
	c2.2-0.1,4.2,1.4,4.7,3.5L251.3,3.9z"/>
<path class="st0" d="M261.2,0.3v14.4h-1.6V0.3H261.2z"/>
<path class="st0" d="M272.6,1.6v13H271v-13h-4.3V0.3h10.2v1.4H272.6z"/>
<path class="st0" d="M284.6,8.6l-4.4-8.3h1.8l3.5,6.6l3.5-6.6h1.8l-4.4,8.3v6.1h-1.6V8.6z"/>
<path class="st0" d="M308.7,0.1c3.5,0,5.6,2.6,5.6,7.4s-2.1,7.4-5.6,7.4s-5.6-2.6-5.6-7.4S305.1,0.1,308.7,0.1z M308.7,13.5
	c2.5,0,4-1.9,4-6s-1.5-6-4-6s-4,2-4,6S306.1,13.5,308.7,13.5z"/>
<path class="st0" d="M328.4,0.3v1.4h-6.9v4.8h5.1v1.4h-5.1v6.9h-1.6V0.3H328.4z"/>
<path class="st0" d="M351.4,10.4c-0.6,2.7-2.1,4.5-5.1,4.5c-3.2,0-5.5-2.4-5.5-7.4c0-4.7,2-7.4,5.5-7.4c2.7,0,4.2,1.6,4.9,4.2
	l-1.5,0.4c-0.5-2-1.4-3.3-3.6-3.3s-3.7,1.9-3.7,6s1.6,6,4,6c2.2,0,3.1-1.7,3.5-3.4L351.4,10.4z"/>
<path class="st0" d="M355.2,14.7l4.4-14.4h2.4l4.4,14.4h-1.7l-1.4-4.5h-5.2l-1.4,4.5H355.2z M358.6,8.8h4.4l-2.1-7.4h-0.2L358.6,8.8
	z"/>
<path class="st0" d="M371.6,14.7V0.3h1.6v13h6.8v1.4L371.6,14.7z"/>
<path class="st0" d="M387.1,0.3v14.4h-1.6V0.3H387.1z"/>
<path class="st0" d="M402.7,0.3v1.4h-6.9v4.8h5.1v1.4h-5.1v6.9h-1.6V0.3H402.7z"/>
<path class="st0" d="M412.4,0.1c3.5,0,5.6,2.6,5.6,7.4s-2.1,7.4-5.6,7.4s-5.6-2.6-5.6-7.4S408.9,0.1,412.4,0.1z M412.4,13.5
	c2.5,0,4-1.9,4-6s-1.5-6-4-6s-4,2-4,6S409.9,13.5,412.4,13.5z"/>
<path class="st0" d="M423.6,14.7V0.3h4.6c3.1,0,4.8,1.4,4.8,3.8c0.1,1.8-1.1,3.3-2.9,3.8l3,6.9h-1.7l-2.9-6.5h-3.4v6.5H423.6z
	 M425.2,6.8h2.9c2.2,0,3.4-0.8,3.4-2.6s-1.4-2.5-3.4-2.5h-2.9L425.2,6.8z"/>
<path class="st0" d="M439.6,14.7V0.3h2.3l6.3,11.1h0.1V0.3h1.4v14.4h-1.3l-7.3-12.8l0,0v12.8H439.6z"/>
<path class="st0" d="M458.4,0.3v14.4h-1.6V0.3H458.4z"/>
<path class="st0" d="M463.9,14.7l4.4-14.4h2.4l4.4,14.4h-1.7l-1.4-4.5H467l-1.4,4.5H463.9z M467.4,8.8h4.4l-2.1-7.4h-0.2L467.4,8.8z
	"/>
<path class="st0" d="M157.5,90.9V19.4h12.3v71.6H157.5z"/>
<path class="st0" d="M208.3,19.4h12.1l-15,71.6h-12.3l-15-71.6h12.1l8.9,49.7h0.2L208.3,19.4z"/>
<path class="st0" d="M228.4,90.9V19.4h32.9v10.7h-20.6v18.4h15.9v10.7h-15.9v21h22v10.7H228.4z"/>
<path class="st0" d="M284.6,90.9h-12.3V19.4h17.2c13.8,0,20.8,5.9,20.8,21.1c0,11.5-4.5,16.2-8.6,18l10.4,32.4h-12.5l-8.7-29.6
	c-2.1,0.2-4.2,0.3-6.3,0.3V90.9z M284.6,51.5h4.4c6.6,0,9.1-2.5,9.1-11s-2.5-11-9.1-11h-4.4V51.5z"/>
<path class="st0" d="M343.3,37c-0.5-6.1-3.8-7.9-6.5-7.9c-4,0-6.1,2.6-6.1,7c0,12.2,25,18,25,37.5c0,11.8-7.9,18.3-19.4,18.3
	s-17.9-9.1-18.4-19.8l11.7-1.7c0.5,7.2,3.4,10.8,7.3,10.8c4.3,0,7.1-2.3,7.1-6.5c0-14.2-25-17.9-25-38.5c0-11.4,6.9-17.8,19-17.8
	c10,0,16,7.2,17,17.3L343.3,37z"/>
<path class="st0" d="M366.2,90.9V19.4h12.3v71.6H366.2z"/>
<path class="st0" d="M392.2,19.4h18.2c12.7,0,19.4,6.9,19.4,21.6v28.3c0,14.7-6.7,21.6-19.4,21.6h-18.2V19.4z M404.5,80.8h4.3
	c6.5,0,8.8-2.5,8.8-10V39.5c0-7.5-2.3-10-8.8-10h-4.3V80.8z"/>
<path class="st0" d="M442,90.9V19.4h32.9v10.7h-20.6v18.4h15.9v10.7h-15.9v21h22v10.7H442z"/>
<path class="st1" d="M0.1,19.3h12.2v53.4c0,5.2,2.1,7.7,6.5,7.7s6.5-2.6,6.5-7.7V19.3h12.1v52.9c0,12.2-7,18.8-18.6,18.8
	S0.1,84.4,0.1,72.2V19.3z"/>
<path class="st1" d="M73.6,42.9v-5.5c0-6-2.7-8.5-5.9-8.5c-4.9,0-6.5,2.5-6.5,7.8v35.9c0,5.3,1.6,7.8,6.5,7.8c4.4,0,5.9-2.6,5.9-7.2
	v-8.5h12.2v8.1c0,10-5.9,18.1-18,18.1C55,91,49.1,82.9,49.1,72.9V36.4c0-10,5.9-18.1,18.6-18.1c12.2,0,18,8.8,18,19.4v5.2H73.6z"/>
<path class="st0" d="M113.6,0.1H97.9V91h15.6V53.7 M135.3,49.8c5.3-2.4,10.9-8.3,10.9-22.9c0-19.4-8.9-26.8-26.4-26.8h-5.8l2.5,15.8
	l9.4-14.4l-5.7,17.2l15.5-9.4l-12.7,13l22.1-2.6l-21.1,7.1l20.3,7.2l-21.3-2.7l12.6,13l-15.5-9.4l5.7,17.2l-9.2-14.2l-2.6,15.8
	c2.5,0,5-0.1,7.5-0.4L132.7,91h15.9L135.3,49.8z"/>
<path class="st1" d="M78.5,90.9"/>
<g>
	<path class="st1" d="M483.4-0.1h3.6v92h-3.6V-0.1z"/>
</g>
</svg>
