<svg id="Layer_1" data-name="Layer 1" xmlns="http://www.w3.org/2000/svg" viewBox="0 0 173.24 92.31"><defs><style>.cls-1{fill:#f1ab00;}.cls-2{fill:#2d6cc0;}</style></defs><title>ucr_mono_rgb</title><path class="cls-1" d="M-.08,1.21H15.3V68.8c0,6.57,2.6,9.79,8.18,9.79s8.19-3.22,8.19-9.79V1.21H47v67C47,83.56,38.11,92,23.48,92S-.08,83.56-.08,68.18Z" transform="translate(0.08 0.03)"/><path class="cls-1" d="M92.93,31.1V24.16c0-7.57-3.47-10.79-7.44-10.79-6.2,0-8.19,3.22-8.19,9.92V68.67c0,6.7,2,9.92,8.19,9.92,5.58,0,7.44-3.22,7.44-9V58.75h15.38V69c0,12.65-7.44,22.95-22.82,22.95C69.37,92,61.93,81.69,61.93,69V22.92c0-12.65,7.44-23,23.56-23,15.38,0,22.82,11.16,22.82,24.56V31.1Z" transform="translate(0.08 0.03)"/><path class="cls-2" d="M138.21,1.42H122.57V92.28h15.6V55M160,51.13c5.28-2.39,10.94-8.31,10.94-22.91,0-19.38-8.93-26.8-26.42-26.8h-5.74l2.52,15.78,9.34-14.38L144.85,20l15.51-9.42-12.64,13,22.13-2.59-21.1,7.08L169,35.33l-21.3-2.71,12.64,13-15.51-9.42,5.74,17.22-9.25-14.24L138.73,55a72.09,72.09,0,0,0,7.49-.38L157.3,92.28h15.86Z" transform="translate(0.08 0.03)"/></svg>